<svg id="color" enable-background="new 0 0 24 24" height="512" viewBox="0 0 24 24" width="512" xmlns="http://www.w3.org/2000/svg"><path d="m14.75 24h-5.5c-.414 0-.75-.336-.75-.75v-7.75c0-.414.336-.75.75-.75h5.5c.414 0 .75.336.75.75v7.75c0 .414-.336.75-.75.75z" fill="#607d8b"/><path d="m22.25 18h-20.5c-.965 0-1.75-.785-1.75-1.75v-14.5c0-.965.785-1.75 1.75-1.75h20.5c.965 0 1.75.785 1.75 1.75v14.5c0 .965-.785 1.75-1.75 1.75z" fill="#eceff1"/><path d="m13.25 5h-2.5c-.414 0-.75-.336-.75-.75s.336-.75.75-.75h2.5c.414 0 .75.336.75.75s-.336.75-.75.75z" fill="#ffc107"/><path d="m11.25 0v4.25c0 .414.336.75.75.75s.75-.336.75-.75v-4.25z" fill="#ffc107"/><path d="m12 18h-3.5v5.25c0 .414.336.75.75.75h2.75z" fill="#546d79"/><path d="m11.25 0h-9.5c-.965 0-1.75.785-1.75 1.75v14.5c0 .965.785 1.75 1.75 1.75h6.75 3.5v-13h-1.25c-.414 0-.75-.336-.75-.75s.336-.75.75-.75h.5z" fill="#cdd0d2"/><path d="m11.25 3.5h-.5c-.414 0-.75.336-.75.75s.336.75.75.75h1.25c-.414 0-.75-.336-.75-.75z" fill="#dea806"/><path d="m12 0h-.75v3.5.75c0 .414.336.75.75.75z" fill="#dea806"/><path d="m6.25 5h-2.5c-.414 0-.75-.336-.75-.75s.336-.75.75-.75h2.5c.414 0 .75.336.75.75s-.336.75-.75.75z" fill="#ffc107"/><path d="m4.25 0v4.25c0 .414.336.75.75.75s.75-.336.75-.75v-4.25z" fill="#ffc107"/><path d="m4.25 3.5h-.5c-.414 0-.75.336-.75.75s.336.75.75.75h1.25c-.414 0-.75-.336-.75-.75z" fill="#dea806"/><path d="m5 0h-.75v3.5.75c0 .414.336.75.75.75z" fill="#dea806"/><path d="m20.25 5h-2.5c-.414 0-.75-.336-.75-.75s.336-.75.75-.75h2.5c.414 0 .75.336.75.75s-.336.75-.75.75z" fill="#ffc107"/><path d="m18.25 0v4.25c0 .414.336.75.75.75s.75-.336.75-.75v-4.25z" fill="#ffc107"/><g fill="#dea806"><path d="m18.25 3.5h-.5c-.414 0-.75.336-.75.75s.336.75.75.75h1.25c-.414 0-.75-.336-.75-.75z"/><path d="m19 0h-.75v3.5.75c0 .414.336.75.75.75z"/></g></svg>