<?xml version="1.0" encoding="utf-8"?>
<!-- Generator: Adobe Illustrator 24.0.1, SVG Export Plug-In . SVG Version: 6.00 Build 0)  -->
<svg version="1.1" id="Layer_1" xmlns="http://www.w3.org/2000/svg" xmlns:xlink="http://www.w3.org/1999/xlink" x="0px" y="0px"
	 viewBox="0 0 2581.79 1795.28" style="enable-background:new 0 0 2581.79 1795.28;" xml:space="preserve">
<style type="text/css">
	.st0{fill:#E6E7E8;}
	.st1{fill:#E4AF18;}
	.st2{fill:#F4BF1A;}
	.st3{fill:#FFD949;}
	.st4{fill:#DCA815;}
	.st5{fill:#C49214;}
	.st6{fill:#FCC62D;}
	.st7{fill:#D39D71;}
	.st8{fill:#EAB888;}
	.st9{fill:#A8D29F;}
	.st10{fill:#699FF0;}
	.st11{fill:#F1A34F;}
	.st12{fill:#2B478B;}
	.st13{fill:#B74B42;}
	.st14{fill:#2A4E96;}
	.st15{fill:#C65447;}
	.st16{fill:#233862;}
	.st17{fill:#FFB27D;}
	.st18{fill:#5794DD;}
	.st19{fill:#E8945B;}
	.st20{fill-rule:evenodd;clip-rule:evenodd;fill:#F28C71;}
	.st21{fill-rule:evenodd;clip-rule:evenodd;fill:#111120;}
	.st22{fill-rule:evenodd;clip-rule:evenodd;fill:#F38C71;}
	.st23{clip-path:url(#SVGID_2_);}
	.st24{fill-rule:evenodd;clip-rule:evenodd;fill:#009DFD;}
	.st25{clip-path:url(#SVGID_4_);}
	.st26{clip-path:url(#SVGID_6_);}
	.st27{clip-path:url(#SVGID_8_);}
	.st28{fill:#FFD24D;}
	.st29{fill-rule:evenodd;clip-rule:evenodd;fill:#FFFBFC;}
	.st30{fill:#FFFBFC;}
	.st31{fill:#8CB7EA;}
	.st32{fill:#98C6F4;}
	.st33{fill:#D9935C;}
	.st34{fill:#CC8250;}
	.st35{opacity:0.4;fill:#D86713;}
	.st36{fill:#B64C41;}
	.st37{fill:#AA413E;}
	.st38{fill:#CB7D45;}
	.st39{fill:#466AA5;}
	.st40{opacity:0.8;fill:#D2E4FF;stroke:#000000;stroke-width:3.5075;stroke-miterlimit:10;}
	.st41{fill:#1C3051;}
	.st42{fill:#FFFFFF;}
	.st43{fill:#88B374;}
	.st44{fill:#ACD29A;}
	.st45{fill:#ED985F;}
	.st46{fill:#AB7041;}
	.st47{fill:url(#SVGID_9_);}
	.st48{fill:url(#SVGID_10_);}
	.st49{fill:url(#SVGID_11_);}
	.st50{fill:url(#SVGID_12_);}
	.st51{fill:url(#SVGID_13_);}
	.st52{fill:url(#SVGID_14_);}
	.st53{fill:url(#SVGID_15_);}
	.st54{fill:url(#SVGID_16_);}
	.st55{fill:url(#SVGID_17_);}
	.st56{fill:url(#SVGID_18_);}
	.st57{fill:url(#SVGID_19_);}
	.st58{fill:url(#SVGID_20_);}
	.st59{fill:url(#SVGID_21_);}
	.st60{fill:url(#SVGID_22_);}
	.st61{fill:url(#SVGID_23_);}
	.st62{fill:url(#SVGID_24_);}
	.st63{fill:url(#SVGID_25_);}
	.st64{fill:url(#SVGID_26_);}
	.st65{fill:#E7F3FE;}
	.st66{fill:#A2DFF2;}
	.st67{fill:#96CFE0;}
	.st68{fill:#F37168;}
	.st69{fill:#2E5B9A;}
	.st70{fill:#F09959;}
	.st71{fill:#E38540;}
	.st72{fill:#75A1DE;}
	.st73{fill:#A86B48;}
	.st74{fill:#3E6BAB;}
	.st75{fill:#F0CEB4;}
	.st76{fill:#F7A96F;}
	.st77{fill:#A8CEFF;}
	.st78{fill:#6695D6;}
	.st79{fill:#303C60;}
	.st80{fill:#D54A41;}
	.st81{fill:#F39892;}
	.st82{fill:#9EC8FF;}
	.st83{fill:#3E2723;}
	.st84{fill:#09121F;}
	.st85{fill:#112D4E;}
	.st86{fill:#6F7046;}
	.st87{fill:#AB7361;}
	.st88{fill:#96513C;}
	.st89{fill:#515233;}
	.st90{fill:#98995F;}
	.st91{fill:#7A7A4C;}
	.st92{fill:#F5E8D0;}
	.st93{fill:#212121;}
	.st94{fill:#E53935;}
	.st95{fill:#B71C1C;}
	.st96{opacity:0.5;fill:url(#SVGID_27_);}
	.st97{fill:#DA935B;}
	.st98{fill:#CB8757;}
	.st99{fill:#E58435;}
	.st100{fill:#DBA763;}
	.st101{fill:#E8B679;}
	.st102{fill:#FFE1C0;}
	.st103{fill:#2A3742;}
	.st104{fill:#3C4D56;}
	.st105{fill:#1B2630;}
	.st106{fill:#FF514D;}
	.st107{fill:#61E2C0;}
	.st108{fill:#3FAF94;}
	.st109{fill:#4DC5AC;}
	.st110{fill:#C1AEB6;}
	.st111{fill:#EADCE1;}
	.st112{fill:#9B8790;}
	.st113{fill:#FFAD97;}
	.st114{fill:#ED3A3A;}
	.st115{fill:#FFC5B3;}
	.st116{fill:#111120;}
	.st117{fill-rule:evenodd;clip-rule:evenodd;fill:#FF8E80;}
	.st118{clip-path:url(#SVGID_29_);fill-rule:evenodd;clip-rule:evenodd;fill:#009DFD;}
	.st119{clip-path:url(#SVGID_29_);}
	.st120{clip-path:url(#SVGID_31_);fill-rule:evenodd;clip-rule:evenodd;fill:#009DFD;}
	.st121{fill:#007BD3;}
	.st122{fill-rule:evenodd;clip-rule:evenodd;fill:#FF7F38;}
	.st123{clip-path:url(#SVGID_33_);fill-rule:evenodd;clip-rule:evenodd;fill:#111120;}
	.st124{fill:#FF7F38;}
	.st125{fill-rule:evenodd;clip-rule:evenodd;fill:none;stroke:#FFFFFF;stroke-width:1.2586;stroke-miterlimit:10;}
	.st126{opacity:0.5;fill:url(#SVGID_36_);}
	.st127{fill:#FEDB41;}
	.st128{fill:#E2A63B;}
	.st129{fill:#FFD064;}
	.st130{fill:#FFC250;}
	.st131{fill:#EBB044;}
	.st132{fill:url(#SVGID_37_);}
	.st133{fill:url(#SVGID_38_);}
	.st134{fill:url(#SVGID_39_);}
	.st135{fill:url(#SVGID_40_);}
	.st136{fill:url(#SVGID_41_);}
	.st137{fill:url(#SVGID_42_);}
	.st138{fill:url(#SVGID_43_);}
	.st139{fill:url(#SVGID_44_);}
	.st140{fill:url(#SVGID_45_);}
	.st141{fill:url(#SVGID_46_);}
	.st142{fill:url(#SVGID_47_);}
	.st143{fill:url(#SVGID_48_);}
	.st144{fill:url(#SVGID_49_);}
	.st145{fill:url(#SVGID_50_);}
	.st146{fill:url(#SVGID_51_);}
	.st147{fill:url(#SVGID_52_);}
	.st148{fill:url(#SVGID_53_);}
	.st149{fill:url(#SVGID_54_);}
	.st150{fill:#F4B844;}
	.st151{clip-path:url(#SVGID_56_);fill-rule:evenodd;clip-rule:evenodd;fill:#009DFD;}
	.st152{clip-path:url(#SVGID_56_);}
	.st153{clip-path:url(#SVGID_58_);fill-rule:evenodd;clip-rule:evenodd;fill:#009DFD;}
	.st154{clip-path:url(#SVGID_60_);fill-rule:evenodd;clip-rule:evenodd;fill:#111120;}
	.st155{fill-rule:evenodd;clip-rule:evenodd;fill:none;stroke:#FFFFFF;stroke-width:1.3389;stroke-miterlimit:10;}
	.st156{clip-path:url(#SVGID_68_);}
	.st157{clip-path:url(#SVGID_70_);}
	.st158{clip-path:url(#SVGID_72_);}
	.st159{clip-path:url(#SVGID_74_);}
	.st160{fill:#FFCD00;}
	.st161{fill:#FFDE55;}
	.st162{fill:#FFEB99;}
	.st163{fill:#293D7C;}
	.st164{fill:#1A2B63;}
	.st165{fill:#E26693;}
	.st166{fill:#FFAF10;}
	.st167{fill:#37C47A;}
	.st168{fill:#AEC1ED;}
	.st169{fill:#85A0DD;}
	.st170{fill:#D9EAFC;}
	.st171{fill:#FFD00D;}
	.st172{fill:#B7092B;}
	.st173{fill:#445EA0;}
	.st174{fill:none;}
	.st175{fill:#FFE2B8;}
	.st176{fill:#FE3745;}
	.st177{fill:#FFC987;}
	.st178{fill:#52BBEF;}
	.st179{fill:#69CDFF;}
</style>
<g>
	<path class="st163" d="M1342.29,414.31H863.62c-14.11,0-25.66,11.55-25.66,25.67v128.34h504.33V414.31z M1342.29,414.31"/>
	<path class="st164" d="M914.73,414.31h-51.11c-14.11,0-25.66,11.55-25.66,25.67v128.34h51.09V439.98
		C889.06,425.85,900.62,414.31,914.73,414.31L914.73,414.31z M914.73,414.31"/>
	<path class="st165" d="M924.87,516.86c-5.7,0-11.27-2.31-15.3-6.32c-4.01-4.04-6.31-9.6-6.31-15.3c0-5.69,2.3-11.25,6.31-15.29
		c4.04-4.04,9.6-6.35,15.3-6.35c5.69,0,11.28,2.31,15.28,6.35c4.03,4.04,6.34,9.6,6.34,15.29c0,5.7-2.31,11.27-6.34,15.3
		C936.15,514.56,930.56,516.86,924.87,516.86L924.87,516.86z M924.87,516.86"/>
	<path class="st166" d="M995.79,516.86c-5.69,0-11.28-2.31-15.29-6.35c-4.02-4.01-6.33-9.58-6.33-15.28
		c0-5.69,2.31-11.25,6.33-15.28c4.03-4.05,9.6-6.35,15.29-6.35c5.7,0,11.27,2.29,15.3,6.35c4.01,4.02,6.32,9.59,6.32,15.28
		c0,5.68-2.31,11.27-6.32,15.28C1007.05,514.56,1001.49,516.86,995.79,516.86L995.79,516.86z M995.79,516.86"/>
	<path class="st167" d="M1066.73,516.86c-5.71,0-11.28-2.31-15.29-6.32c-4.04-4.04-6.35-9.6-6.35-15.3c0-5.69,2.31-11.25,6.35-15.29
		c4.01-4.04,9.58-6.35,15.29-6.35c5.67,0,11.27,2.31,15.28,6.35c4.04,4.04,6.35,9.6,6.35,15.29c0,5.7-2.31,11.27-6.35,15.3
		C1077.97,514.56,1072.4,516.86,1066.73,516.86L1066.73,516.86z M1066.73,516.86"/>
	<path class="st168" d="M1355.17,677.1c-7.08,0-12.88-5.79-12.88-12.88v-95.91H837.96v675.43c34.58,53.01,76.9,100.49,125.39,140.85
		h806.8c48.48-40.36,90.8-87.84,125.39-140.85V677.1H1355.17z M1355.17,677.1"/>
	<path class="st169" d="M889.06,1227.05V568.32h-51.09v675.43c0.36,0.56,0.74,1.11,1.1,1.66L889.06,1227.05z M889.06,1227.05"/>
	<path class="st170" d="M1355.17,677.1c-7.08,0-12.88-5.79-12.88-12.88v-31.74H915.01c-7.08,0-12.88,5.79-12.88,12.88v576.88
		l111.14-40.82c1.12-0.4,2.15-0.63,2.98-0.63s1.38,0.2,1.66,0.59c0.42,0.59,0.55,2.05-0.3,4.39l-49.47,134.66h850.33
		c7.08,0,12.88-5.8,12.88-12.88V677.1H1355.17z M1355.17,677.1"/>
	<path class="st171" d="M1339.72,666.8c0,7.08,5.79,12.88,12.88,12.88h660.57c7.08,0,12.88-5.79,12.88-12.88V317.42
		c0-7.08-5.8-12.88-12.88-12.88h-660.57c-7.08,0-12.88,5.8-12.88,12.88V666.8z M1339.72,666.8"/>
	<path class="st166" d="M1390.82,666.8V317.42c0-7.08,5.79-12.88,12.88-12.88h-51.11c-7.08,0-12.88,5.8-12.88,12.88V666.8
		c0,7.08,5.79,12.88,12.88,12.88h51.11C1396.62,679.67,1390.82,673.88,1390.82,666.8L1390.82,666.8z M1390.82,666.8"/>
	<path class="st172" d="M2026.04,317.42c0-7.08-5.8-12.88-12.88-12.88h-121.49v126.64c0,4.26,3.46,7.73,7.73,7.73h126.64V317.42z
		 M2026.04,317.42"/>
	<path class="st173" d="M1751.91,769.37h-446.89c-10.68,0-19.32-8.65-19.32-19.32c0-10.66,8.64-19.32,19.32-19.32h446.89
		c10.66,0,19.32,8.65,19.32,19.32C1771.22,760.72,1762.57,769.37,1751.91,769.37L1751.91,769.37z M1751.91,769.37"/>
	<path class="st173" d="M1751.91,835.04h-446.89c-10.68,0-19.32-8.65-19.32-19.32c0-10.68,8.64-19.32,19.32-19.32h446.89
		c10.66,0,19.32,8.64,19.32,19.32C1771.22,826.39,1762.57,835.04,1751.91,835.04L1751.91,835.04z M1751.91,835.04"/>
	<path class="st173" d="M1605.85,900.7h-300.84c-10.68,0-19.32-8.64-19.32-19.32c0-10.66,8.64-19.32,19.32-19.32h300.84
		c10.68,0,19.32,8.65,19.32,19.32C1625.17,892.06,1616.53,900.7,1605.85,900.7L1605.85,900.7z M1605.85,900.7"/>
	<path class="st173" d="M1326.75,1234.2H999.83l-14.19,38.63h341.1c10.68,0,19.32-8.65,19.32-19.32
		C1346.06,1242.85,1337.42,1234.2,1326.75,1234.2L1326.75,1234.2z M1326.75,1234.2"/>
	<path class="st173" d="M1326.75,1172.39h-343.8c-10.68,0-19.32,8.65-19.32,19.32c0,2.63,0.53,5.14,1.48,7.42l48.17-17.69
		c1.12-0.4,2.15-0.63,2.98-0.63s1.38,0.2,1.66,0.59c0.42,0.59,0.55,2.05-0.3,4.39l-9.28,25.24h318.41
		c10.68,0,19.32-8.65,19.32-19.32C1346.06,1181.04,1337.42,1172.39,1326.75,1172.39L1326.75,1172.39z M1326.75,1172.39"/>
	<path class="st173" d="M1326.75,1149.21h-343.8c-10.68,0-19.32-8.64-19.32-19.32c0-10.66,8.64-19.32,19.32-19.32h343.8
		c10.68,0,19.32,8.65,19.32,19.32C1346.06,1140.57,1337.42,1149.21,1326.75,1149.21L1326.75,1149.21z M1326.75,1149.21"/>
	<path class="st173" d="M1750.55,1272.83h-343.81c-10.68,0-19.32-8.65-19.32-19.32c0-10.66,8.64-19.32,19.32-19.32h343.81
		c10.67,0,19.32,8.65,19.32,19.32C1769.87,1264.18,1761.22,1272.83,1750.55,1272.83L1750.55,1272.83z M1750.55,1272.83"/>
	<path class="st173" d="M1750.55,1211.02h-343.81c-10.68,0-19.32-8.65-19.32-19.32c0-10.66,8.64-19.32,19.32-19.32h343.81
		c10.67,0,19.32,8.65,19.32,19.32C1769.87,1202.37,1761.22,1211.02,1750.55,1211.02L1750.55,1211.02z M1750.55,1211.02"/>
	<path class="st173" d="M1750.55,1149.21h-343.81c-10.68,0-19.32-8.64-19.32-19.32c0-10.66,8.64-19.32,19.32-19.32h343.81
		c10.67,0,19.32,8.65,19.32,19.32C1769.87,1140.57,1761.22,1149.21,1750.55,1149.21L1750.55,1149.21z M1750.55,1149.21"/>
	<rect x="707.45" y="267.63" class="st174" width="1318.59" height="1263.65"/>
	<path class="st173" d="M1235.4,914.9c0,7.08-5.8,12.88-12.88,12.88H964.99c-7.08,0-12.88-5.8-12.88-12.88V719.18
		c0-7.08,5.8-12.88,12.88-12.88h257.54c7.08,0,12.88,5.8,12.88,12.88V914.9z M1235.4,914.9"/>
	<path class="st173" d="M1776.86,1062.97c0,7.08-5.8,12.88-12.88,12.88H969.51c-7.08,0-12.88-5.79-12.88-12.88v-91.43
		c0-7.08,5.8-12.88,12.88-12.88h794.48c7.08,0,12.88,5.8,12.88,12.88V1062.97z M1776.86,1062.97"/>
	<path class="st163" d="M1003.22,914.9V719.18c0-7.08,5.79-12.88,12.88-12.88h-51.11c-7.08,0-12.88,5.8-12.88,12.88V914.9
		c0,7.08,5.8,12.88,12.88,12.88h51.11C1009.01,927.78,1003.22,921.99,1003.22,914.9L1003.22,914.9z M1003.22,914.9"/>
	<path class="st163" d="M1007.73,1062.97v-91.43c0-7.08,5.8-12.88,12.88-12.88h-51.11c-7.08,0-12.88,5.8-12.88,12.88v91.43
		c0,7.08,5.8,12.88,12.88,12.88h51.11C1013.53,1075.85,1007.73,1070.06,1007.73,1062.97L1007.73,1062.97z M1007.73,1062.97"/>
	<path class="st164" d="M1643.74,608.44h-56.66c-10.68,0-19.32-8.65-19.32-19.32v-177.7c0-10.66,8.64-19.32,19.32-19.32h56.66
		c31.95,0,57.95,25.99,57.95,57.95v100.44C1701.69,582.44,1675.7,608.44,1643.74,608.44L1643.74,608.44z M1606.4,569.81h37.34
		c10.65,0,19.32-8.66,19.32-19.32V450.05c0-10.65-8.66-19.32-19.32-19.32h-37.34V569.81z M1606.4,569.81"/>
	<path class="st164" d="M1803.42,608.44h-69.53c-10.68,0-19.32-8.65-19.32-19.32s8.64-19.32,19.32-19.32h69.53
		c3.49,0,6.44-2.95,6.44-6.44v-37.34c0-3.49-2.95-6.44-6.44-6.44h-43.78c-24.85,0-45.07-20.21-45.07-45.07v-37.34
		c0-24.85,20.21-45.07,45.07-45.07h69.53c10.66,0,19.32,8.65,19.32,19.32c0,10.66-8.65,19.32-19.32,19.32h-69.53
		c-3.49,0-6.44,2.95-6.44,6.44v37.34c0,3.49,2.95,6.44,6.44,6.44h43.78c24.84,0,45.07,20.21,45.07,45.07v37.34
		C1848.49,588.22,1828.26,608.44,1803.42,608.44L1803.42,608.44z M1803.42,608.44"/>
	<path class="st164" d="M1496.95,392.11h-18.03c-31.95,0-57.95,25.99-57.95,57.95v139.07c0,10.66,8.64,19.32,19.32,19.32
		c10.66,0,19.32-8.65,19.32-19.32v-69.11h56.66v69.11c0,10.66,8.64,19.32,19.32,19.32c10.66,0,19.32-8.65,19.32-19.32V450.05
		C1554.89,418.1,1528.9,392.11,1496.95,392.11L1496.95,392.11z M1459.61,481.38v-31.33c0-10.65,8.66-19.32,19.32-19.32h18.03
		c10.65,0,19.32,8.66,19.32,19.32v31.33H1459.61z M1459.61,481.38"/>
	<path class="st165" d="M1986.17,371.73l17.47-17.47c7.54-7.54,7.54-19.77,0-27.31c-7.55-7.54-19.77-7.54-27.32,0l-17.47,17.46
		l-17.46-17.46c-7.54-7.55-19.77-7.55-27.32,0c-7.54,7.54-7.54,19.77,0.01,27.31l17.46,17.47l-17.46,17.46
		c-7.55,7.54-7.55,19.77-0.01,27.31c3.78,3.77,8.72,5.66,13.67,5.66c4.94,0,9.89-1.89,13.66-5.66l17.46-17.46l17.47,17.46
		c3.77,3.77,8.72,5.66,13.66,5.66c4.95,0,9.89-1.89,13.67-5.66c7.54-7.54,7.54-19.77,0-27.31L1986.17,371.73z M1986.17,371.73"/>
</g>
<g>
	<g>
		<path class="st127" d="M798.97,1112.12L798.97,1112.12c-7.52-13.75-19.46-24.81-33.88-31.33c-8.91-4.32-18.53-6.34-28.23-6.26
			c-7.05-0.35-14.36,0.76-21.07,2.74c-38.11,10.88-60.15,50.36-49.26,88.47c10.88,38.11,50.36,60.15,88.47,49.26
			c17.57-5.18,32.3-16.46,41.91-32.14c6.5-10.94,10.1-23.46,10.22-35.99c0.26-7.37-0.76-14.36-2.83-21.39
			C802.98,1121.01,800.29,1116.59,798.97,1112.12z"/>
		<path class="st128" d="M733.49,1137.32c-5.75,1.69-11.95-1.68-13.65-7.43c-1.69-5.75,1.68-11.95,7.43-13.65
			c5.75-1.69,11.95,1.68,13.65,7.43c1.04,3.51,4.76,5.54,8.27,4.51c3.51-1.04,5.54-4.76,4.51-8.27
			c-3.01-10.22-12.77-17.41-23.52-17.37l-0.75-2.56c-1.04-3.51-4.76-5.54-8.27-4.51c-3.51,1.04-5.54,4.76-4.51,8.27l0.75,2.56
			c-9.47,5.57-13.77,16.9-10.34,27.35c3.77,12.78,17.41,20.21,30.19,16.45c5.75-1.69,11.95,1.68,13.65,7.43
			c1.69,5.75-1.68,11.95-7.43,13.65l0,0c-5.75,1.69-11.95-1.68-13.65-7.43c-1.04-3.51-4.76-5.54-8.27-4.51
			c-3.51,1.04-5.54,4.76-4.51,8.27c3.11,10.54,12.77,17.41,23.52,17.37l1.51,5.11c1.04,3.51,4.76,5.54,8.27,4.51
			c3.51-1.04,5.54-4.76,4.51-8.27l-1.51-5.11c11.42-7.19,14.59-22.35,7.09-33.68C754.73,1138.7,743.71,1134.31,733.49,1137.32z"/>
	</g>
	<g>
		<path class="st127" d="M969.54,1378.95L969.54,1378.95c7.86-22.78,8.1-47.81,0.59-70.94c-4.3-14.6-11.95-27.64-22.07-38.59
			c-6.89-8.38-15.71-15.55-24.9-21.13c-51.79-32.09-119.49-16.34-151.58,35.46c-32.09,51.79-16.33,119.49,35.46,151.58
			c24.06,14.63,52.13,19.71,79.9,14.43c19.17-3.93,37.13-12.78,51.52-25.6c8.65-7.32,15.55-15.71,21.4-25.34
			C963.57,1392.7,965.81,1385.07,969.54,1378.95z"/>
		<path class="st128" d="M873.15,1330.53c-7.87-4.79-10.45-15.34-5.66-23.21c4.79-7.87,15.34-10.45,23.21-5.66
			c7.87,4.79,10.45,15.34,5.66,23.21c-2.93,4.81-1.38,11.14,3.43,14.07s11.14,1.38,14.07-3.43c8.51-14,6.6-32.54-4.57-44.72
			l2.13-3.5c2.93-4.81,1.38-11.14-3.43-14.07c-4.81-2.93-11.14-1.38-14.07,3.43l-2.13,3.5c-16.13-5.01-33.46,1.82-41.8,16.52
			c-10.64,17.5-4.98,40.71,12.52,51.35c7.87,4.79,10.45,15.34,5.66,23.21c-4.79,7.87-15.34,10.45-23.21,5.66l0,0
			c-7.87-4.79-10.45-15.34-5.66-23.21c2.93-4.81,1.38-11.14-3.43-14.07s-11.14-1.38-14.07,3.43c-8.78,14.44-6.6,32.54,4.57,44.72
			l-4.26,7c-2.93,4.81-1.38,11.14,3.43,14.07c4.81,2.93,11.14,1.38,14.07-3.43l4.26-7c19.99,5.56,40.52-6.52,45.64-26.77
			C893.54,1356.11,887.15,1339.04,873.15,1330.53z"/>
	</g>
	<g>
		<path class="st127" d="M1044.1,1168.33L1044.1,1168.33c-3.16-11.63-10.1-22.03-19.71-29.48c-5.89-4.82-12.72-8.06-19.98-9.74
			c-5.2-1.53-10.87-2-16.23-1.73c-30.43,1.31-53.98,26.86-52.67,57.29c1.31,30.43,26.86,53.97,57.29,52.67
			c14.06-0.72,27.09-6.52,37.08-16.51c6.82-7.01,11.75-15.72,14.09-25.07c1.51-5.46,2-10.87,1.72-16.49
			C1045.5,1175.69,1044.28,1171.91,1044.1,1168.33z"/>
		<path class="st128" d="M990.64,1175.44c-4.6,0.24-8.63-3.4-8.87-8c-0.24-4.6,3.4-8.63,8-8.87c4.6-0.24,8.63,3.4,8.87,8
			c0.14,2.81,2.56,4.99,5.37,4.85c2.81-0.14,4.99-2.56,4.85-5.37c-0.42-8.18-6.42-15.3-14.47-17.2l-0.11-2.04
			c-0.14-2.81-2.56-4.99-5.37-4.85c-2.81,0.14-4.99,2.56-4.85,5.37l0.11,2.04c-8.07,2.47-13.32,10.17-12.63,18.59
			c0.53,10.22,9.39,18.23,19.62,17.7c4.6-0.24,8.63,3.4,8.87,8c0.24,4.6-3.4,8.63-8,8.87l0,0c-4.6,0.24-8.63-3.4-8.87-8
			c-0.14-2.81-2.56-4.99-5.37-4.85c-2.81,0.14-4.99,2.56-4.85,5.37c0.43,8.43,6.42,15.3,14.47,17.2l0.21,4.09
			c0.14,2.81,2.56,4.99,5.37,4.85c2.81-0.14,4.99-2.56,4.85-5.37l-0.21-4.09c9.82-3.32,14.91-14.09,11.33-23.9
			C1006.27,1180.27,998.82,1175.02,990.64,1175.44z"/>
	</g>
	<g>
		<path class="st127" d="M933.26,1066.38L933.26,1066.38c3.11-9.01,3.2-18.91,0.23-28.07c-1.7-5.78-4.73-10.94-8.73-15.27
			c-2.72-3.32-6.22-6.15-9.85-8.36c-20.49-12.7-47.28-6.46-59.97,14.03c-12.7,20.49-6.46,47.28,14.03,59.97
			c9.52,5.79,20.62,7.8,31.61,5.71c7.58-1.55,14.69-5.05,20.38-10.13c3.42-2.9,6.15-6.22,8.47-10.02
			C930.91,1071.82,931.79,1068.81,933.26,1066.38z"/>
		<path class="st128" d="M895.13,1047.23c-3.12-1.89-4.13-6.07-2.24-9.18c1.89-3.12,6.07-4.13,9.18-2.24
			c3.12,1.89,4.13,6.07,2.24,9.18c-1.16,1.9-0.55,4.41,1.36,5.57s4.41,0.55,5.57-1.36c3.37-5.54,2.61-12.87-1.81-17.69l0.84-1.38
			c1.16-1.9,0.55-4.41-1.36-5.57s-4.41-0.55-5.57,1.36l-0.84,1.38c-6.38-1.98-13.24,0.72-16.54,6.54
			c-4.21,6.92-1.97,16.11,4.95,20.32c3.12,1.89,4.13,6.07,2.24,9.18s-6.07,4.13-9.18,2.24l0,0c-3.12-1.89-4.13-6.07-2.24-9.18
			c1.16-1.9,0.55-4.41-1.36-5.57c-1.9-1.16-4.41-0.55-5.57,1.36c-3.47,5.71-2.61,12.87,1.81,17.69l-1.68,2.77
			c-1.16,1.9-0.55,4.41,1.36,5.57s4.41,0.55,5.57-1.36l1.68-2.77c7.91,2.2,16.03-2.58,18.06-10.59
			C903.2,1057.35,900.67,1050.59,895.13,1047.23z"/>
	</g>
	<g>
		<path class="st127" d="M1072.98,1045.54L1072.98,1045.54c2.91-8.43,3-17.7,0.22-26.26c-1.59-5.4-4.43-10.23-8.17-14.28
			c-2.55-3.1-5.82-5.75-9.22-7.82c-19.17-11.88-44.23-6.05-56.11,13.12c-11.88,19.17-6.05,44.23,13.13,56.11
			c8.91,5.42,19.3,7.3,29.58,5.34c7.09-1.45,13.74-4.73,19.07-9.48c3.2-2.71,5.75-5.82,7.92-9.38
			C1070.78,1050.63,1071.61,1047.81,1072.98,1045.54z"/>
		<path class="st128" d="M1037.31,1027.62c-2.91-1.77-3.87-5.68-2.09-8.59c1.77-2.91,5.68-3.87,8.59-2.09
			c2.91,1.77,3.87,5.68,2.09,8.59c-1.08,1.78-0.51,4.12,1.27,5.21c1.78,1.08,4.12,0.51,5.21-1.27c3.15-5.18,2.44-12.04-1.69-16.55
			l0.79-1.3c1.08-1.78,0.51-4.12-1.27-5.21c-1.78-1.08-4.12-0.51-5.21,1.27l-0.79,1.3c-5.97-1.86-12.39,0.67-15.47,6.12
			c-3.94,6.48-1.84,15.07,4.63,19.01c2.91,1.77,3.87,5.68,2.09,8.59s-5.68,3.87-8.59,2.09l0,0c-2.91-1.77-3.87-5.68-2.09-8.59
			c1.08-1.78,0.51-4.12-1.27-5.21s-4.12-0.51-5.21,1.27c-3.25,5.34-2.44,12.04,1.69,16.55l-1.58,2.59
			c-1.08,1.78-0.51,4.12,1.27,5.21c1.78,1.08,4.12,0.51,5.21-1.27l1.58-2.59c7.4,2.06,15-2.41,16.89-9.91
			C1044.86,1037.09,1042.49,1030.77,1037.31,1027.62z"/>
	</g>
	<g>
		<path class="st127" d="M1165.97,1064.32L1165.97,1064.32c2.24-6.5,2.31-13.64,0.17-20.23c-1.23-4.16-3.41-7.88-6.3-11.01
			c-1.96-2.39-4.48-4.43-7.1-6.03c-14.77-9.15-34.08-4.66-43.23,10.11s-4.66,34.08,10.11,43.23c6.86,4.17,14.87,5.62,22.79,4.12
			c5.47-1.12,10.59-3.64,14.69-7.3c2.47-2.09,4.43-4.48,6.1-7.23C1164.27,1068.24,1164.91,1066.07,1165.97,1064.32z"/>
		<path class="st128" d="M1138.48,1050.51c-2.25-1.37-2.98-4.38-1.61-6.62c1.37-2.25,4.38-2.98,6.62-1.61
			c2.25,1.37,2.98,4.38,1.61,6.62c-0.83,1.37-0.39,3.18,0.98,4.01c1.37,0.83,3.18,0.39,4.01-0.98c2.43-3.99,1.88-9.28-1.3-12.75
			l0.61-1c0.83-1.37,0.39-3.18-0.98-4.01c-1.37-0.83-3.18-0.39-4.01,0.98l-0.61,1c-4.6-1.43-9.54,0.52-11.92,4.71
			c-3.03,4.99-1.42,11.61,3.57,14.65c2.25,1.37,2.98,4.38,1.61,6.62c-1.37,2.25-4.38,2.98-6.62,1.61l0,0
			c-2.25-1.37-2.98-4.38-1.61-6.62c0.83-1.37,0.39-3.18-0.98-4.01c-1.37-0.83-3.18-0.39-4.01,0.98c-2.5,4.12-1.88,9.28,1.3,12.75
			l-1.21,2c-0.83,1.37-0.39,3.18,0.98,4.01c1.37,0.83,3.18,0.39,4.01-0.98l1.21-2c5.7,1.59,11.56-1.86,13.02-7.64
			C1144.3,1057.81,1142.47,1052.94,1138.48,1050.51z"/>
	</g>
	<path class="st175" d="M494.6,1790.93l-4.55,2.63h-94.36l-31.16-53.99l-0.07-0.11h-0.01l-0.03-0.04l-0.03-0.06l-0.83-1.45
		l-4.18-7.24l-3.1-5.37l3.15-1.81l7.28,12.61c0.25,0.44,0.53,0.86,0.83,1.27c3.01,4.25,7.98,6.83,13.29,6.83
		c2.83,0,5.62-0.74,8.06-2.16l22.13-12.77c1.16-0.67,2.2-1.46,3.12-2.36c0.76-0.72,1.45-1.51,2.03-2.36
		c0.19-0.29,0.38-0.58,0.56-0.87c0.15-0.23,0.29-0.47,0.41-0.71c0.27-0.48,0.51-0.97,0.71-1.47c0.22-0.5,0.4-1.01,0.55-1.53
		c0.08-0.26,0.16-0.52,0.22-0.78c0.11-0.42,0.2-0.84,0.27-1.27c0.04-0.22,0.08-0.43,0.1-0.65c0.04-0.26,0.06-0.51,0.08-0.77
		c0.02-0.16,0.03-0.31,0.04-0.46c0.16-3.04-0.52-6.14-2.15-8.96l-5.38-9.32c-0.49-0.84-0.62-1.82-0.4-2.73
		c0.1-0.43,0.28-0.84,0.54-1.22c0.09-0.13,0.18-0.24,0.28-0.36c0.1-0.12,0.21-0.22,0.32-0.32c0.2-0.17,0.4-0.32,0.62-0.44
		c0.56-0.33,1.2-0.5,1.86-0.5c0.18,0,0.36,0.01,0.54,0.03c0.82,0.13,1.65,0.19,2.47,0.19c0.9,0,1.79-0.07,2.66-0.23
		c0.58-0.09,1.15-0.22,1.71-0.37c0.07-0.02,0.15-0.04,0.22-0.07c0.56-0.16,1.11-0.35,1.64-0.57c0.66-0.27,1.3-0.59,1.91-0.94
		l0.61-0.35l7.29-4.21c0.59-0.34,1.23-0.5,1.86-0.5c1.29,0,2.53,0.67,3.22,1.86v0.01c1.03,1.78,0.42,4.04-1.36,5.07
		c-2.66,1.54-4.73,3.71-6.13,6.22c-0.52,0.93-0.94,1.89-1.26,2.9c0,0,0,0,0,0.01c-0.25,0.74-0.44,1.51-0.57,2.29
		c-0.05,0.26-0.09,0.52-0.12,0.78c-0.31,2.41-0.09,4.9,0.71,7.29c0.34,1.02,0.79,2.02,1.35,2.99l8.35,14.45
		c0.72,1.24,1.59,2.37,2.59,3.36c0.25,0.25,0.5,0.49,0.77,0.72c0.26,0.24,0.53,0.47,0.81,0.67c0.83,0.65,1.72,1.21,2.66,1.67
		c0.32,0.17,0.64,0.32,0.96,0.45c0.32,0.14,0.65,0.27,0.98,0.38c0.34,0.12,0.67,0.22,1.01,0.32c0.26,0.07,0.51,0.14,0.77,0.2
		c0.39,0.09,0.78,0.17,1.18,0.23c0.4,0.06,0.8,0.1,1.2,0.14c0.36,0.04,0.72,0.06,1.09,0.06c0.1,0.01,0.19,0.01,0.29,0.01
		c0.9,0,1.8-0.07,2.68-0.23c1.93-0.31,3.79-0.97,5.49-1.95c0.59-0.34,1.23-0.5,1.86-0.5c1.28,0,2.52,0.66,3.22,1.85v0.01
		c1.03,1.78,0.42,4.05-1.36,5.08c-2.66,1.54-4.73,3.71-6.13,6.22c-0.52,0.93-0.94,1.9-1.26,2.91c-0.21,0.64-0.38,1.3-0.52,1.97
		c0,0.03,0,0.07-0.02,0.1c-0.06,0.33-0.12,0.66-0.15,1c-0.44,3.44,0.19,7.04,2.06,10.27l8.34,14.46c0.72,1.24,1.59,2.37,2.59,3.36
		c0.24,0.25,0.5,0.5,0.77,0.72c0.26,0.24,0.53,0.47,0.81,0.67c0.83,0.65,1.72,1.21,2.66,1.67c0.24,0.12,0.48,0.23,0.72,0.34
		c1.2,0.55,2.47,0.94,3.78,1.17h0.01c0.53,0.1,1.06,0.17,1.59,0.21c0.36,0.04,0.72,0.06,1.09,0.06c0.1,0.01,0.19,0.01,0.29,0.01
		c0.9,0,1.8-0.08,2.69-0.23c1.91-0.31,3.77-0.97,5.46-1.95c0.59-0.33,1.22-0.49,1.85-0.49c1.29,0,2.53,0.67,3.23,1.85v0.01
		C496.98,1787.62,496.37,1789.89,494.6,1790.93z"/>
	<path class="st173" d="M365.23,1633.84c5.82,0,11.24,3.1,14.12,8.1l8.09,14.01c0.67,1.16,1.9,1.86,3.22,1.86
		c0.09,0,0.18,0,0.28-0.01c1.42-0.11,2.66-1.02,3.18-2.34c1.38-3.5,3.81-6.34,7.03-8.19l65.83-38.01c0.13-0.07,0.27-0.12,0.4-0.2
		l-43.83-75.91l-90.95,52.51l28.19,48.82C362.23,1634.07,363.72,1633.84,365.23,1633.84z"/>
	<g>
		<path class="st163" d="M365.23,1633.84c5.82,0,11.24,3.1,14.12,8.1l8.09,14.01c0.67,1.16,1.9,1.86,3.22,1.86
			c0.09,0,0.18,0,0.28-0.01c1.42-0.11,2.66-1.02,3.18-2.34c1.38-3.5,3.81-6.34,7.03-8.19l0.61-0.35l-43.81-75.88l-25.35,14.63
			l28.19,48.82C362.23,1634.07,363.72,1633.84,365.23,1633.84z"/>
		<path class="st163" d="M486.43,1793.56h-33.8l-36.58-63.35v-0.01l-1.91-3.29v-0.01c0.75-0.72,1.43-1.52,2.03-2.35
			c0.19-0.29,0.38-0.58,0.56-0.87c0.14-0.24,0.28-0.47,0.41-0.71c0.26-0.48,0.5-0.97,0.71-1.47c0.21-0.5,0.39-1.01,0.55-1.53
			c0.08-0.26,0.16-0.52,0.22-0.78c0.11-0.42,0.2-0.84,0.27-1.27c0.04-0.22,0.07-0.44,0.1-0.65c0.04-0.26,0.06-0.51,0.08-0.77
			c0.02-0.16,0.03-0.31,0.04-0.46c0.16-3.04-0.52-6.14-2.15-8.96l-5.38-9.32c-0.49-0.84-0.62-1.82-0.4-2.73
			c0.1-0.43,0.28-0.84,0.54-1.22c0.09-0.13,0.18-0.24,0.28-0.36c0.1-0.12,0.21-0.22,0.32-0.32c0.2-0.18,0.4-0.33,0.62-0.44v-0.01
			c0.56-0.33,1.2-0.5,1.86-0.5c0.18,0,0.36,0.02,0.54,0.04c0.82,0.13,1.65,0.19,2.47,0.19c0.9,0,1.79-0.07,2.66-0.23
			c0.58-0.09,1.15-0.22,1.71-0.37c0.07-0.02,0.15-0.04,0.22-0.07c0.56-0.16,1.11-0.35,1.64-0.57c0.66-0.27,1.3-0.59,1.91-0.94
			l0.61-0.35l2.79,4.83l2.09,3.62l0.01,0.02c-0.51,0.92-0.93,1.89-1.27,2.88c0,0,0.01,0.01,0,0.01c-0.24,0.75-0.43,1.51-0.57,2.29
			c-0.05,0.26-0.09,0.52-0.12,0.78c-0.31,2.41-0.09,4.9,0.71,7.29c0.34,1.02,0.79,2.02,1.35,2.99l8.35,14.45
			c0.72,1.24,1.59,2.37,2.59,3.36c0.25,0.25,0.5,0.49,0.77,0.72c0.26,0.23,0.53,0.46,0.81,0.67c0.83,0.64,1.72,1.2,2.66,1.67
			c0.32,0.16,0.64,0.31,0.96,0.45c0.32,0.13,0.65,0.26,0.98,0.38c0.34,0.12,0.67,0.22,1.01,0.32c0.26,0.07,0.51,0.14,0.77,0.2
			c0.78,0.18,1.58,0.3,2.38,0.37c0.36,0.03,0.72,0.04,1.08,0.05l0.01,0.01l2.09,3.63l0.01,0.02l1.85,3.21l2.1,3.63l0.01,0.02
			c-0.51,0.92-0.94,1.89-1.27,2.89c-0.21,0.64-0.38,1.3-0.52,1.97c0,0.03,0,0.07-0.02,0.1c-0.06,0.33-0.11,0.66-0.15,1
			c-0.44,3.44,0.19,7.04,2.06,10.27l8.34,14.46c0.72,1.24,1.59,2.37,2.59,3.36c0.25,0.25,0.51,0.49,0.77,0.72s0.54,0.46,0.81,0.67
			c0.83,0.64,1.73,1.2,2.66,1.67c0.24,0.12,0.48,0.23,0.72,0.34c1.2,0.53,2.47,0.92,3.78,1.17h0.01c0.53,0.1,1.06,0.17,1.59,0.21
			c0.36,0.03,0.72,0.04,1.08,0.05l0.01,0.01l2.09,3.63l0.01,0.02l0.93,1.6v0.01L486.43,1793.56z"/>
	</g>
	<path class="st42" d="M241.67,1487.99l-49.3,28.46c-4.43,2.56-5.96,8.27-3.4,12.7l39.69,68.74c2.56,4.43,8.27,5.96,12.7,3.4
		l49.3-28.46L241.67,1487.99z"/>
	<path class="st170" d="M216.74,1524.22l34.39-19.85l-9.46-16.38l-49.3,28.46c-4.43,2.56-5.96,8.27-3.4,12.7l39.69,68.74
		c2.56,4.43,8.27,5.96,12.7,3.4l6.86-3.96l-34.88-60.41C210.78,1532.5,212.32,1526.78,216.74,1524.22z"/>
	<polygon class="st0" points="531.92,1141.95 371.18,1387.89 442.1,1510.72 735.46,1494.49 	"/>
	<polygon class="st170" points="531.92,1141.95 371.18,1387.89 392.81,1425.35 553.55,1179.41 	"/>
	<path class="st176" d="M451.05,1511.82c2.56,4.43,1.02,10.14-3.4,12.7l-134.57,77.69c-4.43,2.56-10.14,1.02-12.7-3.4l-76.34-132.22
		c-2.56-4.43-1.02-10.14,3.4-12.7l134.57-77.69c4.43-2.56,10.14-1.03,12.7,3.4L451.05,1511.82z"/>
	<path class="st172" d="M259.99,1476.5c-2.56-4.43-1.02-10.14,3.4-12.7l119.95-69.25l-8.63-14.95c-2.56-4.43-8.27-5.96-12.7-3.4
		l-134.57,77.69c-4.43,2.56-5.96,8.27-3.4,12.7l76.34,132.22c2.56,4.43,8.27,5.96,12.7,3.4l14.61-8.44L259.99,1476.5z"/>
	<path class="st176" d="M806.78,1505.77c2.56,4.43,1.02,10.14-3.4,12.7l-36.46,21.05c-4.43,2.56-10.14,1.03-12.7-3.4l-248.97-431.22
		c-2.56-4.43-1.02-10.14,3.4-12.7l36.46-21.05c4.43-2.56,10.14-1.03,12.7,3.4L806.78,1505.77z"/>
	<path class="st172" d="M536.87,1115.43c-2.56-4.43-1.02-10.14,3.4-12.7l25.35-14.64l-7.82-13.55c-2.56-4.43-8.27-5.96-12.7-3.4
		l-36.46,21.05c-4.43,2.56-5.96,8.27-3.4,12.7l248.97,431.22c2.56,4.43,8.27,5.96,12.7,3.4l11.1-6.41L536.87,1115.43z"/>
	<polygon class="st170" points="294.85,1793.56 247.2,1793.56 278.44,1775.53 282.94,1772.93 	"/>
	<polygon class="st168" points="294.85,1793.56 247.2,1793.56 278.44,1775.53 282.94,1772.93 	"/>
	<path class="st175" d="M390.75,1745.25c-9.51,5.49-21.78,2.2-27.26-7.31l-37.6-65.13c-5.49-9.51-2.2-21.78,7.3-27.27l22.12-12.77
		c9.51-5.49,21.78-2.2,27.26,7.3l37.6,65.13c5.49,9.51,2.2,21.78-7.3,27.26L390.75,1745.25z"/>
	<path class="st177" d="M420.18,1705.22l-37.6-65.13c-3.79-6.57-10.82-10.16-17.95-9.95l37.58,65.1c5.49,9.51,2.2,21.78-7.3,27.27
		l-22.12,12.77c-2.94,1.7-6.14,2.55-9.32,2.65l0.02,0.03c5.49,9.51,17.76,12.8,27.26,7.31l22.12-12.77
		C422.38,1726.99,425.66,1714.72,420.18,1705.22z"/>
	<path class="st175" d="M501.03,1627.88c5.55,9.61,2.23,22.01-7.38,27.56l-65.83,38.01c-9.61,5.55-22.01,2.23-27.56-7.38
		l-8.34-14.46c-5.55-9.61-2.23-22.01,7.38-27.56l65.83-38.01c9.61-5.55,22.01-2.23,27.56,7.38L501.03,1627.88z"/>
	<path class="st177" d="M420.43,1692.11l-8.35-14.46c-5.55-9.61-2.23-22.01,7.38-27.56l65.83-38.01c1.59-0.92,3.26-1.57,4.96-2.01
		c-6.23-6.96-16.74-8.88-25.14-4.04l-65.83,38.01c-9.61,5.55-12.93,17.95-7.38,27.56l8.34,14.46c4.63,8.02,14.03,11.64,22.6,9.4
		C421.95,1694.45,421.13,1693.33,420.43,1692.11z"/>
	<path class="st175" d="M537.45,1672.72c5.55,9.61,2.23,22.01-7.38,27.56l-65.83,38.01c-9.61,5.55-22.01,2.23-27.56-7.38
		l-8.35-14.46c-5.55-9.61-2.23-22.01,7.38-27.56l65.83-38.01c9.61-5.55,22.01-2.23,27.56,7.38L537.45,1672.72z"/>
	<path class="st177" d="M456.85,1736.95l-8.35-14.46c-5.55-9.61-2.23-22.01,7.38-27.56l65.83-38.01c1.59-0.92,3.26-1.57,4.96-2.01
		c-6.23-6.96-16.74-8.88-25.14-4.04l-65.83,38.01c-9.61,5.55-12.93,17.95-7.38,27.56l8.34,14.46c4.63,8.02,14.03,11.64,22.6,9.4
		C458.37,1739.28,457.56,1738.17,456.85,1736.95z"/>
	<g>
		<path class="st175" d="M565.98,1722.11c5.55,9.61,2.23,22.01-7.38,27.56l-65.83,38.01c-9.61,5.55-22.01,2.23-27.56-7.38
			l-8.35-14.46c-5.55-9.61-2.23-22.01,7.38-27.56l65.83-38.01c9.61-5.55,22.01-2.23,27.56,7.38L565.98,1722.11z"/>
		<path class="st175" d="M587.86,1793.56H482.88c0.62-0.48,1.28-0.91,1.97-1.31h0.01l0.61-0.35v-0.01l7.29-4.21l3.2-1.84l6.87-3.97
			l3.54-2.05l4.79-2.76l39.52-22.82h0.01c0.07-0.04,0.14-0.08,0.21-0.12c1.37-0.77,2.8-1.36,4.25-1.78
			c0.31-0.09,0.62-0.17,0.93-0.24c0.1-0.03,0.19-0.05,0.29-0.07c0.36-0.08,0.72-0.15,1.08-0.21c0.54-0.09,1.09-0.15,1.64-0.2
			c0.85-0.07,1.7-0.09,2.55-0.04c0.34,0.01,0.69,0.04,1.03,0.07c0.23,0.02,0.45,0.05,0.66,0.07c0.43,0.06,0.86,0.13,1.28,0.21
			c0.43,0.08,0.85,0.18,1.27,0.29c0.02,0.01,0.04,0.02,0.06,0.02c0.34,0.09,0.68,0.19,1.02,0.3c3.02,0.96,5.81,2.63,8.11,4.95
			c0.26,0.26,0.51,0.52,0.75,0.79c0.9,1.01,1.72,2.12,2.43,3.34l8.34,14.46C589.78,1781.6,590.04,1788.03,587.86,1793.56z"/>
	</g>
	<g>
		<path class="st177" d="M485.37,1786.35l-8.35-14.46c-5.55-9.61-2.23-22.01,7.38-27.56l65.83-38.01c1.59-0.92,3.26-1.57,4.96-2.01
			c-6.23-6.96-16.74-8.88-25.14-4.04l-65.83,38.01c-9.61,5.55-12.93,17.95-7.38,27.56l8.35,14.46c4.63,8.02,14.03,11.64,22.6,9.4
			C486.89,1788.69,486.08,1787.57,485.37,1786.35z"/>
		<path class="st177" d="M575.82,1758.28c-1.7,0.44-3.37,1.09-4.96,2.01l-57.62,33.27h-30.36c0.62-0.48,1.28-0.91,1.97-1.31h0.01
			l0.61-0.36l7.29-4.21l3.2-1.84v-0.01l6.87-3.96l3.54-2.05l4.79-2.76l39.52-22.82h0.01c0.07-0.04,0.14-0.08,0.21-0.12
			c1.37-0.77,2.8-1.36,4.25-1.78c0.31-0.09,0.62-0.17,0.93-0.24c0.1-0.03,0.19-0.05,0.29-0.07c0.36-0.08,0.72-0.15,1.08-0.21
			c0.54-0.09,1.09-0.15,1.64-0.2c0.85-0.06,1.7-0.08,2.55-0.04c0.34,0.01,0.69,0.04,1.03,0.07c0.23,0.02,0.45,0.05,0.66,0.07
			c0.43,0.06,0.86,0.13,1.28,0.21c0.43,0.08,0.85,0.18,1.27,0.29c0.02,0.01,0.04,0.02,0.06,0.02c0.34,0.09,0.68,0.19,1.02,0.3
			c3.01,0.97,5.81,2.65,8.11,4.95C575.33,1757.75,575.58,1758.01,575.82,1758.28z"/>
	</g>
	<path class="st178" d="M395.68,1793.56H288.85l-10.41-18.03l-8.08-14c-2.55-4.42-1.02-10.14,3.41-12.69l64.02-36.97
		c4.09-2.36,9.28-1.23,12.05,2.45c0.01,0.01,0.02,0.02,0.02,0.03c0.23,0.29,0.45,0.6,0.63,0.93l5.79,10.02l3.1,5.37l4.18,7.24
		l0.83,1.45l0.03,0.06l0.03,0.04L395.68,1793.56z"/>
	<path class="st179" d="M395.68,1793.56h-82.73l-10.98-19.01c-2.56-4.43-1.02-10.14,3.4-12.7l53.94-31.14l0.07-0.04l4.18,7.24
		l0.89,1.55h0.01L395.68,1793.56z"/>
</g>
<g>
	<g id="XMLID_1_">
		<path id="XMLID_46_" class="st1" d="M1870.31,1473.04c-160.92,0-291.38-33.19-291.38-67.24v78.4
			c0.09,34.02,130.5,67.29,291.38,67.29s291.29-33.26,291.38-67.29v-78.4C2161.68,1439.84,2031.22,1473.04,1870.31,1473.04"/>
		<path id="XMLID_45_" class="st2" d="M1836.68,1349.76c-160.92,0-291.38-33.19-291.38-67.24v78.4
			c0.09,34.02,130.5,67.29,291.38,67.29s291.29-33.26,291.38-67.29v-78.4C2128.06,1316.57,1997.6,1349.76,1836.68,1349.76"/>
		<path id="XMLID_44_" class="st1" d="M1903.93,1226.49c-160.92,0-291.38-33.19-291.38-67.24v78.4
			c0.09,34.02,130.5,67.29,291.38,67.29s291.29-33.26,291.38-67.29v-78.4C2195.3,1193.29,2064.84,1226.49,1903.93,1226.49"/>
		<path id="XMLID_43_" class="st3" d="M2128.06,1026.22c0,34.04-130.46,65.78-291.38,65.78s-291.38-31.75-291.38-65.78
			c0-34.05,130.46-57.49,291.38-57.49S2128.06,992.18,2128.06,1026.22"/>
		<path id="XMLID_42_" class="st2" d="M1836.68,1092.01c-160.92,0-291.38-33.19-291.38-67.24v78.4
			c0.09,34.02,130.5,67.29,291.38,67.29s291.29-33.26,291.38-67.29v-78.4C2128.06,1058.81,1997.6,1092.01,1836.68,1092.01"/>
		<path id="XMLID_41_" class="st4" d="M1590.13,1059.21v78.39c6.81,2.51,14.28,4.93,22.41,7.24v-78.4
			C1604.41,1064.13,1596.95,1061.71,1590.13,1059.21"/>
		<path id="XMLID_40_" class="st4" d="M2060.82,1066.44v78.4c8.14-2.31,15.6-4.73,22.41-7.24v-78.39
			C2076.42,1061.73,2068.96,1064.13,2060.82,1066.44"/>
		<path id="XMLID_39_" class="st4" d="M1646.17,1074.58v78.41c7.17,1.49,14.65,2.9,22.41,4.24v-78.41
			C1660.82,1077.48,1653.34,1076.07,1646.17,1074.58"/>
		<path id="XMLID_38_" class="st4" d="M2004.79,1078.82v78.43c7.77-1.34,15.24-2.76,22.41-4.25v-78.41
			C2020.03,1076.07,2012.55,1077.48,2004.79,1078.82"/>
		<path id="XMLID_37_" class="st4" d="M1702.2,1083.81v78.43c7.31,0.94,14.76,1.82,22.41,2.6v-78.43
			C1716.96,1085.63,1709.51,1084.74,1702.2,1083.81"/>
		<path id="XMLID_36_" class="st4" d="M1948.75,1086.43v78.43c7.65-0.8,15.11-1.67,22.41-2.6v-78.44
			C1963.86,1084.77,1956.41,1085.64,1948.75,1086.43"/>
		<path id="XMLID_35_" class="st4" d="M1758.24,1089.31v78.44c7.36,0.52,14.83,0.97,22.41,1.34v-78.45
			C1773.06,1090.27,1765.6,1089.82,1758.24,1089.31"/>
		<path id="XMLID_34_" class="st4" d="M1892.72,1090.64v78.45c7.59-0.37,15.05-0.83,22.41-1.34v-78.44
			C1907.77,1089.82,1900.31,1090.27,1892.72,1090.64"/>
		<path id="XMLID_33_" class="st4" d="M1836.68,1092.01c-3.75,0-7.49-0.03-11.21-0.07v78.45c3.72,0.03,7.45,0.07,11.21,0.07
			s7.49-0.03,11.21-0.07v-78.45C1844.17,1091.97,1840.44,1092.01,1836.68,1092.01"/>
		<path id="XMLID_32_" class="st5" d="M1657.38,1193.7v78.39c6.81,2.51,14.28,4.93,22.41,7.24v-78.4
			C1671.65,1198.62,1664.19,1196.2,1657.38,1193.7"/>
		<path id="XMLID_31_" class="st5" d="M2128.06,1200.93v78.4c8.14-2.31,15.6-4.73,22.41-7.24v-78.39
			C2143.66,1196.21,2136.2,1198.62,2128.06,1200.93"/>
		<path id="XMLID_30_" class="st5" d="M1713.41,1209.06v78.41c7.17,1.49,14.65,2.9,22.41,4.24v-78.41
			C1728.06,1211.96,1720.58,1210.55,1713.41,1209.06"/>
		<path id="XMLID_29_" class="st5" d="M2072.03,1213.3v78.43c7.77-1.34,15.24-2.76,22.41-4.25v-78.41
			C2087.27,1210.55,2079.79,1211.96,2072.03,1213.3"/>
		<path id="XMLID_28_" class="st5" d="M1769.44,1218.31v78.43c7.31,0.94,14.76,1.82,22.41,2.6v-78.43
			C1784.2,1220.11,1776.75,1219.24,1769.44,1218.31"/>
		<path id="XMLID_27_" class="st5" d="M2015.99,1220.9v78.44c7.65-0.8,15.11-1.67,22.41-2.6v-78.43
			C2031.1,1219.25,2023.65,1220.12,2015.99,1220.9"/>
		<path id="XMLID_26_" class="st5" d="M1825.48,1223.79v78.44c7.36,0.52,14.83,0.98,22.41,1.34v-78.45
			C1840.3,1224.75,1832.84,1224.3,1825.48,1223.79"/>
		<path id="XMLID_25_" class="st5" d="M1959.96,1225.12v78.45c7.59-0.37,15.05-0.83,22.41-1.34v-78.44
			C1975.01,1224.3,1967.55,1224.75,1959.96,1225.12"/>
		<path id="XMLID_24_" class="st5" d="M1903.93,1226.49c-3.75,0-7.49-0.03-11.21-0.07v78.45c3.72,0.03,7.45,0.07,11.21,0.07
			s7.49-0.03,11.21-0.07v-78.45C1911.41,1226.45,1907.68,1226.49,1903.93,1226.49"/>
		<path id="XMLID_23_" class="st4" d="M1590.13,1316.97v78.39c6.81,2.51,14.28,4.92,22.41,7.24v-78.4
			C1604.41,1321.89,1596.95,1319.47,1590.13,1316.97"/>
		<path id="XMLID_22_" class="st4" d="M2060.82,1324.2v78.4c8.14-2.31,15.6-4.73,22.41-7.24v-78.39
			C2076.42,1319.48,2068.96,1321.89,2060.82,1324.2"/>
		<path id="XMLID_20_" class="st4" d="M1646.17,1332.34v78.41c7.17,1.49,14.65,2.9,22.41,4.24v-78.41
			C1660.82,1335.24,1653.34,1333.83,1646.17,1332.34"/>
		<path id="XMLID_19_" class="st4" d="M2004.79,1336.57V1415c7.77-1.34,15.24-2.76,22.41-4.25v-78.41
			C2020.03,1333.83,2012.55,1335.24,2004.79,1336.57"/>
		<path id="XMLID_18_" class="st4" d="M1702.2,1341.58v78.43c7.31,0.94,14.76,1.82,22.41,2.6v-78.43
			C1716.96,1343.39,1709.51,1342.51,1702.2,1341.58"/>
		<path id="XMLID_17_" class="st4" d="M1948.75,1344.17v78.44c7.65-0.8,15.11-1.67,22.41-2.6v-78.43
			C1963.86,1342.52,1956.41,1343.4,1948.75,1344.17"/>
		<path id="XMLID_16_" class="st4" d="M1758.24,1347.06v78.44c7.36,0.52,14.83,0.97,22.41,1.34v-78.45
			C1773.06,1348.03,1765.6,1347.58,1758.24,1347.06"/>
		<path id="XMLID_15_" class="st4" d="M1892.72,1348.4v78.45c7.59-0.37,15.05-0.83,22.41-1.34v-78.44
			C1907.77,1347.58,1900.31,1348.03,1892.72,1348.4"/>
		<path id="XMLID_14_" class="st4" d="M1836.68,1349.76c-3.75,0-7.49-0.03-11.21-0.07v78.45c3.72,0.03,7.45,0.07,11.21,0.07
			s7.49-0.03,11.21-0.07v-78.45C1844.17,1349.73,1840.44,1349.76,1836.68,1349.76"/>
		<path id="XMLID_13_" class="st5" d="M1623.75,1440.25v78.39c6.81,2.51,14.28,4.92,22.41,7.24v-78.4
			C1638.03,1445.17,1630.57,1442.75,1623.75,1440.25"/>
		<path id="XMLID_12_" class="st5" d="M2094.44,1447.48v78.4c8.14-2.31,15.6-4.73,22.41-7.24v-78.39
			C2110.04,1442.76,2102.58,1445.17,2094.44,1447.48"/>
		<path id="XMLID_11_" class="st5" d="M1679.79,1455.61v78.41c7.17,1.49,14.65,2.9,22.41,4.24v-78.41
			C1694.44,1458.51,1686.96,1457.1,1679.79,1455.61"/>
		<path id="XMLID_10_" class="st5" d="M2038.41,1459.85v78.43c7.77-1.34,15.24-2.76,22.41-4.25v-78.41
			C2053.65,1457.1,2046.17,1458.51,2038.41,1459.85"/>
		<path id="XMLID_9_" class="st5" d="M1735.82,1464.86v78.43c7.31,0.94,14.76,1.82,22.41,2.6v-78.43
			C1750.58,1466.66,1743.13,1465.79,1735.82,1464.86"/>
		<path id="XMLID_8_" class="st5" d="M1982.37,1467.45v78.44c7.65-0.8,15.11-1.67,22.41-2.6v-78.43
			C1997.48,1465.8,1990.03,1466.67,1982.37,1467.45"/>
		<path id="XMLID_7_" class="st5" d="M1791.86,1470.34v78.44c7.36,0.52,14.83,0.97,22.41,1.34v-78.45
			C1806.68,1471.3,1799.22,1470.85,1791.86,1470.34"/>
		<path id="XMLID_6_" class="st5" d="M1926.34,1471.67v78.45c7.59-0.37,15.05-0.83,22.41-1.34v-78.44
			C1941.39,1470.85,1933.93,1471.3,1926.34,1471.67"/>
		<path id="XMLID_5_" class="st5" d="M1870.31,1473.04c-3.75,0-7.49-0.03-11.21-0.07v78.45c3.72,0.03,7.45,0.07,11.21,0.07
			s7.49-0.03,11.21-0.07v-78.45C1877.79,1473,1874.06,1473.04,1870.31,1473.04"/>
		<path id="XMLID_4_" class="st6" d="M2119.23,1376.35c-31.83,27.99-146.24,51.87-282.55,51.87c-106.58,0-199.74-14.6-250.54-34.35
			c-4.67,4.24-7.22,8.72-7.22,13.39c0,34.05,130.46,65.78,291.38,65.78c160.93,0,291.38-31.74,291.38-65.78
			C2161.68,1395.52,2146.16,1385.03,2119.23,1376.35"/>
		<path id="XMLID_3_" class="st3" d="M1903.93,1304.94c-148.08,0-270.26-28.19-288.84-59.21c-43.47,9.85-69.77,22.97-69.77,38.25
			c0,34.04,130.46,65.78,291.38,65.78s291.38-31.75,291.38-65.78c0-1.5-0.34-2.97-0.84-4.43
			C2073.78,1294.59,1993.6,1304.94,1903.93,1304.94"/>
		<path id="XMLID_2_" class="st6" d="M2116.78,1120.57c-34.86,27.12-147.02,49.88-280.09,49.88c-85.93,0-163.16-9.5-216.49-23.53
			c-4.94,4.37-7.64,8.97-7.64,13.78c0,34.05,130.46,65.78,291.38,65.78s291.38-31.74,291.38-65.78
			C2195.3,1144.43,2165.46,1130.59,2116.78,1120.57"/>
	</g>
</g>
</svg>
