<?xml version="1.0" encoding="utf-8"?>
<!-- Generator: Adobe Illustrator 24.0.1, SVG Export Plug-In . SVG Version: 6.00 Build 0)  -->
<svg version="1.1" id="Layer_1" xmlns="http://www.w3.org/2000/svg" xmlns:xlink="http://www.w3.org/1999/xlink" x="0px" y="0px"
	 viewBox="0 0 3062.36 1989.52" style="enable-background:new 0 0 3062.36 1989.52;" xml:space="preserve">
<style type="text/css">
	.st0{fill:#D39D71;}
	.st1{fill:#EAB888;}
	.st2{fill:#A8D29F;}
	.st3{fill:#699FF0;}
	.st4{fill:#F1A34F;}
	.st5{fill:#2B478B;}
	.st6{fill:#B74B42;}
	.st7{fill:#2A4E96;}
	.st8{fill:#C65447;}
	.st9{fill:#233862;}
	.st10{fill:#FFB27D;}
	.st11{fill:#5794DD;}
	.st12{fill:#E8945B;}
	.st13{fill-rule:evenodd;clip-rule:evenodd;fill:#F28C71;}
	.st14{fill-rule:evenodd;clip-rule:evenodd;fill:#111120;}
	.st15{fill-rule:evenodd;clip-rule:evenodd;fill:#F38C71;}
	.st16{clip-path:url(#SVGID_2_);}
	.st17{fill-rule:evenodd;clip-rule:evenodd;fill:#009DFD;}
	.st18{clip-path:url(#SVGID_4_);}
	.st19{clip-path:url(#SVGID_6_);}
	.st20{clip-path:url(#SVGID_8_);}
	.st21{fill:#FFD24D;}
	.st22{fill-rule:evenodd;clip-rule:evenodd;fill:#FFFBFC;}
	.st23{fill:#FFFBFC;}
	.st24{fill:#8CB7EA;}
	.st25{fill:#98C6F4;}
	.st26{fill:#D9935C;}
	.st27{fill:#CC8250;}
	.st28{opacity:0.4;fill:#D86713;}
	.st29{fill:#B64C41;}
	.st30{fill:#AA413E;}
	.st31{fill:#CB7D45;}
	.st32{fill:#466AA5;}
	.st33{opacity:0.8;fill:#D2E4FF;stroke:#000000;stroke-width:3.5075;stroke-miterlimit:10;}
	.st34{fill:#1C3051;}
	.st35{fill:#FFFFFF;}
	.st36{fill:#88B374;}
	.st37{fill:#ACD29A;}
	.st38{fill:#ED985F;}
	.st39{fill:#AB7041;}
	.st40{fill:url(#SVGID_9_);}
	.st41{fill:url(#SVGID_10_);}
	.st42{fill:url(#SVGID_11_);}
	.st43{fill:url(#SVGID_12_);}
	.st44{fill:url(#SVGID_13_);}
	.st45{fill:url(#SVGID_14_);}
	.st46{fill:url(#SVGID_15_);}
	.st47{fill:url(#SVGID_16_);}
	.st48{fill:url(#SVGID_17_);}
	.st49{fill:url(#SVGID_18_);}
	.st50{fill:url(#SVGID_19_);}
	.st51{fill:url(#SVGID_20_);}
	.st52{fill:url(#SVGID_21_);}
	.st53{fill:url(#SVGID_22_);}
	.st54{fill:url(#SVGID_23_);}
	.st55{fill:url(#SVGID_24_);}
	.st56{fill:url(#SVGID_25_);}
	.st57{fill:url(#SVGID_26_);}
	.st58{fill:#E7F3FE;}
	.st59{fill:#A2DFF2;}
	.st60{fill:#96CFE0;}
	.st61{fill:#F37168;}
	.st62{fill:#2E5B9A;}
	.st63{fill:#F09959;}
	.st64{fill:#E38540;}
	.st65{fill:#75A1DE;}
	.st66{fill:#A86B48;}
	.st67{fill:#3E6BAB;}
	.st68{fill:#F0CEB4;}
	.st69{fill:#F7A96F;}
	.st70{fill:#A8CEFF;}
	.st71{fill:#6695D6;}
	.st72{fill:#303C60;}
	.st73{fill:#D54A41;}
	.st74{fill:#F39892;}
	.st75{fill:#9EC8FF;}
	.st76{fill:#3E2723;}
	.st77{fill:#09121F;}
	.st78{fill:#112D4E;}
	.st79{fill:#6F7046;}
	.st80{fill:#AB7361;}
	.st81{fill:#96513C;}
	.st82{fill:#515233;}
	.st83{fill:#98995F;}
	.st84{fill:#7A7A4C;}
	.st85{fill:#F5E8D0;}
	.st86{fill:#212121;}
	.st87{fill:#E53935;}
	.st88{fill:#B71C1C;}
	.st89{opacity:0.5;fill:url(#SVGID_27_);}
	.st90{fill:#DA935B;}
	.st91{fill:#CB8757;}
	.st92{fill:#E58435;}
	.st93{fill:#DBA763;}
	.st94{fill:#E8B679;}
	.st95{fill:#FFE1C0;}
	.st96{fill:#2A3742;}
	.st97{fill:#3C4D56;}
	.st98{fill:#1B2630;}
	.st99{fill:#FF514D;}
	.st100{fill:#61E2C0;}
	.st101{fill:#3FAF94;}
	.st102{fill:#4DC5AC;}
	.st103{fill:#C1AEB6;}
	.st104{fill:#EADCE1;}
	.st105{fill:#9B8790;}
	.st106{fill:#FFAD97;}
	.st107{fill:#ED3A3A;}
	.st108{fill:#FFC5B3;}
	.st109{fill:#111120;}
	.st110{fill-rule:evenodd;clip-rule:evenodd;fill:#FF8E80;}
	.st111{clip-path:url(#SVGID_29_);fill-rule:evenodd;clip-rule:evenodd;fill:#009DFD;}
	.st112{clip-path:url(#SVGID_29_);}
	.st113{clip-path:url(#SVGID_31_);fill-rule:evenodd;clip-rule:evenodd;fill:#009DFD;}
	.st114{fill:#007BD3;}
	.st115{fill-rule:evenodd;clip-rule:evenodd;fill:#FF7F38;}
	.st116{clip-path:url(#SVGID_33_);fill-rule:evenodd;clip-rule:evenodd;fill:#111120;}
	.st117{fill:#FF7F38;}
	.st118{fill-rule:evenodd;clip-rule:evenodd;fill:none;stroke:#FFFFFF;stroke-width:1.2586;stroke-miterlimit:10;}
</style>
<path class="st58" d="M2238.74,786.67c86.58-90.02-337.89-403.27-688.41-431.83c-322.72-26.29-749.08,101-316.21,289.19
	C1646.57,823.34,2193.5,833.71,2238.74,786.67z"/>
<path class="st58" d="M544.55,723.51c202.16-255.75,626.68,14.38,989.93,80c363.24,65.62,954.08-38.64,952.6,249.17
	c-1.58,306.85-132.6,479.48-851.28,561.93c-718.67,82.45-1047.71-171.64-1141.68-442.15C420.98,961.88,490.52,791.86,544.55,723.51z
	"/>
<g>
	<path class="st59" d="M1930.67,1050.18c-29.67,60.23-66.87,224.81-77.02,233.83c-10.15,9.02-68.76,43.96-78.91,60.87
		c-10.15,16.91-5.64,11.27-1.13,12.4c4.51,1.13,259.27,2.26,259.27,2.26s-29.31-174.73-32.69-175.85
		C1996.81,1182.55,1930.67,1050.18,1930.67,1050.18z"/>
	<path class="st60" d="M1888.48,1358.72c46.79,0.33,96.16,0.58,123.34,0.72l-37.21-222.56c-19.85-38.48-43.95-86.7-43.95-86.7
		c-3.74,7.59-7.6,16.85-11.51,27.24c-3.86,167.16,20.22,214.01,2.13,243.79C1907.18,1344.45,1894.3,1354.85,1888.48,1358.72z"/>
</g>
<g>
	<path class="st59" d="M2086.9,977.49c42.31,39.06,136.5,76.1,136.5,76.1s14.31,132.22,4.55,207.08
		c-9.76,74.86-4.34,90.05-4.34,90.05l-203.39,1.73c0,0-16.89-37.9-64.6-150.37c-30.38-71.61-24.95-151.9-24.95-151.9l118.26-53.16
		L2086.9,977.49z"/>
	<path class="st60" d="M2029.4,1350.72h194.21c0,0-5.42-15.19,4.34-90.05c8.04-61.65-0.24-162.17-3.42-195.75l-17.66-7.57
		c-44.34,12.78-69.89,78.91-77.41,143.55c-5.03,43.25-76.68,85.82-123.54,109.26C2021.32,1339.5,2029.4,1350.72,2029.4,1350.72z"/>
	<path class="st60" d="M2054.21,1024.46c0,0,1.82,55.84,11.34,55.24c9.52-0.6,64.87-70.8,64.87-70.8l-9.41-4.5L2054.21,1024.46z"/>
	<path class="st60" d="M2039.89,1021.27c0,0-12.03,51.36-18,50.17s-14.03-53.41-14.03-53.41L2039.89,1021.27z"/>
	<path class="st61" d="M2037.65,1014.87l16.55,1.79l6.37,19.72c0,0-14.56,17.04-14.86,23.91c-0.3,6.87,3.21,32.56,3.4,55.87
		c0.19,23.31-8.37,116.08-4.48,172.91c3.89,56.83,3.89,56.83,3.89,56.83l-33.27,1.3c0,0-1.79-62.52,0-129.45
		s20.84-157.46,20.84-157.46l-7.52-23.01L2037.65,1014.87z"/>
	<path class="st62" d="M1981.79,841.77c-23.41,52.14,4.69,100.44,3.84,98.41c-0.85-2.04,35.43-88.03,35.43-88.03L1981.79,841.77z"/>
	<path class="st63" d="M2070.5,880.33l29.69,108.52c0.84,3.06,0.12,6.33-1.88,8.79c-6.96,8.58-16.88,26.22-36.88,31.89
		c-3.89,1.1-8.68,1.39-12.56,1.41c-4.08,0.02-7.59-2.86-8.36-6.86l-19.89-102.93L2070.5,880.33z"/>
	<path class="st64" d="M2064.83,889.4l-10.85,4.45l-33.36,27.3l12.8,65.24l5.1,26.01C2068.9,993.47,2080.04,962.58,2064.83,889.4z"
		/>
	<path class="st63" d="M2062.98,929.55c0.02,36.3-21.86,64.9-48.88,63.87c-27.02-1.02-43.59-21.46-48.96-67.58
		c-4.21-36.18,6.23-78.29,33.25-77.26C2025.41,849.6,2062.96,893.25,2062.98,929.55z"/>
	<path class="st59" d="M2223.41,1053.58c39.29,8.87,46.6,88.68,59.37,172.86c1.47,9.69,9.02,91.69,9.02,91.69
		s0.75,15.03-14.28,22.55c-12.84,6.42-18.04,11.27-92.44,12.03c-71.46,0.72-163.59-2.25-163.59-2.25s-0.82-26.59,6.51-39.58
		c11.02-19.54,124.01-47.6,134.53-49.1c1.5-21.04-10.38-97.18,6.01-148.81c11.27-35.51,23.39-54.11,38.58-58.97
		C2212.18,1052.36,2217.58,1052.27,2223.41,1053.58z"/>
	<path class="st60" d="M2061.89,1352.07c35.23,0.53,83.57,1.04,123.18,0.64c74.4-0.75,79.6-5.6,92.44-12.03
		c15.03-7.52,15.78-20.29,15.78-20.29s-7.6-87.25-9.02-96.95c-8.27-56.37-17.2-120.87-37.99-152
		c19.54,57.28,22.69,105.61,23.04,126.25c0.18,10.45-0.79,24.77-3.84,34.77c-3.38,11.08-12.03,18.04-25.55,14.28
		c-27.06-7.52-60.88,8.27-60.88,8.27s25.55-9.02,49.6-0.75c24.05,8.27,73.65,63.13,19.54,83.42
		C2231.65,1343.88,2132.47,1348.94,2061.89,1352.07z"/>
	<path class="st60" d="M2034.01,1313.37c0,0,10.02-17.04,30.56-17.04c20.54,0,19.04,33.57,16.03,44.59
		c-3.01,11.02-15.03,11.52-15.03,11.52l-41.37-1.05L2034.01,1313.37z"/>
	<path class="st65" d="M1627.24,1352.97h345.21c0-9.56-7.75-17.3-17.3-17.3h-327.91V1352.97z"/>
	<path class="st63" d="M2026.53,1310.66c-41.61-19.14-53.37-14.28-62.84-17.93c-23.37-9.03-29.87-3.55-48.97,37.56
		c-3.81,8.19,5.22,9.5,14.21,10.26c8.99,0.77,21.46-15.77,25.13-17.47c3.66-1.7,13.24-1.89,13.24-1.89s-3-0.26-8.26,8.35
		c-5.26,8.6-11.05,11.63-4.06,12.22c6.99,0.6,8.97-10.8,21.73-7.2c12.77,3.6,10.15,15.76,42.71,14.7c30.87-1,53.95,2.09,55.08-17.42
		c1.08-18.51,3.91-27.57-13.33-32.31C2047.91,1295.89,2026.53,1310.66,2026.53,1310.66z"/>
	<path class="st66" d="M2027.09,1310.71c28.98-0.79,17.51,34.24,14.26,36.98c-3.25,2.74,15.89,2.42,15.89,2.42
		s10.14-13.58,4.06-30.7c-6.08-17.11-21-19.14-21-19.14l-13.33,5.9L2027.09,1310.71z"/>
	<path class="st62" d="M2055.93,1303.65c0.23,4.46-6.85,8.45-15.82,8.91c-8.97,0.47-16.43-2.77-16.66-7.23
		c-0.23-4.46,6.85-8.45,15.82-8.91C2048.24,1295.96,2055.7,1299.19,2055.93,1303.65z"/>
	<path class="st67" d="M2053.37,1301.77c0.21,3.98-6.12,7.55-14.14,7.96c-8.01,0.42-14.68-2.48-14.89-6.46
		c-0.21-3.98,6.12-7.55,14.14-7.96C2046.5,1294.9,2053.16,1297.79,2053.37,1301.77z"/>
	<path class="st68" d="M2048.17,1300.62c0.15,2.87-4.41,5.43-10.18,5.73c-5.77,0.3-10.57-1.78-10.72-4.65
		c-0.15-2.87,4.41-5.43,10.18-5.73C2043.22,1295.67,2048.02,1297.75,2048.17,1300.62z"/>
	<path class="st63" d="M1801.1,1313.34c21.4-11.89,47.55-7.92,57.05,3.96c9.51,11.89,11.09,19.81-10.3,19.81
		c-21.4,0-64.19,1.59-71.32,0.79C1769.4,1337.12,1801.1,1313.34,1801.1,1313.34z"/>
	<path class="st63" d="M1828.9,1309.21c22.98-5.55,38.68,7.83,57.85,20.6c16.64,11.09,19.99,21.88,1.59,12.68
		c-26.94-13.47-42.79-15.06-42.79-15.06L1828.9,1309.21z"/>
	<path class="st63" d="M1803.26,1319.62c-11.6,0-21.74-3.7-29.93-3.02c-8.19,0.68-34.13,27.31-30.04,29.35
		c0.29,0.15,0.61,0.28,0.96,0.41c6.16,2.27,13.11-0.25,16.58-5.82c3.67-5.89,9.64-12.75,16.6-10.29c11.61,4.1,23.78,3.7,23.78,3.7
		L1803.26,1319.62z"/>
	<path class="st69" d="M1805.06,1341.87c-11.89-4.75,7.13-44.38,13.47-44.38c6.34,0,30.11,19.02,30.11,19.02s-5.59,3.15-24.57-3.17
		c-4.75-1.58-8.72,25.36-14.26,28.53C1804.27,1345.04,1805.06,1341.87,1805.06,1341.87z"/>
	<polygon class="st59" points="2034.31,991.17 2039.89,1020.86 2023.61,1056.1 2005.92,1018.75 	"/>
	<path class="st62" d="M1968.91,946.36c6.84,43.1,22.8,47.66,34.1,51.6c11.3,3.94,53.57-13.82,58.07-25.63
		c11.53-30.2-7.07-52.94-3.3-53.24c3.77-0.3,9.1,9.64,21.29,21.58c1.13,1.11,8.97,8.43,8.78,5.55
		c-2.62-39.25,15.18-54.87,3.24-92.85c-8.8-28-26.57-22.37-26.57-22.37s-16.16-21.8-52.17-12.34c-24.13,6.34-44.18,19.9-68.2,31.06
		c-24.02,11.15,41.6,58.15,70.45,31.22c28.86-26.93,21.2,22.06,27.02,24.67c5.82,2.61,2.57,0.01,9.29,23.12
		c6.72,23.1-20.34,44-28.54,47.59c-26.2,11.5-31.62,7.83-39.53-1.38C1975.98,966.95,1968.91,946.36,1968.91,946.36z"/>
	<path class="st63" d="M2079.86,912.12c-1.14,11.39-7.53,19.8-14.27,18.77c-6.74-1.03-8.55-9.78-10.13-22.49
		c-1.42-11.46,7.53-19.8,14.27-18.77C2076.47,890.66,2081,900.73,2079.86,912.12z"/>
	<path class="st59" d="M2097.74,979.9l29.52,27.5c0,0-56.8,53.48-61.71,52.89c-4.92-0.6-13.26-45.42-13.26-45.42L2097.74,979.9z"/>
	<path class="st59" d="M2053.16,1014.2c-5.45,2.56-3.7,10.33-6.01,13.03c-2.31,2.7-3.69,3.43-5.55-0.33
		c-1.86-3.77-1.56-12.27-3-12.7c-1.45-0.43-12.4,33.83-12.4,33.83s8.05-21.91,9.89-19.52c1.83,2.39,0.37,4.62,7.04,5.01
		c6.67,0.4,15.14-2.41,15.14-2.41L2053.16,1014.2z"/>
</g>
<g>
	<path class="st70" d="M1626.83,1352.97h184.39l-78.3-172.26c-2.28-5.03-7.3-8.25-12.82-8.25h-166.78c-4,0-6.66,4.13-5,7.77
		L1626.83,1352.97z"/>
	<path class="st65" d="M1535.39,1172.45h170.17c5.52,0,10.53,3.23,12.82,8.25l78.3,172.26H1608.9l-78.52-172.74
		C1528.73,1176.59,1531.39,1172.45,1535.39,1172.45z"/>
	<path class="st71" d="M1624.1,1272.74c6.45,13.37,16.93,21.69,23.39,18.57c6.46-3.12,6.47-16.49,0.02-29.87
		c-6.45-13.37-16.93-21.69-23.39-18.57C1617.65,1246,1617.64,1259.37,1624.1,1272.74z"/>
</g>
<g>
	<g>
		<path class="st72" d="M965.32,1045.26c-2.87,0-5.69-0.14-8.45-0.28c-2.29-0.12-4.66-0.24-6.94-0.27c-0.8-0.01-1.45-0.67-1.44-1.48
			c0.01-0.8,0.66-1.44,1.46-1.44c2.36,0.03,4.75,0.15,7.07,0.27c17.31,0.88,35.22,1.79,52.66-31.76
			c7.57-14.56,15.81-42.87,14.12-74.74c-1.39-26.1-10.23-63.22-44.5-91.88c-0.62-0.52-0.7-1.43-0.18-2.05
			c0.52-0.62,1.43-0.7,2.05-0.18c35.07,29.32,44.13,67.28,45.54,93.96c1.72,32.45-6.71,61.35-14.45,76.23
			C996.87,1041.26,980.48,1045.26,965.32,1045.26z"/>
	</g>
	<g>
		<path class="st72" d="M959.89,1038.38c-0.68,0-1.35-0.02-2.03-0.05c-0.8-0.04-1.42-0.72-1.38-1.53c0.04-0.8,0.71-1.42,1.53-1.38
			c0.63,0.03,1.26,0.05,1.88,0.05c18.07,0,34.75-12.79,46.02-35.4c18.53-37.17,20.33-98.15-12.84-137.95
			c-0.51-0.62-0.43-1.54,0.19-2.05c0.62-0.51,1.54-0.43,2.05,0.19c33.96,40.75,32.15,103.12,13.21,141.11
			C996.72,1025,979.09,1038.38,959.89,1038.38z"/>
	</g>
	<path class="st72" d="M895.09,852.68c52.28-40.58,101.38-19.07,118.97,35.85c16.43,51.3-4.63,161.53-82.61,142.32
		c-80.68-19.87-87.4-44.57-86.79-80.47C845.14,921.7,857.37,881.95,895.09,852.68z"/>
	<path class="st59" d="M867.92,1015.37l-74.73,27.89c0,0,20.92,151.79,22.71,209.75c1.79,57.97-27.49,108.25-27.49,108.25h195.41
		c0,0,26.89-157.85,21.51-213.43s-42.43-113.16-44.22-114.54c-1.79-1.39-46.61-11.55-46.61-11.55L867.92,1015.37z"/>
	<path class="st73" d="M999.36,1202.21c0,0,7.52,70.51,10.63,74.1c3.11,3.59,117.85,59.75,117.85,59.75l-166.72,11.36
		L999.36,1202.21z"/>
	<path class="st73" d="M961.11,1033.29c18.52,0.41,23.55,30.69,27.91,53.2C993.38,1108.99,961.11,1033.29,961.11,1033.29z"/>
	<path class="st61" d="M929.44,1153.21c-10.16-36.45-64.74-137.96-64.74-137.96l-71.51,28.01c0,0,16.39,118.96,21.4,186.47
		l27.16,131.53h87.69C929.44,1361.25,939.6,1189.66,929.44,1153.21z"/>
	<polygon class="st73" points="828.52,1297.2 909.12,1278.7 902.54,1347.42 	"/>
	<path class="st73" d="M868.82,1316.35c-13.15-17.8-26.01-37.38-13.48-78.28c12.52-40.9,13.74-55.57,9.36-92.62
		c-4.39-37.05-24.3-96.21-63.14-98c0,0-1.28,12.95-3.35,33.64c6.31,48.85,16.47,132.31,17.69,171.93
		c1.79,57.97-27.49,108.25-27.49,108.25l158.96,3.5C947.37,1364.75,881.97,1334.15,868.82,1316.35z"/>
	<path class="st61" d="M1005.33,1147.83c-5.38-55.57-42.43-113.16-44.22-114.54c-1.11-0.86-18.65-5.06-31.89-8.15
		c3.89,9.18,44.95,107.02,43.24,147.32c-1.79,42.3,0.05,188.8,0.05,188.8h11.3C983.82,1361.25,1010.71,1203.4,1005.33,1147.83z"/>
</g>
<g>
	<path class="st70" d="M1266.52,1352.97H921.31c0-12.24,9.92-22.15,22.15-22.15h323.05V1352.97z"/>
	<path class="st70" d="M1266.93,1352.97h-184.39l78.3-172.26c2.28-5.03,7.3-8.25,12.82-8.25h166.78c4,0,6.66,4.13,5,7.77
		L1266.93,1352.97z"/>
	<path class="st65" d="M1340.45,1172.45H1188.2c-5.52,0-10.53,3.23-12.82,8.25l-78.3,172.26h169.85l78.52-172.74
		C1347.11,1176.59,1344.45,1172.45,1340.45,1172.45z"/>
	<path class="st71" d="M1253.13,1268.36c-6.45,13.37-16.93,21.69-23.39,18.57c-6.46-3.12-6.47-16.49-0.02-29.87
		s16.93-21.69,23.39-18.57C1259.57,1241.61,1259.58,1254.98,1253.13,1268.36z"/>
</g>
<g>
	<path class="st63" d="M900.9,921.38c0,0-15.66,79.97-32.98,93.99c-17.31,14.02,39.85,81.6,59.63,64.28
		c19.79-17.31,1.38-55.21,1.38-55.21s-10.72-6.6,7.42-48.64c18.14-42.05-30.69-73.38-30.69-73.38L900.9,921.38z"/>
	<path class="st64" d="M905.66,902.42l-4.76,18.96c0,0-2.18,11.13-5.81,25.8c6.77,31.58,19.42,52.12,30.74,65.17
		c0.33-7.28,2.83-18.73,10.52-36.56C954.49,933.75,905.66,902.42,905.66,902.42z"/>
	<path class="st63" d="M999.95,951.82c-10.53,29.03-36.25,52.34-52.59,46.96c-26.69-8.79-46.11-29.64-41.52-75.75
		c5.4-54.3,47.19-60.53,71.73-53.59C1002.11,876.38,1011.6,919.7,999.95,951.82z"/>
	<path class="st73" d="M864.7,1015.24l-25.24,9.89l39.79,50.99l-11.35,20.32c0,0,40.97,30.76,53.43,90.37
		c12.45,59.61,11.1,110.4,11.1,110.4s3.06-120.89-2.97-143.99C917.74,1108.39,864.7,1015.24,864.7,1015.24z"/>
	<path class="st73" d="M929.22,1025.13c0,0,31.5,80.86,36.49,103.62c5,22.76,6.01,133.96,6.01,133.96s14.48-96.96,10.3-125.64
		c-4.18-28.68-10.16-54.6-10.16-54.6l-19.12-14.12c0,0-3.62-38.46-5.65-38.95C945.06,1028.9,929.22,1025.13,929.22,1025.13z"/>
	<path class="st63" d="M910.84,1321.61c61.26-18.57,53.84-27.85,76.12-17.33c22.28,10.52,50.2,17.66,37.13,21.04
		c-13.07,3.38-32.8-7.43-32.8-7.43s3.09,16.71-8.04,21.66c-11.14,4.95-60.6,6.75-88.16-0.96
		C867.53,1330.9,910.84,1321.61,910.84,1321.61z"/>
	<path class="st59" d="M909.12,1318.74h12.19l-6.1,34.64c0,0-24.02-3.57-22.23-5.96C894.78,1345.03,909.12,1318.74,909.12,1318.74z"
		/>
	<path class="st61" d="M793.19,1043.25c-23.9,41.83-31.49,64.64-50.97,142.93c-19.48,78.28-27.31,113.9-5.8,124.19
		c17.8,8.51,147.42,47.38,163.14,42.6c7.17,0.41,18.18-36.62,18.18-36.62l-117.97-52.59c0,0,34.14-81.51,40.04-135.05
		c5.89-53.54-20.32-85.45-33.46-85.45C793.19,1043.25,793.19,1043.25,793.19,1043.25z"/>
	<path class="st63" d="M917.06,926.64c-5.77,18.12-3.3,21.82-11.29,23.51c-7.99,1.69-15.29-6.24-17.65-17.38
		c-2.36-11.14,2.2-21.54,10.19-23.23C906.3,907.85,920.51,915.8,917.06,926.64z"/>
	<path class="st72" d="M1010.97,893.65c-31.27,55.57-93.38,47.41-131.13,28.29c-30.77-15.59,87.79-74.64,87.79-74.64L1010.97,893.65
		z"/>
	<path class="st72" d="M909.12,847.3c-11.59-34.96-59.08-26.69-80.6,19.82c-21.52,46.51,11.41,77.61,31.36,66.22
		C879.84,921.94,909.12,847.3,909.12,847.3z"/>
</g>
<ellipse transform="matrix(0.9732 -0.2298 0.2298 0.9732 -102.8089 370.1432)" class="st74" cx="1538.1" cy="626.56" rx="5.95" ry="5.95"/>
<ellipse transform="matrix(0.9732 -0.2298 0.2298 0.9732 -123.8224 351.9947)" class="st75" cx="1449.66" cy="707.73" rx="5.95" ry="5.95"/>
<circle class="st75" cx="1575.85" cy="666.41" r="5.95"/>
<circle class="st74" cx="1740.79" cy="666.41" r="5.95"/>
<path class="st75" d="M565.08,1042.06c0,14.81-12.01,26.81-26.81,26.81c-14.81,0-26.81-12-26.81-26.81c0-14.81,12-26.81,26.81-26.81
	C553.08,1015.24,565.08,1027.25,565.08,1042.06z"/>
<path class="st35" d="M558,1043.25c0,7.43-6.02,13.45-13.45,13.45c-7.43,0-13.45-6.02-13.45-13.45c0-7.43,6.02-13.45,13.45-13.45
	C551.98,1029.8,558,1035.82,558,1043.25z"/>
<path class="st75" d="M2588.79,1015.37c0,8.26-6.7,14.96-14.96,14.96c-8.26,0-14.96-6.7-14.96-14.96c0-8.26,6.7-14.96,14.96-14.96
	C2582.1,1000.41,2588.79,1007.11,2588.79,1015.37z"/>
<path class="st75" d="M2202.14,710.56c0,8.26-6.7,14.96-14.96,14.96c-8.26,0-14.96-6.7-14.96-14.96c0-8.26,6.7-14.96,14.96-14.96
	C2195.44,695.61,2202.14,702.3,2202.14,710.56z"/>
<ellipse transform="matrix(0.1602 -0.9871 0.9871 0.1602 1194.7358 3195.7212)" class="st75" cx="2475.43" cy="895.74" rx="11.65" ry="11.65"/>
<ellipse transform="matrix(0.2298 -0.9732 0.9732 0.2298 -196.1506 1017.175)" class="st75" cx="544.55" cy="632.51" rx="29.57" ry="29.57"/>
<g>
	<path class="st76" d="M1394.7,666.55c-1.98-4.24-7.3-6.79-11.63-5.01c1.33-4.8-0.73-10.34-4.88-13.11
		c-4.14-2.77-12.24-2.77-16.16,0.29c-1.68-5.15-7.3-8.7-12.67-8c-5.37,0.7-11.35,6.33-11.66,11.74c-0.87-5.33-6.71-9.28-11.98-8.11
		c-5.27,1.17-11,8.77-9.53,13.97c-1.23-3.65-5.57-5.93-9.27-4.87c-3.7,1.06-6.23,7.18-5.34,10.93c-3.71-3.53-9.92-4.05-14.16-1.19
		c-4.25,2.86-5.92,9.09-4.05,13.86c-4.21-3.1-10.69-2.57-14.34,1.18c-1.51,1.55-2.29,3.95-2.5,6.51c-4.22,0.18-8.39,2.31-10.61,5.93
		c-3.3,5.4-1.74,13.22,3.38,16.95c3.19,2.32,7.48,2.84,11.25,1.73c5.74,17.36,11.48,34.72,17.22,52.08l105.12,33.16
		c-2.17-32.44-5.4-63.7-7.57-96.14c4.09-1.38,7.33-5.01,8.25-9.22c0.92-4.21,0.2-7.65-2.94-10.61
		C1394.79,676.42,1396.68,670.79,1394.7,666.55z"/>
	<g>
		<g>
			<path class="st77" d="M1507.26,1164.25c0.02,10.95-0.25,21.93-0.83,32.9c-0.06,1.15-0.12,2.31-0.19,3.46
				c-0.16,2.9-0.35,5.79-0.56,8.69c-3.28,45.71-11.68,91.31-25.1,135.53c-2.63,8.68-5.46,17.3-8.48,25.86h-91.96
				c-0.17-56.97,6.31-114.49,16.37-170.7c2.51-14.08,5.25-28.08,8.18-41.97c0.26-1.28,0.53-2.55,0.8-3.81
				c0.4-1.89,0.8-3.77,1.21-5.65c35.64,1.3,66.07,2.91,100.54,11.46C1507.26,1161.43,1507.26,1162.84,1507.26,1164.25z"/>
			<path class="st78" d="M1579.84,1370.69h-95.52c-1.35-8.93-2.61-17.62-3.74-25.86c-5.37-38.89-8.2-68.08-8.2-68.08
				s-36.49-28.12-55.91-70.84c-0.8-1.75-1.56-3.52-2.29-5.31c-0.5-1.21-0.98-2.43-1.44-3.66c-4.55-12.06-7.59-25.13-8.05-38.92
				c-0.05-1.24-0.07-2.48-0.07-3.73c0.29-0.03,0.58-0.05,0.87-0.08c20.66-1.71,62.81,4.05,101.77,10.04
				c29.44,4.54,57.05,9.2,72.17,10.87c0.32,1.96,0.63,3.93,0.93,5.9C1589.92,1243.5,1589.84,1307.86,1579.84,1370.69z"/>
		</g>
		<g>
			<g>
				<path class="st79" d="M1345.18,1034.05c-0.15-4.67-0.3-9.35-0.46-14.02c-0.09-2.83-0.14-5.84,1.31-8.27
					c1.45-2.44,4.98-3.85,7.2-2.09c3.9-42.31,10.66-84.1,21.9-125.07c1.89-6.89,4.2-14.23,9.87-18.57
					c8.27-6.33,20.96-3.45,28.34,3.88c7.39,7.34,10.55,17.87,12.48,28.1c5.38,28.51,3.28,58.03-2.54,86.46
					c-5.82,28.42-15.3,55.95-24.75,83.39c-2.33,6.77-4.73,13.67-9.11,19.34c-4.38,5.67-11.15,9.98-18.3,9.52
					c-12.24-0.79-19.46-14.34-21.28-26.47C1348.03,1058.11,1345.58,1046.31,1345.18,1034.05z"/>
				<g>
					<path class="st80" d="M1308.11,1054.43c5.55,17.41,13.42,37.22,30.91,42.55c8.6,2.62,18.43,0.84,25.56-4.64
						c7.13-5.48,11.39-14.51,11.07-23.5c-0.41-11.57-7.69-21.62-14.68-30.85c-10.45-13.81-20.9-27.63-31.35-41.44
						c-9.49-12.55-16.06-27.06-28.3-42.4c-20.23-25.34-19.35,28.14-16.98,35.57C1290.21,1008.1,1302.25,1036.05,1308.11,1054.43z"/>
					<g>
						<path class="st80" d="M1293.94,982.07c7.47-1.13,15.71-2.28,13.49-19.21c-2.36-18-11.09-23.65-35.89-31.96
							c-2.23-0.75-11.22-6.14-12.76-4.36c-2,2.29-0.51,5.88,1.39,8.26c4.55,5.71,11.19,9.71,18.36,11.07
							c0.87,9.07,1.37,16.79,6.67,24.2C1288.04,974.04,1289.02,982.81,1293.94,982.07z"/>
						<path class="st80" d="M1217.26,928.54c-2.07-0.31-4.21-0.58-6.24-0.05c-2.03,0.53-3.94,2.03-4.31,4.09
							c-0.71,3.89,3.83,6.47,7.56,7.77c12.6,4.38,25.2,8.76,37.8,13.14c5.69,1.98,21.42,11.07,21.59,0.09
							C1273.91,937.1,1228.75,930.27,1217.26,928.54z"/>
						<path class="st80" d="M1208.76,936.36c-2.07-0.31-4.21-0.58-6.24-0.05c-2.03,0.53-3.94,2.03-4.31,4.09
							c-0.71,3.89,3.83,6.47,7.56,7.77c12.6,4.38,25.2,8.76,37.8,13.14c5.69,1.98,21.42,11.07,21.59,0.09
							C1265.41,944.92,1220.25,938.09,1208.76,936.36z"/>
						<path class="st80" d="M1213.01,946.51c-2.07-0.31-4.21-0.58-6.24-0.05c-2.03,0.53-3.94,2.03-4.31,4.09
							c-0.71,3.89,3.83,6.47,7.56,7.77c12.6,4.38,25.2,8.76,37.8,13.14c5.69,1.98,21.42,11.07,21.59,0.09
							C1269.66,955.07,1224.5,948.24,1213.01,946.51z"/>
						<path class="st80" d="M1220.46,956.46c-1.85-0.41-3.76-0.79-5.61-0.44c-1.86,0.35-3.67,1.59-4.14,3.42
							c-0.89,3.46,3.04,6.07,6.32,7.47c11.07,4.73,22.14,9.47,33.22,14.2c5,2.14,18.6,11.31,19.44,1.43
							C1270.94,967.72,1230.7,958.74,1220.46,956.46z"/>
						<path class="st80" d="M1252.59,979.23c2.23,5.12,9.05,7.8,15.46,9.2c10.35,2.26,22.38,2.29,30.7-3.24
							c9.66-6.41,11.05-18.88,5.14-27.83c-5.32-8.06-24.22-21.83-35.95-15.67c0,0-5.34,12.08-8.36,17.02
							C1255.94,964.67,1249.58,972.3,1252.59,979.23z"/>
						<path class="st81" d="M1297.85,969.75c-9.52-1.56-16.87-9.07-18.48-18.52c-0.38-2.23-0.76-4.53-2.23-6.35
							c-1.59-1.98-3.94-2.64-6.14-3.7c-4.64-2.24-8.2-6.27-9.88-11.13c-0.78-2.26-4.39-1.29-3.6,0.99
							c1.72,4.99,4.97,9.29,9.43,12.15c2.16,1.38,5.44,1.93,7.16,3.85c1.69,1.89,1.53,5.16,2.14,7.5
							c2.48,9.55,10.89,17.2,20.61,18.8C1299.21,973.74,1300.22,970.14,1297.85,969.75z"/>
						<path class="st81" d="M1257.98,947.81c-0.79-0.47-2.14-0.25-2.55,0.67c-3.67,8.24-4.81,17.25-3.28,26.14
							c0.41,2.36,4.01,1.36,3.6-0.99c-1.35-7.81-0.33-16.02,2.9-23.26C1259.06,949.44,1258.91,948.37,1257.98,947.81z"/>
						<path class="st81" d="M1252.07,966.14c-10.45-3.39-20.91-6.77-31.36-10.16c-2.29-0.74-3.27,2.86-0.99,3.6
							c10.45,3.39,20.91,6.77,31.36,10.16C1253.36,970.48,1254.35,966.88,1252.07,966.14z"/>
						<path class="st81" d="M1253.65,956.02c-12.63-4.58-25.72-7.64-39.05-9.23c-2.38-0.28-2.36,3.45,0,3.73
							c12.99,1.55,25.76,4.64,38.06,9.1C1254.92,960.44,1255.9,956.83,1253.65,956.02z"/>
						<path class="st81" d="M1255.82,948.5c-13.32-4.72-26.9-8.67-40.67-11.84c-2.34-0.54-3.34,3.06-0.99,3.6
							c13.77,3.17,27.35,7.12,40.67,11.84C1257.1,952.9,1258.07,949.3,1255.82,948.5z"/>
					</g>
				</g>
				<path class="st82" d="M1378.86,1044.1c-3.39-14.41-12.29-27.16-24.56-35.42c-1.79-1.21-3.47,1.69-1.69,2.89
					c11.56,7.78,19.83,19.86,23.02,33.42C1376.13,1047.08,1379.36,1046.2,1378.86,1044.1z"/>
				<path class="st82" d="M1382.96,1023.72c-2.95-3.84-6.74-6.95-11.18-8.92c-0.8-0.35-1.84-0.26-2.29,0.6
					c-0.38,0.73-0.25,1.91,0.6,2.29c1.01,0.45,1.99,0.95,2.94,1.52c0.47,0.28,0.94,0.58,1.4,0.89c0.22,0.15,0.43,0.3,0.64,0.45
					c0.12,0.09,0.23,0.17,0.35,0.26c0.03,0.02,0.31,0.24,0.15,0.11c0.84,0.67,1.65,1.38,2.41,2.14c0.39,0.39,0.77,0.79,1.13,1.21
					c0.19,0.22,0.38,0.44,0.57,0.66c0.07,0.09,0.15,0.18,0.22,0.27c-0.01-0.01,0.32,0.4,0.17,0.21c0.53,0.69,1.46,1.13,2.29,0.6
					C1383.04,1025.57,1383.53,1024.46,1382.96,1023.72z"/>
			</g>
			<g>
				<g>
					<path class="st83" d="M1394.31,1199.23c0.41-74.89-42.11-236.97-30.7-287.25c11-48.46,26.68-92.31,72.2-101.93
						c15.98-3.38,36.37-8.56,52.47-2.84c16.1,5.72,31.56,21.14,34.21,40.73c2.62,19.4,59.88,318.4,61.53,330.86
						C1519.68,1218.64,1452.93,1220.02,1394.31,1199.23z"/>
				</g>
				<path class="st84" d="M1568.85,1175.64c-38.54,19.69-82.37,28.48-125.53,25.46c-12.09-0.84-24.09-2.62-35.9-5.32
					c-2.08-0.48-3.15,2.7-1.05,3.18c42.76,9.78,88.03,7.62,129.7-6.06c11.79-3.87,23.27-8.64,34.32-14.29
					C1572.31,1177.63,1570.77,1174.65,1568.85,1175.64z"/>
			</g>
			<path class="st84" d="M1533.97,991.96c-5.88-3.06-9.82-8.38-13.01-14.04c-3.71-6.59-6.85-13.53-10.11-20.34
				c-7.06-14.76-13.83-29.65-20.3-44.67c-3.74-8.68-7.38-17.41-10.92-26.17c-0.8-1.97-4.04-1.11-3.23,0.89
				c6.34,15.67,12.98,31.22,19.94,46.63c3.5,7.76,7.09,15.49,10.75,23.18c3.4,7.14,6.71,14.39,10.51,21.33
				c3.54,6.45,8.01,12.62,14.67,16.08C1534.19,995.84,1535.89,992.95,1533.97,991.96z"/>
			<g>
				<path class="st83" d="M1447.97,814.98c12.65-14.58,36.62-14.14,53.07-4.04c16.45,10.1,26.99,27.34,36.28,44.26
					c20.11,36.61,37.33,74.82,51.43,114.14c4.1,11.44,8.01,22.93,10.36,34.85c2.35,11.92,0.96,25.15-6.49,34.75
					c-7.45,9.6-21.85,14.16-32.43,8.17c-7.49-4.24-11.66-12.46-15.4-20.21C1511.43,957.79,1481.33,884.08,1447.97,814.98z"/>
				
					<rect x="1405.95" y="931.55" transform="matrix(0.9249 -0.3802 0.3802 0.9249 -277.1523 632.9943)" class="st85" width="115.31" height="172.9"/>
				<g>
					<path class="st80" d="M1526.85,1051.94c18.11,2.47,46.12,4.36,58.45-9.14c6.07-6.64,2.95-12.37,1.07-21.17
						c-1.88-8.8-11.03-18.04-19.29-21.62c-10.63-4.61-22.83-2.35-34.17-0.01c-16.96,3.49-33.93,6.99-50.89,10.48
						c-15.41,3.17-31.34,2.86-50.44,7.32c-31.58,7.37,17.03,31.15,24.82,30.62C1476.11,1047.09,1507.73,1049.33,1526.85,1051.94z"/>
					<path class="st80" d="M1449.05,1017.09c-5.38-6.56-14.54-9.01-22.99-8.33c-8.45,0.68-18.26,8.38-26.07,11.69
						c1.3,4.47,3.86,5.8,12.12,3.71c-5.42,0.73-11.28,2.97-16.1,5.57c-2.96,1.6-6.09,4.25-5.66,7.58c0.32,2.47,2.65,4.3,5.08,4.85
						c2.43,0.55,4.97,0.1,7.42-0.35c-2.87,1.9-3.87,5.61-2.15,8.59c1.72,2.98,5.89,4.23,8.96,2.7c-1.77,2-1.49,4.26-0.04,6.49
						c1.46,2.24,4.48,3.31,7.03,2.5c-1.63,2.17,2.03,5.47,4.54,6.53c2.5,1.06,5.38,0.48,7.99-0.26
						c13.92-3.93,26.67-11.94,36.24-22.79L1449.05,1017.09z"/>
					<path class="st81" d="M1427.89,1018.03c-4.66-0.26-9.02,1.41-13.41,2.71c-3.9,1.15-8.36,2.03-12.13,0
						c-1.9-1.02-3.59,1.87-1.69,2.89c4.04,2.18,8.66,1.9,12.99,0.81c4.73-1.19,9.26-3.34,14.24-3.07
						C1430.04,1021.49,1430.03,1018.15,1427.89,1018.03z"/>
				</g>
			</g>
			<g>
				<g>
					<g>
						<g>
							<path class="st80" d="M1399,870.35c3.85,1.1,7.45-2.27,9.9-5.44c11.76-15.17,19.71-33.28,22.91-52.22
								c-1.73-0.25-4.85-0.98-6.55-1.23c-20.37-3.05-30.33-28.55-39.98-46.71l-29.72,37.62c2.63,1.86,5.34,4.36,8.06,7.23
								c6.68,7.1,13.3,16.65,18.71,25.58c7.44,12.32,12.54,23.46,12.23,25.38C1393.89,864.45,1395.23,869.26,1399,870.35z"/>
							<path class="st81" d="M1382.31,835.18c0.27-0.6,0.53-1.22,0.8-1.82c6.58-14.82,6.11-31.9-1.49-46.23l-0.1-0.2l-17.91,22.67
								C1370.29,816.7,1376.91,826.25,1382.31,835.18z"/>
							<g>
								<path class="st80" d="M1279.94,742.59c6.51,32.53,35.76,97.73,79.05,85.04c14.05-4.12,23.65-17.74,27.14-31.96
									c3.49-14.21,1.94-29.12,0.37-43.67c4.59-2.85,10.03-5.83,13.3-10.14c3.26-4.31,4.86-10.29,2.63-15.22
									c-2.23-4.92-8.19-5.67-13.45-4.41c-4.8,1.15-7.31,7.7-10.91,7.57c-18.17-0.64-25.68-11.24-36.52-24.3
									c-10.05-12.1-28.77-9.9-41.49-3.86C1283.19,709.65,1276.27,724.26,1279.94,742.59z"/>
							</g>
						</g>
						<path class="st76" d="M1312.21,731.47c4.65-6.74,12.21-10.15,20.3-9.73c3.24,0.17,2.39,5.14-0.82,4.97
							c-6.35-0.33-12,2.77-15.56,7.93C1314.28,737.32,1310.38,734.13,1312.21,731.47z"/>
						<path class="st76" d="M1278.75,753.3c1.77-7.02,7.9-12.23,15.26-12.22c3.21,0,3.72,5.02,0.47,5.02
							c-4.99,0-9.5,3.06-10.75,8.03C1282.93,757.25,1277.95,756.45,1278.75,753.3z"/>
						<path class="st86" d="M1325.88,746.28c-1.31-2.96,3.42-4.7,4.73-1.74c1.33,3.02,2.67,6.04,4,9.05
							c1.31,2.96-3.42,4.7-4.73,1.74C1328.55,752.32,1327.22,749.3,1325.88,746.28z"/>
						<path class="st86" d="M1293.78,762.85c-1.31-2.96,3.42-4.7,4.73-1.74c1.33,3.02,2.67,6.03,4,9.05
							c1.31,2.96-3.42,4.7-4.73,1.74C1296.44,768.88,1295.11,765.86,1293.78,762.85z"/>
						<path class="st81" d="M1382.59,738.28c-0.11-6.65,4.57-12.06,11.31-12.49c3.23-0.21,3.71,4.81,0.47,5.02
							c-3.86,0.25-6.82,3.04-6.76,7.01C1387.66,741.03,1382.65,741.53,1382.59,738.28z"/>
					</g>
					<g>
						<path class="st87" d="M1356.54,781.24c1.75,3.83,2.12,8.38,0.92,12.36c-1.66,5.49-6.33,9.96-11.89,11.38
							c-0.18,0.05-0.36,0.04-0.54,0.08C1344.34,796.17,1347.43,788.07,1356.54,781.24z"/>
						<path class="st88" d="M1329.89,798.82c6.62-8.58,14.83-15.93,24.09-21.55c1.05,1.17,1.9,2.53,2.56,3.98
							c-9.11,6.83-12.19,14.93-11.51,23.82C1339.62,806.13,1333.86,802.7,1329.89,798.82z"/>
					</g>
				</g>
				<path class="st81" d="M1348.3,808.43c6.15-2.58,11.48-7.11,14.92-12.83c0.47-0.77,1.31-1.25,2.21-0.86
					c0.75,0.33,1.32,1.43,0.86,2.21c-3.93,6.53-9.74,11.65-16.78,14.6C1347.53,812.38,1346.32,809.26,1348.3,808.43z"/>
				<path class="st81" d="M1311.27,780.02c0.84-2.17,2.39-4.32,2.25-6.74c-0.12-2.14,3.21-2.5,3.33-0.34
					c0.13,2.23-0.63,4.26-1.56,6.26c-0.83,1.79-2.04,4-1.44,6.04c0.55,1.87,2.93,2.48,4.62,2.79c2.03,0.37,4.11,0.25,5.7-1.18
					c0.67-0.6,1.84-0.33,2.34,0.35c0.58,0.78,0.33,1.74-0.35,2.34c-2.04,1.83-4.89,2.23-7.52,1.9c-2.53-0.31-5.47-1.23-7.06-3.35
					C1309.83,785.73,1310.27,782.6,1311.27,780.02z"/>
				<path class="st79" d="M1396.58,875.97c6.32,1.29,11.78-3.43,15.83-7.7c4.18-4.4,7.89-9.26,11.04-14.45
					c6.28-10.34,10.29-21.96,11.81-33.95c0.27-2.14,3.58-1.61,3.3,0.53c-1.65,13.06-6.22,25.61-13.25,36.72
					c-3.49,5.51-7.59,10.72-12.29,15.26c-4.52,4.36-10.42,8.23-16.98,6.89C1393.95,878.85,1394.46,875.54,1396.58,875.97z"/>
			</g>
			<path class="st84" d="M1584.37,993.91c-15.19-5.86-32.04-6.66-47.74-2.35c-2.07,0.57-1.19,3.8,0.89,3.23
				c15.17-4.17,31.29-3.31,45.96,2.35C1585.49,997.91,1586.36,994.68,1584.37,993.91z"/>
		</g>
	</g>
</g>
<path class="st62" d="M2430.13,1370.69H547.42c-5.05,0-9.15-4.1-9.15-9.15v-0.57c0-5.05,4.1-9.15,9.15-9.15h1882.7
	c5.05,0,9.15,4.1,9.15,9.15v0.57C2439.28,1366.59,2435.18,1370.69,2430.13,1370.69z"/>
<linearGradient id="SVGID_2_" gradientUnits="userSpaceOnUse" x1="1498.7231" y1="1392.2379" x2="1498.7231" y2="1686.2853">
	<stop  offset="0" style="stop-color:#9EC8FF"/>
	<stop  offset="1" style="stop-color:#E7F3FE"/>
</linearGradient>
<path style="opacity:0.5;fill:url(#SVGID_2_);" d="M1400.85,1486.83c-2.01-0.98-3.75-1.73-5.39-2.66c-1.58-0.89-2.95-2.11-4.02-3.59
	c-1.09-1.5-2.06-3.09-3.23-4.87c-2.51,5.79-6.7,9.37-13.08,10.91c1.29,0.53,2.11,0.85,2.93,1.2c7.17,3.06,10.69,10.66,8.48,18.13
	c-1.68,5.68-7.51,11.5-16.44,10.29c-7.63-1.04-12.36-7.69-12.62-13.88c-0.28-6.6,3.51-12.28,9.24-14.59
	c0.74-0.3,1.49-0.58,2.49-0.96c-1.93-0.85-3.65-1.52-5.28-2.36c-1.62-0.83-3.05-1.99-4.17-3.42c-1.16-1.48-2.15-3.09-3.28-4.73
	c-0.8,0.36-0.9,1.24-1.33,1.85c-0.52,0.74-0.99,1.52-1.55,2.22c-0.51,0.63-1.08,1.22-1.68,1.77c-0.6,0.55-1.24,1.05-1.91,1.51
	c-0.67,0.46-1.37,0.88-2.1,1.23c-0.82,0.38-1.68,0.67-2.53,0.97c-0.76,0.27-1.54,0.5-2.61,0.85c1.05,0.33,1.81,0.56,2.56,0.82
	c7.15,2.48,10.33,8.95,10.14,14.52c-0.23,6.85-5.33,12.79-12.17,14.04c-6.73,1.23-13.51-2.42-16.15-8.69
	c-3.43-8.14,0.69-17.19,9.09-19.92c0.68-0.22,1.38-0.4,2.49-0.72c-3.38-1.08-6.4-2.02-8.83-4.19c-2.4-2.14-4.11-4.73-5.12-7.73
	c-1.07,0.18-1.01,0.95-1.25,1.47c-2.33,4.96-6.06,8.2-11.44,9.55c-5.15,1.29-9.66-0.09-13.76-3.15c-2.21-1.65-3.8-3.84-4.94-6.36
	c-0.24-0.54-0.2-1.3-1.1-1.52c-3.27,7.71-8.93,11.86-17.52,11c-6.95-0.69-11.8-5.47-13.97-13.38c-0.78,0.37-0.75,1.13-0.94,1.75
	c-1.29,4.4-3.98,7.65-8.02,9.78c-7.9,4.17-17.88,0.76-21.57-7.37c-0.56-1.23-0.97-2.52-1.46-3.8c-0.9,0.27-0.82,1.13-1.03,1.74
	c-0.76,2.27-1.87,4.31-3.55,6.02c-4.55,4.64-10.07,6.11-16.15,4.08c-6.3-2.11-10.02-6.73-10.59-13.43
	c-0.55-6.45,2.21-11.38,7.69-14.79c0.61-0.38,1.24-0.72,1.86-1.09c0.06-0.04,0.08-0.15,0.21-0.38c-0.6-0.77-1.66-0.88-2.44-1.4
	c-0.82-0.55-1.73-0.99-2.53-1.57c-0.73-0.52-1.42-1.13-2.05-1.77c-0.69-0.71-1.32-1.48-1.91-2.28c-0.59-0.79-1.09-1.65-1.73-2.65
	c-0.32,0.27-0.63,0.43-0.78,0.69c-2.43,4.2-6.01,6.92-10.62,8.31c-0.16,0.05-0.31,0.18-0.61,0.37c0.54,0.8,1.46,0.91,2.2,1.24
	c3.19,1.38,5.62,3.59,7.32,6.6c3.07,5.43,2.38,12.53-1.67,17.27c-4.07,4.77-10.8,6.68-16.47,4.67c-6.27-2.21-10.32-7.7-10.43-14.12
	c-0.11-6.44,3.3-11.79,9.17-14.42c0.73-0.33,1.46-0.67,2.5-1.15c-2.9-1.25-5.59-2.2-7.77-4.15c-2.13-1.9-3.54-4.29-4.82-6.7
	c-0.76-0.12-0.79,0.47-1.03,0.79c-0.22,0.28-0.34,0.64-0.52,0.95c-2.55,4.54-6.41,7.36-11.48,8.3c-6.42,1.19-11.75-0.96-15.95-5.89
	c-0.87-1.02-1.45-2.28-2.15-3.44c-0.32-0.53-0.58-1.09-0.84-1.58c-0.79-0.03-0.72,0.57-0.93,0.91c-0.19,0.3-0.32,0.65-0.48,0.97
	c-1.47,2.9-3.6,5.19-6.45,6.77c-9.13,5.07-20.75,0.39-23.44-9.79c-0.21-0.78-0.38-1.57-0.57-2.38c-0.89,0.21-0.71,0.96-0.84,1.52
	c-1.18,4.98-4.02,8.68-8.69,10.78c-5.68,2.56-11.18,2.01-16.12-1.78c-4.85-3.72-6.8-8.81-5.85-14.86c0.81-5.15,3.61-8.98,8.25-11.42
	c0.56-0.29,1.12-0.59,1.67-0.89c0.07-0.04,0.12-0.14,0.18-0.21c-8.72-4.78-7.67-5.41-10.98-9.79c-0.9,0.66-1.19,1.77-1.9,2.53
	c-0.74,0.79-1.4,1.67-2.19,2.4c-0.79,0.73-1.67,1.39-2.59,1.95c-0.92,0.56-1.91,1.02-2.91,1.43c-0.96,0.39-1.97,0.66-3.46,1.16
	c1.3,0.49,2.1,0.81,2.91,1.11c3.74,1.37,6.47,3.88,8.3,7.4c2.87,5.52,2.01,12.18-2.2,16.94c-4.05,4.58-10.61,6.25-16.34,4.23
	c-5.43-1.91-9.84-6.75-10.21-13.74c-0.31-5.94,3.18-11.84,8.87-14.37c1.13-0.5,2.31-0.9,3.63-1.41c-0.48-0.74-1.19-0.62-1.71-0.84
	c-0.58-0.25-1.2-0.4-1.79-0.64c-0.59-0.23-1.17-0.49-1.73-0.78c-0.56-0.3-1.09-0.64-1.61-1.01c-0.58-0.42-1.15-0.88-1.69-1.35
	c-0.47-0.42-0.92-0.87-1.34-1.35c-0.42-0.47-0.83-0.96-1.19-1.48c-0.36-0.52-0.68-1.07-0.98-1.63c-0.3-0.56-0.56-1.13-0.84-1.7
	c-0.26-0.53-0.51-1.07-0.89-1.88c-0.92,1.28-1.12,2.57-1.83,3.58c-0.73,1.03-1.41,2.11-2.27,3.03c-0.86,0.92-1.84,1.75-2.88,2.44
	c-1.05,0.69-2.2,1.27-3.39,1.68c-1.18,0.41-2.45,0.66-3.7,0.78c-1.25,0.12-2.53,0.1-3.78-0.03c-3.55-0.36-6.55-1.92-9.12-4.36
	c-2.51-2.38-3.83-5.43-4.85-9c-0.38,1.07-0.67,1.8-0.92,2.55c-1.95,5.88-8.13,11.27-16.59,10.33c-7.01-0.78-12.6-6.67-13.42-13.29
	c-0.82-6.65,2.4-12.94,8.38-15.96c0.64-0.32,1.28-0.66,1.91-1c0.06-0.03,0.06-0.15,0.16-0.43c-0.88-0.64-2.02-0.92-2.98-1.51
	c-0.92-0.56-1.87-1.12-2.7-1.81c-0.9-0.75-1.74-1.58-2.48-2.48c-0.69-0.83-1.27-1.76-1.79-2.71c-0.56-1.02-0.99-2.11-1.54-3.29
	c-0.81,0.7-1,1.59-1.38,2.36c-1.98,4-5.1,6.66-9.27,8.26c-6.89,2.66-14.4-0.65-17.94-5.46c-3.88-5.28-4.41-10.93-1.65-16.88
	c0.15-0.33,0.34-0.64,0.54-0.94c0.15-0.22,0.34-0.42,0.62-0.75c2.86-0.36,5.84-0.11,8.8-0.16c2.89-0.04,5.79-0.01,8.68-0.01
	c2.98,0,5.95,0,9.04,0c0.82,1.48,1.6,2.88,2.48,4.47c0.77-1.56,1.45-2.92,2.13-4.3c0.64-0.06,1.17-0.16,1.7-0.16
	c8.32-0.01,16.64-0.01,24.96,0c1.48,0,1.48,0.03,2.88,1.03c1.39-1.01,1.39-1.01,2.88-1.04c0.72-0.01,1.45,0,2.17,0
	c306.12,0,612.24,0,918.36,0c0.72,0,1.45-0.01,2.17,0c1.5,0.02,1.5,0.03,2.88,1.02c1.47-0.98,1.47-1.01,2.65-1.02
	c8.77-0.01,17.54,0,26.32,0.01c0.27,0,0.53,0.07,0.96,0.13c0.56,0.89,1.16,1.87,1.86,2.99c0.72-1.12,1.35-2.08,1.99-3.07
	c8.93,0,17.78,0,26.71,0c1.81,1.92,2.18,4.46,2.82,6.8c0.72,0.16,0.67-0.33,0.72-0.62c0.41-2.16,1.23-4.15,2.53-6.03
	c2.1-0.46,4.28-0.17,6.43-0.22c2.08-0.05,4.16-0.01,6.24-0.01c2.17,0,4.34,0,6.51,0c2.07,0,4.15,0,6.07,0
	c3.49,3.86,4.24,11.25,1.09,16.73c-3.02,5.24-9.05,8.4-15.06,7.74c-7.08-0.77-11.66-5.13-14.09-13.4c-0.74,0.12-0.65,0.76-0.75,1.25
	c-0.74,3.58-2.5,6.56-5.27,8.94c-1.45,1.25-3.06,2.25-4.87,2.88c-1.09,0.38-2.18,0.74-3.66,1.25c1.26,0.45,2.16,0.79,3.08,1.1
	c3.01,1.03,5.46,2.84,7.22,5.47c3.49,5.2,3.86,10.68,0.77,16.13c-3.03,5.34-7.86,8-13.97,7.63c-6.22-0.37-10.69-3.65-13.11-9.44
	c-3.43-8.21,1.27-17.21,8.74-19.75c0.92-0.31,1.81-0.67,2.88-1.07c-5.13-2.33-6.7-1.03-13.08-10.37c-3.49,5.18-2.4,5.58-10.99,10.57
	c0.6,0.36,1.1,0.69,1.63,0.96c5.15,2.64,8.05,6.84,8.72,12.57c0.88,7.56-4.62,15.16-12.07,16.72c-7.99,1.67-15.38-2.4-18.24-10.04
	c-0.34-0.92-0.63-1.87-1.06-3.14c-0.31,0.75-0.55,1.19-0.67,1.66c-0.73,2.76-1.98,5.23-3.94,7.33c-7.53,8.04-20.78,6.38-26.04-3.35
	c-0.46-0.84-0.89-1.7-1.49-2.85c-1.43,2.96-2.79,5.59-5.03,7.63c-2.25,2.06-4.94,3.25-7.72,4.13c-0.09,0.64,0.27,0.74,0.61,0.86
	c1.71,0.61,3.34,1.36,4.81,2.45c5.28,3.92,7.44,10.86,5.34,17.21c-1.99,6.02-7.77,10.13-14.2,10.34
	c-6.02,0.19-13.56-3.61-15.33-12.37c-1.42-7.05,2.42-14.3,9.08-17.02c0.75-0.31,1.5-0.6,2.2-0.88c0.13-0.54-0.17-0.69-0.53-0.79
	c-1.92-0.57-3.73-1.34-5.39-2.49c-1.81-1.25-3.29-2.81-4.5-4.64c-0.34-0.5-0.74-0.97-1.21-1.57c-1.53,2.11-2.73,4.3-4.72,5.74
	c-1.88,1.36-3.9,2.52-5.85,3.76c8.85,4.29,11.23,12.91,9.72,18.58c-1.68,6.33-7,11.29-13.54,12.04c-2.65,0.3-5.24,0-7.73-0.99
	c-2.57-1.03-4.73-2.62-6.48-4.77c-1.66-2.04-2.69-4.41-3.23-6.98c-1.12,0.33-0.93,1.1-1.11,1.65c-1.37,4.22-3.86,7.52-7.81,9.66
	c-8.1,4.38-18.06,1.18-22.14-6.72c-0.36-0.7-0.7-1.42-1.05-2.11c-1.22,1.89-2.3,3.76-3.57,5.49c-1.25,1.69-2.92,3.01-4.84,3.86
	c-1.97,0.88-4.05,1.49-6.2,2.26c0.27,0.48,0.84,0.38,1.26,0.49c4.01,1.01,7.31,3.05,9.64,6.54c5.17,7.76,1.86,18.43-6.73,22.05
	c-7.16,3.01-15.63-0.02-19.16-7.11c-3.54-7.1-1.05-15.62,5.8-19.59c1.77-1.03,3.81-1.58,5.87-2.41c-0.34-0.15-0.66-0.37-1.02-0.44
	c-5.6-1.1-9.73-4.16-12.34-9.25c-0.15-0.29-0.43-0.53-0.78-0.95c-1.49,2.45-2.78,4.82-4.84,6.63c-2.08,1.82-4.52,2.94-7.15,3.93
	c0.3,0.88,1.05,1,1.65,1.26c2.03,0.87,3.83,2.08,5.26,3.74c4.13,4.81,5.3,10.24,2.85,16.15c-2.48,5.99-7.16,9.27-13.62,9.53
	c-6.5,0.26-11.31-2.82-14.28-8.53c-4.32-8.3,0.17-17.4,7.19-20.65c0.73-0.34,1.44-0.7,2.39-1.16c-0.88-0.82-1.89-0.89-2.69-1.35
	c-0.78-0.45-1.64-0.77-2.4-1.26c-0.84-0.53-1.63-1.14-2.38-1.8c-0.67-0.6-1.28-1.27-1.86-1.97c-0.63-0.75-1.19-1.57-1.89-2.51
	c-1.06,0.78-1.4,1.97-2.17,2.79c-0.8,0.86-1.58,1.74-2.47,2.51c-0.81,0.71-1.72,1.32-2.65,1.88c-0.98,0.6-2.02,1.09-2.95,1.59
	c-0.01,0.77,0.47,0.91,0.85,1.1c5.29,2.68,8.15,7.09,8.72,12.88c0.41,4.11-0.85,7.91-3.54,11.07c-4.27,5.02-9.78,6.85-16.09,5.16
	c-6.2-1.65-10.04-5.88-11.33-12.23c-1.3-6.46,1.78-13.06,7.52-16.39c0.67-0.39,1.57-0.49,1.99-1.5c-1.25-0.67-2.54-1.27-3.72-2.04
	c-1.13-0.74-2.2-1.59-3.16-2.53c-1.02-1-1.88-2.17-2.88-3.35c-1.48,1.63-2.79,3.35-4.39,4.75c-1.55,1.35-3.39,2.36-5.26,3.62
	c0.49,0.38,0.93,0.78,1.42,1.1c3.39,2.2,5.78,5.17,6.88,9.09c1.8,6.39,0.09,11.87-4.72,16.24c-8.24,7.49-21.15,4.24-25.21-5.85
	c-0.39-0.98-0.75-1.97-1.18-3.11c-0.82,0.8-0.87,1.75-1.19,2.56c-2.43,6.2-6.92,9.81-13.53,10.62c-6.37,0.78-12.81-2.66-15.83-8.34
	c-0.47-0.87-0.88-1.77-1.43-2.89c-0.36,0.61-0.65,1.02-0.85,1.47c-2.52,5.65-6.9,8.99-12.93,10.02c-4.63,0.8-8.77-0.65-12.43-3.47
	c-2.11-1.62-3.7-3.7-4.78-6.15c-0.25-0.57-0.52-1.12-0.91-1.96c-0.36,0.55-0.63,0.85-0.78,1.21c-2.2,5.27-6.05,8.67-11.54,10.23
	c-0.52,0.15-1.01,0.35-1.81,0.62c0.98,0.32,1.71,0.56,2.44,0.81c7.55,2.59,11.66,10.29,9.61,18c-1.5,5.65-6.62,10.09-12.37,10.73
	c-6.21,0.69-11.96-2.21-14.82-7.48c-4.54-8.35-0.53-18.4,8.52-21.33c0.68-0.22,1.38-0.41,2.21-0.65c-1.98-0.76-3.85-1.36-5.6-2.18
	c-1.73-0.81-3.26-2-4.46-3.49c-1.23-1.53-2.31-3.18-3.47-4.79c-4.93,7.68-6.09,7.63-12.47,10.48c1.02,0.44,1.92,0.82,2.8,1.23
	c6.15,2.85,9.58,9.39,8.42,16.07c-1.14,6.61-6.48,11.61-13.07,12.26c-6.89,0.67-13.07-3.05-15.54-9.37
	c-2.88-7.37,0.41-15.59,7.6-18.95c0.88-0.41,1.77-0.8,2.79-1.25c-6-2.75-7.39-2.49-12.56-10.72c-3.69,6.03-3.95,6.91-12.14,10.75
	c0.83,0.41,1.53,0.76,2.25,1.1c4.08,1.9,6.78,5,8.14,9.3c2.62,8.32-2.78,17.36-11.33,19.05c-8.38,1.66-16.76-3.74-17.96-13.01
	c-0.76-5.87,2.34-11.93,7.59-14.78c1.02-0.55,2.09-1.01,3.41-1.65c-1.24-0.78-2.47-1.01-3.5-1.61c-1.17-0.68-2.36-1.36-3.4-2.2
	c-0.97-0.79-1.83-1.75-2.62-2.73c-0.78-0.97-1.42-2.06-2.06-3c-0.62-0.19-0.79,0.2-0.95,0.49c-2.22,4.07-5.54,6.84-9.88,8.44
	c-0.33,0.12-0.63,0.29-1.22,0.57c0.91,0.47,1.6,0.84,2.31,1.18c3.23,1.52,5.62,3.9,7.16,7.12c4.29,8.92-1.12,19.17-10.34,21.2
	c-8.45,1.86-17.36-3.86-18.27-13.56c-0.54-5.85,2.78-11.78,8.11-14.54c0.85-0.44,1.89-0.59,2.67-1.5c-2.6-1.1-5.07-2.17-7.13-4.01
	c-1.97-1.76-3.24-4.04-4.8-6.38c-1.44,2.48-2.77,4.71-4.76,6.47c-2,1.77-4.38,2.84-6.85,3.81c0.28,1.09,1.28,1.02,1.93,1.33
	c3.51,1.68,6.05,4.28,7.52,7.85c3.76,9.13-1.98,18.74-10.84,20.58c-7.91,1.65-17.7-3.63-18.07-14.35
	c-0.21-6.1,2.64-10.76,8.05-13.74c0.85-0.47,1.76-0.84,2.89-1.37c-1.83-0.9-3.49-1.54-4.94-2.5c-1.42-0.94-2.75-2.08-3.87-3.35
	c-1.18-1.34-2.07-2.94-3.18-4.56c-0.89,0.63-1.04,1.77-1.66,2.57c-0.67,0.85-1.27,1.77-2.01,2.55c-0.74,0.78-1.57,1.5-2.44,2.13
	c-0.87,0.63-1.82,1.17-2.78,1.66c-0.94,0.48-1.92,0.87-3.19,1.42c0.98,0.48,1.69,0.83,2.4,1.18c5.01,2.48,7.87,6.49,8.53,12.05
	c0.88,7.4-4.23,14.51-11.48,16.2c-8.53,1.99-17.84-3.61-18.48-13.8c-0.38-6.09,2.29-10.85,7.63-13.97c0.92-0.54,1.91-0.96,2.9-1.45
	c-0.1-0.77-0.78-0.68-1.17-0.91c-0.55-0.31-1.16-0.5-1.73-0.77c-0.49-0.23-0.98-0.47-1.44-0.75c-0.46-0.28-0.91-0.59-1.34-0.92
	c-0.5-0.39-0.98-0.8-1.45-1.22c-0.4-0.37-0.78-0.75-1.14-1.16c-0.36-0.4-0.72-0.82-1.03-1.26c-0.36-0.52-0.68-1.07-1.02-1.6
	c-0.29-0.45-0.59-0.89-0.98-1.48c-0.97,0.7-1.29,1.76-1.91,2.57c-0.61,0.79-1.21,1.59-1.91,2.28c-0.77,0.76-1.61,1.45-2.5,2.07
	c-0.81,0.57-1.69,1.05-2.58,1.48c-0.97,0.47-1.99,0.83-3.01,1.24c0.17,0.86,0.92,0.78,1.44,1c3.28,1.37,5.92,3.49,7.6,6.65
	c2.73,5.12,2.7,10.26-0.35,15.22c-3.07,4.97-7.68,7.32-13.48,7.02c-9.25-0.48-15.72-8.87-13.86-17.93c0.96-4.7,3.7-8.17,8.01-10.36
	C1398.76,1487.72,1399.67,1487.36,1400.85,1486.83z M1923.43,1390.65c3.59,3.33,5.25,2.28,9.12,12.44c0.43-1.2,0.77-2.31,1.22-3.36
	c0.43-0.99,0.91-1.97,1.51-2.87c0.65-0.97,1.4-1.89,2.24-2.71c0.77-0.75,1.69-1.35,2.55-2c0.9-0.67,2.15-0.82,2.9-1.75
	c-2.03-1.3-4.06-2.33-5.73-3.77c-1.67-1.44-2.98-3.29-4.56-5.09c-0.83,1.21-1.55,2.45-2.45,3.53c-0.92,1.1-1.96,2.14-3.07,3.04
	C1926.06,1389.04,1924.79,1389.75,1923.43,1390.65z M993.4,1390.44c3.07,1.22,5.42,2.62,7.33,4.71c1.99,2.17,2.94,4.86,3.87,7.63
	c0.15-0.18,0.23-0.24,0.26-0.32c0.12-0.34,0.25-0.68,0.34-1.02c1.26-4.46,3.86-7.87,7.97-10.09c0.27-0.15,0.45-0.45,0.66-0.67
	c-1.85-1.35-3.74-2.45-5.28-3.92c-1.59-1.51-2.85-3.37-4.26-5.09C999.67,1387.36,999.67,1387.36,993.4,1390.44z M1100.46,1436.07
	c2.35-6.79,1.75-7.21,9.03-13.14c-1.75-1.24-3.62-2.33-5.19-3.76c-1.55-1.41-2.8-3.17-4.12-4.7c-1.56,1.64-2.91,3.37-4.58,4.7
	c-1.73,1.37-3.77,2.34-5.74,3.52c1.3,0.76,2.62,1.38,3.77,2.23c1.15,0.85,2.26,1.83,3.14,2.95c0.94,1.19,1.71,2.55,2.34,3.94
	C1099.68,1433.08,1099.97,1434.48,1100.46,1436.07z M1228.33,1447.06c-0.81,0.98-1.46,1.83-2.2,2.62c-0.68,0.72-1.4,1.42-2.18,2.01
	c-0.85,0.65-1.82,1.16-2.71,1.77c-0.85,0.58-1.99,0.7-2.85,1.66c0.71,0.4,1.28,0.67,1.77,1.02c1.25,0.88,2.55,1.71,3.67,2.73
	c1.83,1.66,3.04,3.76,3.85,6.11c0.24,0.7,0.16,1.65,1.11,2.04c0.12-0.27,0.27-0.5,0.34-0.75c1.25-4.58,3.87-8.07,8.04-10.39
	c0.26-0.14,0.41-0.47,0.63-0.73c-1.79-1.19-3.55-2.14-5.03-3.4C1231.23,1450.41,1229.93,1448.78,1228.33,1447.06z M1836.27,1434.79
	c3.91-9.55,5.69-8.95,10.26-12.14c-1.77-1.07-3.66-1.97-5.26-3.25c-1.67-1.33-3.05-3.01-4.66-4.64c-0.84,1.08-1.59,2.2-2.49,3.16
	c-0.99,1.05-2.07,2.01-3.21,2.89c-1.04,0.81-2.21,1.45-3.37,2.2C1831.46,1426.31,1833.14,1426.38,1836.27,1434.79z M1269.27,1455.43
	c-1.84-1.28-3.49-2.23-4.9-3.46c-1.46-1.27-2.69-2.8-4-4.19c-1.44,1.45-2.66,2.92-4.11,4.09c-1.51,1.23-3.25,2.18-5,3.33
	c0.32,0.28,0.54,0.56,0.83,0.73c4.12,2.35,6.84,5.76,7.96,10.41c0.09,0.37,0.4,0.69,0.66,1.12c0.47-1.39,0.79-2.61,1.29-3.76
	c0.46-1.07,1.01-2.12,1.69-3.06c0.73-1.01,1.59-1.95,2.51-2.81C1267.11,1456.99,1268.15,1456.3,1269.27,1455.43z M1676.43,1448.06
	c-0.27,0.23-0.58,0.41-0.78,0.68c-1.92,2.58-4.3,4.61-7.15,6.11c-0.25,0.13-0.4,0.49-0.59,0.74c5.07,3.95,5.65,4.74,7.93,10.79
	c0.09,0.24,0.24,0.46,0.55,1.05c0.82-2.88,1.72-5.13,3.19-7.11c1.52-2.06,3.64-3.43,5.78-4.99c-1.73-1.13-3.39-2.03-4.84-3.21
	C1679.07,1450.93,1677.83,1449.48,1676.43,1448.06z M1036.55,1400.98c2.18-4.28,1.58-4.67,7.39-9.95c-1.02-0.75-2.06-1.45-3.01-2.25
	c-0.89-0.75-1.68-1.63-2.54-2.43c-0.88-0.83-1.31-2.09-2.41-2.87c-0.36,0.4-0.61,0.65-0.83,0.93c-1.79,2.32-3.97,4.18-6.59,5.51
	c-0.36,0.18-0.88,0.3-0.79,0.89C1031.98,1393.86,1032.76,1393.64,1036.55,1400.98z M1292.26,1465.23c0.41-0.44,0.66-0.59,0.74-0.81
	c1.27-3.4,3.44-6.07,6.39-8.16c0.25-0.18,0.38-0.52,0.57-0.78c-1.46-1.02-2.85-1.87-4.08-2.9c-1.28-1.08-2.41-2.34-3.45-3.37
	c-0.93,0.81-1.72,1.54-2.55,2.23c-0.9,0.74-1.82,1.47-2.77,2.14c-0.85,0.6-1.75,1.13-2.67,1.72c1.65,1.5,3.24,2.8,4.66,4.26
	C1290.57,1461.05,1291.42,1462.97,1292.26,1465.23z M1132.11,1416.54c-0.89,0.9-1.67,1.75-2.53,2.52c-0.8,0.72-1.68,1.34-2.53,2
	c-0.89,0.69-2.05,1.01-3.01,1.96c1.02,0.74,1.91,1.31,2.73,1.98c0.76,0.62,1.5,1.3,2.14,2.04c0.7,0.82,1.31,1.71,1.88,2.62
	c0.55,0.88,0.98,1.82,1.57,2.91c1.16-1.89,2.03-3.67,3.23-5.18c1.22-1.52,2.77-2.78,4.24-4.21c-1.33-0.96-2.77-1.86-4.04-2.96
	C1134.5,1419.14,1133.39,1417.85,1132.11,1416.54z M1908.91,1390.6c-3.22-1.63-5.81-3.69-7.93-6.62c-0.88,1.07-1.58,1.99-2.36,2.83
	c-0.73,0.79-1.52,1.55-2.34,2.25c-0.87,0.75-1.82,1.41-2.74,2.12c1.39,1.48,2.81,2.76,3.92,4.26c1.11,1.49,1.9,3.21,2.86,4.87
	C1904.74,1392.55,1905.31,1393.61,1908.91,1390.6z M1644.59,1449.32c-1.28,1.23-2.38,2.42-3.62,3.45c-1.22,1.02-2.57,1.88-3.88,2.82
	c1.52,1.52,3.05,2.81,4.25,4.35c1.18,1.51,2.02,3.27,2.98,4.89c1.16-1.83,2.1-3.71,3.41-5.28c1.29-1.55,2.95-2.78,4.49-4.19
	c-1.47-0.97-2.88-1.78-4.14-2.78C1646.82,1451.58,1645.72,1450.39,1644.59,1449.32z M1797.3,1423.32c1.06,0.96,2.05,1.73,2.89,2.64
	c0.9,0.99,1.73,2.07,2.47,3.19c0.66,1,1.16,2.12,1.82,3.37c0.56-1.12,0.95-2.04,1.46-2.87c0.56-0.92,1.18-1.81,1.88-2.62
	c0.64-0.74,1.45-1.34,2.13-2.06c0.7-0.74,1.91-0.93,2.36-1.93c-0.25-0.27-0.34-0.45-0.49-0.52c-2.43-1.24-4.56-2.86-6.35-4.93
	c-0.2-0.24-0.57-0.34-0.92-0.54C1802.56,1419.65,1800.14,1421.6,1797.3,1423.32z M1324.49,1465.26c0.7-1.44,1.16-2.6,1.81-3.65
	c0.71-1.14,1.54-2.23,2.43-3.23c0.82-0.92,1.79-1.71,2.8-2.66c-1.37-1.01-2.65-1.84-3.8-2.82c-1.21-1.03-2.29-2.21-3.47-3.36
	c-1.22,1.15-2.27,2.26-3.45,3.22c-1.23,1-2.57,1.86-3.9,2.8C1322.71,1460.71,1321.59,1460.09,1324.49,1465.26z M1619.78,1455.63
	c-1.38-0.97-2.67-1.78-3.83-2.74c-1.22-1-2.32-2.15-3.54-3.29c-1.21,1.21-2.23,2.36-3.38,3.36c-1.13,0.98-2.38,1.81-3.61,2.74
	c1.44,1.49,2.88,2.74,4,4.23c1.16,1.54,2,3.32,3.08,5.16c0.67-1.33,1.18-2.57,1.89-3.7c0.66-1.06,1.46-2.06,2.32-2.97
	C1617.62,1457.45,1618.67,1456.63,1619.78,1455.63z M1157.14,1423.18c1.38,1.3,2.8,2.43,3.95,3.78c1.19,1.41,2.11,3.05,3.27,4.76
	c0.91-1.5,1.64-2.94,2.59-4.21c1.01-1.35,2.24-2.54,3.48-3.92c-1.15-0.91-2.3-1.75-3.36-2.69c-1.06-0.94-2.03-1.99-3.14-3.09
	c-1.15,1.03-2.17,2.04-3.28,2.92C1159.54,1421.61,1158.33,1422.36,1157.14,1423.18z M1772.72,1418.2c-2.09,1.84-4.09,3.61-6.18,5.45
	c0.84,0.85,1.65,1.57,2.35,2.38c0.71,0.82,1.3,1.73,1.97,2.59c0.64,0.82,0.75,2,1.96,2.85c1.38-3.37,3.73-5.82,6.43-7.99
	C1777.02,1421.68,1774.94,1419.99,1772.72,1418.2z M1381.71,1455.87c3.03,2.16,5.03,4.9,6.54,8.27c1-1.61,1.75-3.05,2.72-4.32
	c1.02-1.34,2.25-2.52,3.49-3.9c-1.13-0.88-2.15-1.74-3.23-2.5c-1.15-0.81-1.86-2.16-3.19-2.8c-1.05,0.96-1.95,1.84-2.91,2.64
	C1384.11,1454.11,1383.03,1454.88,1381.71,1455.87z M1356.4,1450.42c-1.23,1.09-2.21,2.03-3.25,2.88c-1.02,0.83-2.12,1.58-3.08,2.3
	c1.22,1.31,2.4,2.43,3.4,3.7c1.05,1.33,1.92,2.79,2.97,4.35c0.93-1.43,1.71-2.85,2.7-4.09c1.06-1.32,2.32-2.48,3.62-3.85
	c-1.13-0.85-2.23-1.61-3.25-2.46C1358.47,1452.39,1357.52,1451.44,1356.4,1450.42z M1580.57,1450.7c-2.11,1.77-4.1,3.43-6.19,5.18
	c1.11,1.18,2.31,2.27,3.3,3.53c1,1.26,1.79,2.68,2.8,4.22c0.87-0.94,1.16-2.12,1.9-3c0.69-0.83,1.39-1.66,2.07-2.5
	c0.72-0.88,1.9-1.33,2.4-2.41C1584.72,1454.01,1582.7,1452.4,1580.57,1450.7z M1548.34,1464.02c1.05-1.66,1.95-3.09,2.87-4.52
	c0.91-1.42,2.51-2.25,3.41-3.79c-1.11-0.83-2.14-1.55-3.11-2.34c-1.03-0.84-2-1.76-3.02-2.66c-1.04,0.98-1.98,1.82-2.86,2.71
	c-0.93,0.94-2.28,1.39-3.16,2.64C1544.98,1458.3,1547.02,1460.78,1548.34,1464.02z M1452.32,1463.47c0.88-1.38,1.6-2.72,2.53-3.92
	c0.98-1.26,2.15-2.38,3.37-3.7c-1.09-0.85-2.09-1.59-3.04-2.39c-0.96-0.81-1.86-1.69-2.85-2.6c-0.99,0.9-1.9,1.77-2.86,2.58
	c-0.95,0.8-1.95,1.54-3.05,2.41c1.13,1.23,2.24,2.29,3.16,3.48C1450.56,1460.6,1451.36,1462.01,1452.32,1463.47z M1490.43,1455.88
	c-2.16-1.77-4.07-3.34-6.01-4.93c-1.05,0.96-2.02,1.76-2.89,2.66c-0.85,0.87-2.19,1.19-2.82,2.35c1.14,1.25,2.25,2.31,3.18,3.5
	c0.92,1.19,1.67,2.52,2.62,3.99c0.9-1.38,1.63-2.7,2.56-3.87C1488.05,1458.32,1489.21,1457.2,1490.43,1455.88z M1426.06,1455.94
	c-2.06-1.69-3.86-3.17-5.67-4.65c-1.92,1.57-3.78,3.08-5.78,4.71c0.8,0.8,1.52,1.46,2.17,2.19c0.66,0.74,1.27,1.53,1.87,2.31
	c0.58,0.75,0.85,1.74,1.83,2.42C1421.9,1460.24,1423.75,1458.05,1426.06,1455.94z M1062.02,1391.16c0.85,0.74,1.69,1.4,2.44,2.14
	c0.7,0.69,1.31,1.48,1.99,2.19c0.72,0.75,0.99,1.88,1.87,2.48c1.74-2.22,3.38-4.32,5.13-6.56c-0.86-0.75-1.75-1.62-2.74-2.36
	c-1.05-0.78-1.57-2.2-2.88-2.6C1065.86,1388.05,1063.99,1389.56,1062.02,1391.16z M1516.4,1463.09c1.06-1.54,1.85-2.71,2.66-3.87
	c0.85-1.23,2.24-2.01,3.04-3.42c-1.03-0.78-1.94-1.51-2.89-2.16c-1.01-0.7-1.62-1.91-2.81-2.3c-1.88,1.55-3.66,3.02-5.57,4.6
	C1512.93,1458.01,1514.96,1460.04,1516.4,1463.09z M1868.72,1397.84c1.33-2.73,3.37-4.63,5.57-6.58c-1.04-0.8-1.94-1.53-2.88-2.2
	c-0.93-0.66-1.53-1.75-2.74-2.24c-1.52,1.87-3.49,3.14-4.94,4.77C1865.37,1393.64,1866.89,1395.54,1868.72,1397.84z M1196.46,1430
	c1.62-2.13,3.14-4.12,4.72-6.19c-1.68-1.46-3.35-2.91-5.02-4.37c-1.78,1.45-3.44,2.8-5.04,4.11
	C1192.93,1425.74,1194.64,1427.8,1196.46,1430z M1740.94,1419.73c-1.63,1.41-3.11,2.69-4.67,4.05c1.46,1.85,2.86,3.64,4.41,5.61
	c0.83-1.08,1.57-2.07,2.33-3.04c0.81-1.02,2.02-1.69,2.64-2.91C1744.05,1422.18,1742.58,1421.02,1740.94,1419.73z M1100.21,1396.66
	c1.09-1.48,2.13-2.9,3.25-4.41c-1.45-1.26-2.55-2.78-4.28-3.71c-1.1,1.17-2.59,1.73-3.34,3.05
	C1097.31,1393.31,1098.71,1394.93,1100.21,1396.66z M1712.64,1423.89c-1.12-1.25-2.34-2.19-3.7-3c-0.71,0.63-1.35,1.13-1.91,1.7
	c-0.54,0.55-1.45,0.79-1.52,1.79c0.8,1.05,1.59,2.13,2.43,3.18c0.25,0.32,0.61,0.55,0.95,0.85
	C1710.19,1426.84,1711.38,1425.4,1712.64,1423.89z M1837.28,1388.65c-1.33,1.22-2.7,2.19-3.65,3.64c0.57,0.73,1.07,1.37,1.56,2.01
	c0.47,0.62,0.92,1.26,1.49,2.05c0.76-0.92,1.41-1.65,2-2.42c0.63-0.83,1.6-1.39,2.14-2.47
	C1839.59,1390.48,1838.48,1389.6,1837.28,1388.65z M1224.59,1423.87c1.33,1.54,2.52,2.93,3.84,4.47c1.25-1.41,2.28-2.69,3.26-4.16
	c-1.33-1.07-2.32-2.36-3.88-2.97C1226.72,1422.12,1225.71,1422.95,1224.59,1423.87z M1260.77,1421.51
	c-1.27,0.98-2.39,1.67-3.23,2.97c1.03,0.98,1.69,2.24,2.91,3.26c1.01-1.37,2.21-2.41,2.92-3.99
	C1262.51,1423.01,1261.71,1422.32,1260.77,1421.51z M1676.3,1427.38c1.25-0.97,2.07-2.06,2.83-3.28c-0.94-1.03-1.85-1.83-2.99-2.43
	c-1.08,0.55-1.93,1.25-2.64,2.3C1674.45,1425.14,1675.34,1426.22,1676.3,1427.38z M1292.21,1426.45c1.08-1.03,1.86-1.82,2.56-3.2
	c-0.38-0.24-0.76-0.47-1.14-0.7c-0.36-0.22-0.72-0.44-1.18-0.71c-0.79,0.71-1.49,1.33-2.32,2.07
	C1290.84,1424.78,1291.44,1425.51,1292.21,1426.45z M1322.32,1423.64c0.56,0.87,1.07,1.68,2.09,2.12c0.88-0.74,1.54-1.56,2.13-2.61
	c-0.65-0.53-1.26-1.02-1.93-1.56C1323.67,1422.17,1322.9,1422.74,1322.32,1423.64z M1132.59,1390.16c-0.84,0.73-1.57,1.35-2.46,2.12
	c0.68,0.77,1.25,1.41,1.86,2.09c1.13-0.76,1.85-1.61,2.35-2.83C1133.76,1391.07,1133.22,1390.65,1132.59,1390.16z M1644.24,1421.76
	c-0.68,0.58-1.15,0.96-1.6,1.38c-0.11,0.1-0.1,0.33-0.19,0.7c0.68,0.61,1.1,1.62,2.09,2.18c0.92-0.57,1.54-1.27,1.91-2.36
	C1645.78,1423.08,1645.11,1422.5,1644.24,1421.76z M1614.36,1423.64c-0.38-0.91-1.11-1.5-2.02-1.96c-0.85,0.33-1.56,0.79-1.93,1.82
	c0.64,0.72,1.27,1.44,1.87,2.13C1613.39,1425.3,1613.74,1424.44,1614.36,1423.64z M1806.55,1392.16c-0.9-0.78-1.55-1.34-2.1-1.82
	c-1,0.12-1.43,0.61-1.62,1.44c0.62,0.66,1,1.6,2.05,2.09C1805.39,1393.35,1805.86,1392.86,1806.55,1392.16z M1162.71,1391.87
	c0.36,0.38,0.75,0.8,1.27,1.35c0.68-0.81,1.23-1.46,2.02-2.4c-0.43-0.38-0.75-0.66-1.06-0.92
	C1163.87,1390.38,1163.15,1390.84,1162.71,1391.87z M1388.78,1421.42c-1.13,0.73-1.95,1-2.01,2.1c0.42,0.37,0.87,0.76,1.3,1.15
	c0.88-0.45,1.49-0.92,1.7-2.2C1389.57,1422.25,1389.21,1421.88,1388.78,1421.42z M1356.22,1424.93c0.94-0.51,1.53-0.98,1.69-1.96
	c-0.44-0.35-0.9-0.71-1.45-1.15c-0.58,0.54-1.07,0.99-1.63,1.51C1355.33,1423.9,1355.73,1424.36,1356.22,1424.93z M1550.08,1423.02
	c-0.69-0.61-1.14-1.01-1.61-1.43c-0.69,0.38-1.36,0.65-1.33,1.73c0.39,0.36,0.88,0.81,1.47,1.35
	C1549.13,1424.1,1549.51,1423.67,1550.08,1423.02z M1581.89,1423.42c-1.46-1.82-1.57-1.83-2.8-0.18c0.44,0.47,0.91,0.96,1.5,1.59
	C1581.1,1424.26,1581.5,1423.83,1581.89,1423.42z M1772.73,1392.97c1.27-1.42,1.27-1.71,0.26-2.54c-0.69-0.56-0.92-0.48-1.88,0.75
	C1771.59,1391.7,1772.09,1392.26,1772.73,1392.97z M1452.44,1421.64c-0.81,0.31-1.42,0.65-1.4,1.67c0.39,0.34,0.83,0.73,1.35,1.18
	c0.51-0.55,0.91-0.99,1.42-1.55C1453.28,1422.43,1452.84,1422.02,1452.44,1421.64z M1483.03,1422.98c0.52,0.55,0.93,0.97,1.33,1.39
	c1.49-1.05,1.67-1.37,1.18-1.98C1484.85,1421.54,1484.4,1421.61,1483.03,1422.98z M1420.42,1421.71c-0.44,0.57-0.89,0.91-0.94,1.31
	c-0.04,0.27,0.44,0.71,0.78,0.89c0.36,0.19,1.18-0.42,1.09-0.84C1421.26,1422.65,1420.85,1422.31,1420.42,1421.71z M1516.75,1423.93
	c0.18-0.27,0.56-0.64,0.66-1.07c0.1-0.42-0.72-1.02-1.1-0.82c-0.33,0.18-0.67,0.57-0.76,0.93
	C1515.42,1423.45,1516.03,1423.99,1516.75,1423.93z M1196.87,1390.12c-0.2,0.04-0.3,0.03-0.37,0.07c-0.39,0.22-0.72,0.48-0.56,1
	c0.02,0.06,0.12,0.14,0.19,0.14c0.53,0.01,0.76-0.32,0.84-0.78C1196.99,1390.48,1196.94,1390.39,1196.87,1390.12z M971.86,1405.53
	c0-7.36-5.04-14.62-14.9-15.16c-8.01-0.43-14.99,6.85-15.02,15.02c-0.03,8.31,6.59,15,14.89,15.05
	C965.1,1420.48,971.86,1413.82,971.86,1405.53z M1163.39,1470.14c0.16-8.26-6.47-15.12-14.77-15.16
	c-8.61-0.05-15.02,6.97-14.99,14.96c0.04,8.16,6.64,14.83,14.78,14.87C1156.58,1484.84,1163.23,1478.29,1163.39,1470.14z
	 M1916.03,1422.87c-8.08,0.01-14.86,6.77-14.74,14.91c0.12,8.15,6.52,14.61,14.68,14.66c8.3,0.05,14.84-6.45,14.85-14.74
	C1930.99,1429.9,1924.52,1422.87,1916.03,1422.87z M1020.8,1423.01c-8.39-0.07-14.8,6.8-14.72,14.83
	c0.08,8.07,6.67,14.55,14.77,14.51c8.1-0.04,14.57-6.57,14.55-14.7C1035.56,1430.95,1030.29,1423.08,1020.8,1423.01z
	 M1628.44,1486.92c-8.08-0.03-14.67,6.5-14.69,14.58c-0.03,8.08,6.5,14.67,14.57,14.7c8.07,0.03,14.66-6.51,14.69-14.58
	C1643.04,1493.53,1636.52,1486.95,1628.44,1486.92z M1820.14,1455.27c-8.44-0.11-14.69,6.54-14.8,14.47
	c-0.1,7.64,5.75,14.68,14.47,14.8c8.48,0.12,14.7-6.63,14.78-14.48C1834.7,1462.45,1828.92,1455.38,1820.14,1455.27z
	 M1293.86,1501.68c0.05,8.31,6.7,14.58,14.78,14.46c8.35-0.12,14.42-6.7,14.38-14.57c-0.04-9.06-7.25-14.62-14.62-14.61
	C1301.08,1487.01,1293.81,1492.62,1293.86,1501.68z M1117.01,1455.37c-7.74-0.11-14.73,5.81-14.71,14.57
	c0.02,8.56,6.76,14.5,14.51,14.51c8.07,0.01,14.36-6.19,14.59-14.44C1131.3,1461.88,1125.23,1455.49,1117.01,1455.37z
	 M1997.66,1405.47c-0.02,8.05,6.23,14.5,14.49,14.5c8.6-0.01,14.49-6.73,14.48-14.49c-0.01-7.94-5.94-14.28-14.47-14.52
	C2004.02,1391.17,1997.68,1397.18,1997.66,1405.47z M1674.43,1501.69c0.07-7.66-5.79-14.45-14.41-14.54
	c-7.9-0.08-14.32,6.37-14.38,14.28c-0.06,8.07,6.32,14.52,14.39,14.52C1668.21,1515.98,1674.36,1509.4,1674.43,1501.69z
	 M1291.17,1501.75c0.12-8.01-6.35-14.57-14.37-14.56c-7.95,0.01-14.29,6.35-14.32,14.31c-0.03,7.99,6.22,14.32,14.2,14.39
	C1284.46,1516.08,1291.05,1509.76,1291.17,1501.75z M924.58,1391.22c-8.01,0.05-14.25,6.36-14.2,14.35
	c0.05,7.95,6.41,14.23,14.39,14.19c7.98-0.04,14.22-6.37,14.18-14.37C938.91,1397.37,932.61,1391.16,924.58,1391.22z
	 M1948.36,1423.44c-7.98-0.03-14.33,6.28-14.33,14.24c0,7.85,6.2,14.08,14.07,14.22c8.6,0.15,14.5-6.98,14.49-14.1
	C1962.64,1429.89,1956.28,1423.47,1948.36,1423.44z M914.45,1385.35c6,5.26,14.86,5.16,20.72-0.21c5.81-5.32,6.51-14.58,2.02-20.1
	c-2.06-0.28-21.27-0.37-24.98-0.1C907.56,1371.43,908.57,1380.2,914.45,1385.35z M1706.47,1501.73c0.09-7.92-6.3-14.34-14.24-14.33
	c-7.88,0.01-14.1,6.24-14.11,14.13c-0.01,7.88,6.22,14.17,14.05,14.21C1699.89,1515.88,1706.38,1509.48,1706.47,1501.73z
	 M1852.39,1455.74c-7.9-0.12-14.23,6.21-14.4,13.9c-0.17,7.87,6.27,14.39,14.16,14.42c7.81,0.03,14.18-6.25,14.24-14.05
	C1866.45,1462.2,1860.22,1455.87,1852.39,1455.74z M1244.66,1515.71c7.76-0.03,14.2-6.45,14.12-14.2
	c-0.09-8.17-6.7-14.11-14.22-14.08c-7.86,0.03-14.09,6.31-14.06,14.19C1230.52,1509.46,1236.82,1515.73,1244.66,1515.71z
	 M1003.27,1437.67c0-7.8-6.34-14.13-14.15-14.13c-7.84,0-14.12,6.29-14.13,14.14c0,7.88,6.23,14.1,14.14,14.09
	C997,1451.77,1003.27,1445.51,1003.27,1437.67z M1084.6,1483.99c7.83,0.01,14.16-6.29,14.15-14.11
	c-0.01-7.72-6.18-13.94-13.92-14.04c-7.88-0.1-14.2,6.09-14.25,13.95C1070.53,1477.66,1076.76,1483.97,1084.6,1483.99z
	 M1724.32,1487.66c-8.22,0.11-13.69,6.49-13.79,13.84c-0.1,7.65,6.29,14.06,13.94,13.99c7.57-0.07,13.76-5.87,13.94-14.01
	C1738.14,1493.36,1732.04,1487.56,1724.32,1487.66z M1213.09,1487.72c-8.22-0.13-14.01,6.43-14.02,13.82
	c-0.01,7.6,6.11,13.79,13.72,13.89c7.67,0.1,14.01-6.16,14.03-13.85C1226.79,1495.04,1222.05,1487.86,1213.09,1487.72z
	 M2057.7,1406.02c0.23-7.72-5.7-14.18-13.47-14.39c-7.65-0.21-14.07,5.51-14.25,13.58c-0.17,8.1,6.31,14.04,13.43,14.11
	C2051.86,1419.61,2057.51,1412.55,2057.7,1406.02z M2033.59,1384.68c5.69,5.36,14.38,5.42,20.24,0.21
	c5.71-5.09,6.54-13.69,1.91-19.86c-2.24-0.3-21.54-0.3-23.81,0C2028,1369.32,2027.13,1378.6,2033.59,1384.68z M1883.9,1456.18
	c-7.53-0.02-13.62,5.96-13.73,13.49c-0.12,7.66,5.92,13.88,13.54,13.95c7.64,0.08,13.82-6,13.86-13.62
	C1897.61,1462.35,1891.53,1456.21,1883.9,1456.18z M882.87,1384.58c5.84,5.49,14.81,5.35,20.58-0.24
	c5.69-5.52,5.61-14.85,1.12-19.45c-7.68,0-15.43,0-23.11,0C876.68,1370.6,877.34,1379.4,882.87,1384.58z M1993.69,1437.53
	c-0.06-7.11-6.14-13.69-13.95-13.58c-7.29,0.1-13.5,6.23-13.5,13.74c0.01,7.54,6.19,13.84,13.79,13.67
	C1987.6,1451.46,1993.75,1445,1993.69,1437.53z M893.07,1391.81c-7.54-0.02-13.75,6.18-13.7,13.77c0.05,7.56,6.45,13.59,13.63,13.61
	c7.3,0.02,13.91-6.26,13.7-13.81C906.82,1398.2,900.67,1391.83,893.07,1391.81z M1052.98,1456.27c-7.05-0.02-13.62,5.59-13.61,13.64
	c0.01,8.12,6.67,13.66,13.63,13.64c7.53-0.03,13.61-6.1,13.6-13.65C1066.59,1462.33,1060.53,1456.29,1052.98,1456.27z
	 M1756.14,1488.01c-7.46-0.01-13.53,5.9-13.64,13.31c-0.12,7.48,5.99,13.76,13.44,13.84c7.54,0.08,13.67-5.96,13.72-13.51
	C1769.71,1494.03,1763.76,1488.03,1756.14,1488.01z M1180.69,1515.11c7.63,0.02,13.5-6.03,13.58-13.38
	c0.09-7.91-6.22-13.59-13.24-13.69c-7.63-0.12-13.77,5.79-13.84,13.35C1167.06,1508.51,1172.68,1515.09,1180.69,1515.11z
	 M970.47,1437.73c0.07-7.82-6.32-13.69-13.58-13.66c-7.42,0.03-13.45,5.97-13.56,13.41c-0.11,7.59,5.87,13.71,13.44,13.76
	C963.34,1451.46,970.4,1446.28,970.47,1437.73z M2063.3,1380.25c2.74,5.15,7.14,7.92,12.94,7.8c11.2-0.24,17.44-11.97,12.15-21.45
	c-0.75-1.34-1.7-1.85-3.25-1.83c-6.22,0.08-12.44,0.03-18.66,0.04c-0.45,0-0.89,0.04-1.46,0.07
	C2061.54,1368.67,2060.67,1375.29,2063.3,1380.25z M1788.24,1488.32c-7.46,0.08-13.19,5.93-13.15,13.34
	c0.04,7.23,5.83,13.21,13.35,13.13c7.35-0.08,13.2-5.99,13.15-13.34C1801.55,1494.12,1795.59,1488.25,1788.24,1488.32z
	 M1916.14,1456.69c-6.79-0.05-13.3,5.43-13.26,13.28c0.04,7.96,6.79,13.27,13.4,13.16c6.69-0.12,13.06-5.53,12.96-13.29
	C1929.27,1462.25,1923.04,1456.73,1916.14,1456.69z M2062.88,1405.4c-0.03,7.4,6.22,13.18,13.01,13.27
	c6.61,0.08,13.38-5.46,13.28-13.25c-0.1-7.32-5.8-13.07-13.12-13.07C2068.55,1392.29,2062.91,1398.51,2062.88,1405.4z
	 M850.9,1383.81c5.46,5.33,13.78,5.6,19.56,0.25c5.43-5.02,5.9-13.45,1.09-19.16c-7.12,0-14.32,0-21.46,0
	C845.26,1370.35,845.61,1378.64,850.9,1383.81z M1135.38,1501.39c-0.07,7.29,5.64,13.13,12.89,13.32
	c7.26,0.19,13.38-5.82,13.38-13.11c0.01-7.64-6.32-13.29-13.04-13.15C1141.58,1488.23,1135.45,1494.02,1135.38,1501.39z
	 M1020.84,1456.79c-7.1-0.07-13.15,5.71-13.19,13.02c-0.04,7.48,6.12,13.17,13.02,13.2c7.43,0.03,13.29-6.08,13.14-13.03
	C1034.05,1463.13,1028.43,1456.86,1020.84,1456.79z M2025.24,1437.72c0.02-7.29-5.79-13.15-13.04-13.16
	c-7.24-0.01-13.15,5.85-13.17,13.06c-0.02,7.25,5.81,13.11,13.07,13.13C2019.43,1450.78,2025.22,1445.03,2025.24,1437.72z
	 M1513.74,1533.82c0.02-7.24-5.81-13.13-13.03-13.16c-7.28-0.03-13.07,5.73-13.11,13.04c-0.04,7.36,5.64,13.09,12.99,13.12
	C1507.9,1546.84,1513.72,1541.09,1513.74,1533.82z M1481.5,1533.87c0.14-7.35-6.13-13.27-12.97-13.24
	c-7.27,0.03-13.15,5.75-13.21,13c-0.05,7.33,5.64,13.12,12.97,13.17C1475.67,1546.86,1481.36,1541.21,1481.5,1533.87z
	 M1545.37,1533.61c-0.06-7.08-5.93-12.89-13.02-12.92c-7.25-0.02-13.07,5.82-13.11,13.09c-0.04,7.12,5.85,13.18,13.14,12.99
	C1539.68,1546.73,1545.43,1540.91,1545.37,1533.61z M1449.28,1533.74c-0.01-7.21-5.93-13.08-13.15-13.05
	c-7.14,0.03-12.88,5.78-12.92,12.95c-0.05,7.4,5.59,13.11,12.96,13.12C1443.49,1546.78,1449.29,1541.02,1449.28,1533.74z
	 M861.05,1392.47c-7.04-0.13-13.19,5.38-13.28,12.9c-0.09,7.14,5.72,13.13,13.05,13.16c7.08,0.03,12.92-5.83,12.97-12.94
	C873.85,1398.4,868.19,1392.6,861.05,1392.47z M1404.63,1520.72c-7.19-0.04-13.1,5.88-13.09,13.09c0.01,7.26,5.86,12.99,13.19,12.92
	c7.2-0.06,12.79-5.77,12.77-13.02C1417.47,1526.54,1411.74,1520.76,1404.63,1520.72z M924.85,1424.7c-7.93-0.11-13.19,6.4-13.17,13
	c0.02,7.11,5.84,12.94,12.95,12.96c7.15,0.02,12.95-5.72,13-12.87C937.73,1431.19,932.64,1424.81,924.85,1424.7z M1564.52,1520.75
	c-6.66,0.01-12.95,5.29-13,12.92c-0.05,7.79,6.33,13.12,13.1,13.03c7.17-0.09,12.87-5.83,12.85-13
	C1577.44,1526.6,1571.59,1520.74,1564.52,1520.75z M1385.26,1533.86c0.05-7.1-5.75-13.01-12.83-13.07
	c-7.02-0.06-13,5.83-13.06,12.87c-0.06,7.1,5.73,12.96,12.86,13.01C1379.41,1546.72,1385.21,1541.02,1385.26,1533.86z
	 M1819.86,1488.66c-6.98,0.07-12.74,5.85-12.79,12.81c-0.05,7.04,5.84,12.97,12.9,12.99c7.09,0.01,12.93-5.86,12.9-12.96
	C1832.84,1494.38,1826.97,1488.59,1819.86,1488.66z M1596.32,1520.92c-7.08-0.11-12.99,5.78-12.97,12.9
	c0.02,7.03,5.76,12.77,12.8,12.78c7.05,0.01,12.78-5.68,12.82-12.74C1609,1526.8,1603.34,1521.02,1596.32,1520.92z M1129.59,1501.67
	c0.04-7.74-5.91-12.77-12.63-12.9c-6.99-0.13-12.82,5.65-12.89,12.67c-0.07,7.04,5.61,12.81,12.67,12.87
	C1123.46,1514.42,1129.54,1509.21,1129.59,1501.67z M1340.71,1520.98c-6.16-0.05-12.75,4.73-12.77,12.76
	c-0.01,7.63,5.9,12.73,12.71,12.79c7.03,0.06,12.79-5.7,12.81-12.74C1353.48,1526.78,1347.72,1521.03,1340.71,1520.98z
	 M2094.73,1377.72c1.71,5.27,5.36,8.55,10.83,9.39c5.68,0.88,10.38-1.15,13.49-6.03c3.03-4.76,2.88-9.7,0.04-14.59
	c-0.71-1.22-1.61-1.74-3.06-1.72c-5.68,0.08-11.36,0.03-17.05,0.04c-0.45,0-0.89,0.05-1.53,0.09
	C2094.37,1368.85,2093.21,1373.04,2094.73,1377.72z M1628.62,1521.06c-6.55-0.11-12.87,5.24-12.9,12.59
	c-0.03,7.1,5.59,12.76,12.69,12.75c7.21-0.01,12.71-5.94,12.6-12.54C1641.2,1526.48,1634.82,1521.17,1628.62,1521.06z
	 M816.03,1376.4c1.1,5.39,5.07,9.41,10.41,10.51c5.3,1.09,10.86-1.06,13.75-5.51c3.15-4.84,3.15-9.81,0.27-14.82
	c-0.76-1.32-1.76-1.82-3.3-1.8c-5.42,0.08-10.83,0.03-16.25,0.04c-0.54,0-1.07,0.05-1.8,0.09
	C816.32,1368.39,815.16,1372.12,816.03,1376.4z M1948.33,1457.26c-7.04-0.03-12.75,5.71-12.68,12.75
	c0.07,6.95,5.68,12.53,12.62,12.54c7.03,0.02,12.76-5.73,12.7-12.75C1960.91,1462.88,1955.27,1457.28,1948.33,1457.26z
	 M1295.87,1533.64c-0.07,6.98,5.42,12.55,12.41,12.7c6.72,0.15,12.77-5.17,12.75-12.6c-0.02-7.88-6.67-12.76-12.52-12.6
	C1302.42,1520.95,1295.95,1526.06,1295.87,1533.64z M989.14,1457.39c-6.95,0.02-12.4,5.39-12.57,12.29
	c-0.16,6.54,5.03,12.66,12.4,12.74c7.02,0.07,12.67-5.45,12.7-12.43C1001.9,1463.6,996.51,1457.37,989.14,1457.39z M1647.54,1533.6
	c-0.09,6.85,5.42,12.44,12.26,12.61c6.38,0.16,12.64-4.9,12.67-12.43c0.02-7.03-5.66-12.42-12.35-12.53
	C1653.34,1521.21,1647.62,1526.83,1647.54,1533.6z M1289.24,1533.65c-0.12-7.26-6-12.43-12.54-12.34
	c-7.22,0.1-12.39,6.05-12.33,12.56c0.06,6.84,5.67,12.34,12.55,12.29C1283.77,1546.12,1289.36,1540.5,1289.24,1533.65z
	 M2107.58,1393.08c-6.84,0.08-12.41,5.68-12.35,12.5c0.06,6.78,5.77,12.38,12.55,12.33c6.83-0.06,12.35-5.68,12.31-12.53
	C2119.96,1398.15,2114.16,1393,2107.58,1393.08z M2043.73,1425.24c-6.82,0.05-12.35,5.68-12.31,12.53
	c0.04,6.88,5.6,12.35,12.49,12.31c6.87-0.04,12.37-5.63,12.32-12.49C2056.17,1430.75,2050.54,1425.19,2043.73,1425.24z
	 M1852.17,1489.13c-6.75,0.05-12.38,5.31-12.36,12.46c0.02,7.29,5.94,12.43,12.43,12.42c6.82-0.01,12.36-5.62,12.35-12.48
	C1864.57,1494.64,1859.03,1489.09,1852.17,1489.13z M1084.74,1489.25c-7.06-0.05-12.38,5.42-12.42,12.34
	c-0.03,6.81,5.72,12.45,12.48,12.34c6.68-0.11,12.19-5.72,12.17-12.4C1096.85,1494.58,1091.53,1489.29,1084.74,1489.25z
	 M841.41,1405.63c0.09-7.25-5.46-12.28-12.03-12.4c-6.73-0.13-12.31,4.98-12.5,11.95c-0.2,6.94,5.39,12.41,11.91,12.55
	C835.13,1417.94,841.32,1413.12,841.41,1405.63z M893.18,1425.4c-6.8-0.1-12.45,5.51-12.41,12.33c0.03,6.74,5.52,12.21,12.25,12.22
	c6.73,0.01,12.23-5.46,12.27-12.19C905.32,1431.02,899.92,1425.5,893.18,1425.4z M1680.03,1533.71c-0.03,6.73,5.5,12.29,12.22,12.29
	c6.62,0,12.09-5.39,12.21-12.03c0.12-6.7-5.37-12.35-12.09-12.42C1685.66,1521.46,1680.06,1526.98,1680.03,1533.71z
	 M1256.75,1533.97c0.13-6.72-5.35-12.32-12.08-12.36c-6.63-0.04-12.16,5.31-12.21,11.96c-0.05,6.72,4.98,12.17,12.08,12.37
	C1251.14,1545.99,1256.62,1540.63,1256.75,1533.97z M2148.71,1364.91c-5.6-0.03-11.19-0.05-16.78-0.1c-0.92-0.01-1.53,0.42-2.04,1.1
	c-2.87,3.85-3.55,8.06-1.85,12.54c2.21,5.8,7.53,8.2,11.73,8.11c5.44-0.11,9.41-2.65,11.82-7.61c1.95-4.02,1.37-10.44-2.62-13.95
	C2148.88,1364.96,2148.8,1364.91,2148.71,1364.91z M1980.04,1457.83c-6.85-0.05-12.1,5.42-12.18,11.91
	c-0.08,6.88,5.47,12.27,12.12,12.24c6.85-0.03,12.18-5.69,12.03-12.05C1992.2,1463.63,1986.99,1457.88,1980.04,1457.83z
	 M793.32,1385.87c5.07,1.57,10.7-0.33,13.9-4.77c3.17-4.4,3.11-10.33-0.06-14.69c-0.82-1.12-1.7-1.66-3.14-1.64
	c-4.78,0.08-9.57,0.03-14.35,0.04c-0.53,0-1.07,0.07-1.58,0.11C781.83,1370.97,783.52,1382.85,793.32,1385.87z M1895.8,1501.61
	c0.03-6.61-5.2-11.91-11.81-11.96c-6.77-0.05-12.08,5.23-12.04,11.99c0.04,6.57,5.37,11.89,11.93,11.89
	C1890.4,1513.52,1895.76,1508.16,1895.8,1501.61z M1724.57,1521.88c-6.54-0.05-11.97,5.28-12.02,11.79
	c-0.05,6.55,5.26,11.93,11.82,11.98c6.61,0.04,11.94-5.19,11.98-11.78C1736.39,1527.27,1731.14,1521.93,1724.57,1521.88z
	 M968.8,1470.02c0.06-6.73-5.25-12.04-11.98-12.01c-6.64,0.03-11.79,5.24-11.79,11.9c0.01,6.66,5.18,11.86,11.81,11.88
	C963.46,1481.82,968.75,1476.61,968.8,1470.02z M1052.85,1489.73c-6.46,0.06-11.67,5.29-11.69,11.76
	c-0.01,6.26,4.83,11.92,11.81,11.94c6.97,0.02,11.93-5.78,11.79-11.93C1064.74,1494.87,1059.47,1489.66,1052.85,1489.73z
	 M1224.77,1533.75c-0.01-6.44-5.21-11.72-11.65-11.83c-6.54-0.11-11.93,5.17-11.99,11.74c-0.06,6.58,5.2,11.93,11.76,11.95
	C1219.46,1545.63,1224.78,1540.32,1224.77,1533.75z M2064.31,1437.37c-0.17,6.81,5,11.79,11.35,12.04
	c5.47,0.22,11.92-3.65,12.1-11.57c0.16-6.91-5.3-11.7-11.49-11.95C2070.23,1425.86,2064.49,1430.4,2064.31,1437.37z M2151.5,1405.57
	c0.06-6.47-5.19-11.81-11.63-11.74c-5.86,0.07-11.47,4.31-11.55,11.52c-0.08,7.68,6.28,11.85,11.6,11.73
	C2146.27,1417.08,2151.44,1411.93,2151.5,1405.57z M1744.54,1533.74c-0.03,5.27,4.02,11.53,11.55,11.55
	c6.91,0.02,11.52-5.39,11.58-11.5c0.07-6.36-5.16-11.56-11.53-11.57C1749.77,1522.21,1744.58,1527.38,1744.54,1533.74z
	 M1192.21,1533.75c-0.01-6.31-5.01-11.33-11.3-11.49c-6.15-0.16-11.64,5.07-11.7,11.39c-0.05,6.03,4.82,11.62,11.46,11.58
	C1187.14,1545.26,1192.22,1540.2,1192.21,1533.75z M872.3,1437.54c-0.12-6.99-6.03-11.51-11.69-11.4
	c-5.9,0.11-11.3,5.09-11.31,11.54c-0.01,6.05,4.9,11.58,11.58,11.49C867.29,1449.13,872.41,1443.94,872.3,1437.54z M2172.24,1364.81
	c-2.26,0-4.52,0.01-6.78-0.01c-0.87-0.01-1.56,0.26-2.15,0.93c-2.81,3.23-3.88,6.92-2.75,11.07c1.59,5.85,6.54,9.3,12.64,8.8
	c4.76-0.39,8.17-2.91,9.94-7.28c1.8-4.46,1.07-8.68-2.06-12.42c-0.7-0.84-1.54-1.15-2.61-1.12
	C2176.4,1364.85,2174.32,1364.81,2172.24,1364.81C2172.24,1364.81,2172.24,1364.81,2172.24,1364.81z M2012.12,1458.48
	c-6.25-0.01-11.38,5.11-11.42,11.33c-0.04,6.34,5.17,11.6,11.51,11.52c6.81-0.09,11.44-5.56,11.37-11.34
	C2023.73,1463.99,2018.92,1458.49,2012.12,1458.48z M1904.69,1501.36c-0.08,6.41,5.01,11.59,11.41,11.58
	c6.31-0.01,11.27-5.02,11.36-11.34c0.09-6.34-5.24-11.51-11.25-11.42C1910.48,1489.94,1904.77,1494.72,1904.69,1501.36z
	 M797.03,1416.89c6.23-0.04,11.34-5.24,11.3-11.51c-0.04-6.31-5.14-11.32-11.47-11.29c-6.36,0.03-11.27,5.04-11.24,11.46
	C785.65,1411.88,790.73,1416.93,797.03,1416.89z M775.93,1378.76c2.08-4.52,1.36-8.78-1.73-12.66c-0.72-0.9-1.58-1.34-2.79-1.32
	c-3.97,0.06-7.94,0.1-11.9-0.02c-1.56-0.05-2.58,0.57-3.43,1.71c-2.84,3.8-3.42,7.95-1.46,12.24c2.02,4.41,5.68,6.6,10.5,6.88
	C770.06,1385.41,773.84,1383.3,775.93,1378.76z M1009.46,1501.46c-0.05,6.24,5.11,11.42,11.35,11.39
	c6.16-0.03,11.2-5.07,11.24-11.22c0.04-6.3-5.04-11.4-11.34-11.38C1014.57,1490.28,1009.52,1495.31,1009.46,1501.46z M924.9,1458.65
	c-6.16-0.18-11.35,4.76-11.54,10.89c-0.18,5.77,4.18,11.43,11.09,11.61c6.04,0.16,11.27-4.43,11.52-10.88
	C936.15,1464.14,931.51,1458.84,924.9,1458.65z M1799.53,1533.74c0.09-5.99-5.01-11.05-11.02-11.16
	c-5.42-0.1-11.25,4.05-11.33,11.08c-0.07,6.45,4.91,11.16,11.12,11.29C1794.52,1544.88,1799.44,1540.12,1799.53,1533.74z
	 M1148.4,1544.89c6.15,0.08,11.22-4.97,11.2-11.15c-0.02-6.19-5.09-11.18-11.26-11.09c-6.03,0.09-10.98,5.12-10.96,11.15
	C1137.4,1539.86,1142.32,1544.82,1148.4,1544.89z M2118.6,1437.61c-0.04-6.03-4.82-10.82-10.84-10.86
	c-6.11-0.04-11.03,4.89-10.99,11c0.03,6.02,4.82,10.8,10.86,10.83C2113.81,1448.61,2118.63,1443.78,2118.6,1437.61z
	 M1457.58,1565.38c0.03,5.99,4.87,10.86,10.87,10.84c5.92-0.02,10.68-4.74,10.79-10.62c0.12-6.06-4.9-11.04-10.71-10.94
	C1462.39,1554.46,1457.55,1559.74,1457.58,1565.38z M1436.28,1576.21c5.87-0.01,10.71-4.83,10.79-10.66
	c0.07-5.65-4.6-10.94-10.79-10.9c-6.11,0.04-10.85,4.69-10.85,10.77C1425.24,1570.82,1429.71,1576.22,1436.28,1576.21z
	 M1937.53,1501.64c0.03,5.93,4.75,10.7,10.64,10.75c6,0.05,10.89-4.77,10.91-10.78c0.02-6.04-4.79-10.87-10.81-10.87
	C1942.23,1490.74,1937.5,1495.55,1937.53,1501.64z M1830.77,1533.94c0.12-5.78-4.6-10.89-10.75-10.97c-5.89-0.08-10.89,5-10.84,10.9
	c0.05,5.84,4.9,10.63,10.77,10.65C1825.88,1544.53,1830.65,1539.82,1830.77,1533.94z M2213.99,1377.99c1.7-4.29,0.65-9.14-2.61-12.2
	c-0.7-0.66-1.44-1-2.41-0.99c-3.43,0.03-6.85,0.04-10.28-0.01c-1.08-0.02-1.88,0.39-2.63,1.12c-3.21,3.09-4.2,7.98-2.44,12.24
	c1.67,4.03,5.85,6.78,10.23,6.73C2208.3,1384.83,2212.37,1382.06,2213.99,1377.99z M1521.54,1565.23
	c-0.09,6.04,4.67,10.9,10.7,10.93c6,0.03,10.87-4.84,10.82-10.83c-0.04-5.9-4.8-10.61-10.72-10.63
	C1526.39,1554.69,1521.63,1559.32,1521.54,1565.23z M1489.88,1565.57c0.06,5.93,4.78,10.62,10.71,10.65
	c6.02,0.03,10.84-4.79,10.84-10.81c0-6.07-5.02-10.93-10.88-10.74C1494.47,1554.7,1489.82,1559.46,1489.88,1565.57z M839.9,1437.75
	c0.11-5.91-4.95-10.87-10.88-10.79c-5.84,0.08-10.65,4.97-10.61,10.79c0.04,5.84,4.89,10.64,10.75,10.64
	C835,1448.37,839.78,1443.8,839.9,1437.75z M2182.85,1405.62c0.08-6.01-4.66-10.73-10.5-10.85c-5.99-0.13-10.96,4.71-10.97,10.66
	c-0.02,5.84,4.78,10.67,10.65,10.72C2177.87,1416.22,2182.77,1411.6,2182.85,1405.62z M1393.82,1565.37
	c-0.02,6.01,4.81,10.83,10.82,10.79c5.91-0.04,10.61-4.77,10.63-10.69c0.02-6.07-4.72-10.8-10.8-10.76
	C1398.54,1554.74,1393.84,1559.45,1393.82,1565.37z M1564.61,1554.75c-5.96-0.05-10.7,4.63-10.78,10.58
	c-0.07,5.82,4.52,10.73,10.59,10.77c6.14,0.04,10.74-4.78,10.78-10.58C1575.24,1559.56,1570.55,1554.79,1564.61,1554.75z
	 M989.43,1490.9c-5.09-0.22-10.53,3.33-10.95,10.14c-0.37,6.11,4.4,10.87,10.18,11.19c5.76,0.32,10.88-4.44,11.13-10.29
	C999.96,1496.87,996.29,1491.19,989.43,1490.9z M1372.15,1554.78c-4.8,0.06-10.44,3.69-10.48,10.62
	c-0.04,6.25,4.86,10.69,10.71,10.63c6.62-0.06,10.64-5.33,10.64-10.73C1382.95,1559.44,1378.04,1554.7,1372.15,1554.78z
	 M2054.48,1470.1c0.09-5.98-4.52-10.76-10.47-10.85c-5.98-0.09-10.79,4.53-10.89,10.45c-0.1,5.95,4.55,10.76,10.49,10.85
	C2049.61,1480.63,2054.39,1476.04,2054.48,1470.1z M1127.5,1533.79c-0.02-5.91-4.59-10.7-10.69-10.67
	c-6.28,0.03-10.54,5.11-10.58,10.5c-0.05,5.91,4.67,10.77,10.55,10.82C1122.65,1544.48,1127.52,1539.68,1127.5,1533.79z
	 M740.38,1365.84c-0.69-0.65-1.43-1.05-2.41-1.04c-3.25,0.03-6.5,0.03-9.76,0c-0.98-0.01-1.73,0.36-2.43,0.99
	c-1.88,1.71-3.03,3.83-3.44,6.3c-1.01,6.1,3.53,11.9,9.61,12.46c6.98,0.64,12.11-5,11.96-10.03
	C743.88,1370.62,742.66,1368,740.38,1365.84z M1596.3,1554.9c-5.01-0.04-10.48,3.47-10.62,10.38c-0.12,5.78,4.05,10.42,10.35,10.64
	c5.76,0.2,10.59-4.58,10.66-10.37C1606.76,1559.78,1602.08,1554.94,1596.3,1554.9z M892.9,1459.39c-5.82,0.09-10.48,4.85-10.4,10.64
	c0.08,5.81,4.84,10.46,10.65,10.39c5.83-0.07,10.45-4.81,10.38-10.63C903.46,1463.96,898.69,1459.3,892.9,1459.39z M775.83,1405.51
	c0.03-5.78-4.68-10.59-10.49-10.56c-5.95,0.02-10.52,4.48-10.55,10.47c-0.03,6.54,5.27,10.62,10.45,10.56
	C771.05,1415.99,775.81,1411.29,775.83,1405.51z M1340.74,1575.83c6.87-0.05,10.38-5.62,10.4-10.27c0.02-5.8-4.59-10.56-10.38-10.6
	c-5.79-0.05-10.5,4.63-10.52,10.45C1330.25,1570.99,1334.44,1575.87,1340.74,1575.83z M1628.37,1555.12
	c-5.77,0-10.31,4.54-10.31,10.3c0,5.79,4.51,10.27,10.33,10.26c5.79-0.01,10.34-4.54,10.33-10.28
	C1638.71,1559.69,1634.11,1555.12,1628.37,1555.12z M1862.44,1533.65c-0.05-5.65-4.56-10.12-10.22-10.12
	c-5.68-0.01-10.16,4.42-10.21,10.11c-0.06,5.84,4.41,10.39,10.2,10.39C1857.97,1544.03,1862.5,1539.44,1862.44,1533.65z
	 M1298.24,1565.34c-0.04,5.82,4.45,10.3,10.29,10.27c5.74-0.03,10.06-4.4,10.18-10.12c0.11-5.48-4.47-10.42-10.3-10.3
	C1302.74,1555.21,1298.28,1559.66,1298.24,1565.34z M1980.02,1511.73c6.02-0.04,10.15-5.02,10.12-10.25
	c-0.03-5.56-4.69-10.13-10.27-10.09c-5.61,0.04-10.14,4.63-10.1,10.23C1969.79,1506.93,1974.06,1511.77,1980.02,1511.73z
	 M1074.46,1533.83c0.03,5.58,4.64,10.14,10.23,10.12c5.56-0.02,10.17-4.66,10.15-10.21c-0.02-5.57-4.63-10.11-10.25-10.08
	C1078.95,1523.68,1074.42,1528.23,1074.46,1533.83z M1670.12,1565.63c0.08-5.72-4.29-10.23-10-10.28
	c-5.64-0.05-10.18,4.26-10.14,10.13c0.04,5.99,4.74,9.97,9.99,10C1665.52,1575.51,1670.04,1571.16,1670.12,1565.63z
	 M1286.85,1565.39c-0.09-5.86-4.61-9.96-10-9.98c-5.55-0.01-10.09,4.21-10.1,10.17c-0.01,5.47,4.67,9.9,10.15,9.84
	C1282.43,1575.37,1286.93,1570.87,1286.85,1565.39z M2139.95,1427.64c-4.68-0.03-9.97,3.49-10.05,9.93
	c-0.08,5.91,4.49,10.14,10.09,10.17c5.47,0.03,9.93-4.56,9.92-10.07C2149.89,1432.16,2145.43,1427.68,2139.95,1427.64z
	 M956.75,1491.59c-5.53,0.05-9.94,4.66-9.8,10.17c0.13,5.41,4.58,9.82,9.96,9.76c5.37-0.06,9.81-4.09,9.96-10.05
	C966.6,1495.54,962.19,1491.54,956.75,1491.59z M2076.06,1460c-5.66,0.04-9.97,4.58-9.92,10c0.05,5.22,4.24,9.71,9.86,9.79
	c5.49,0.07,9.98-4.5,9.92-10C2085.86,1464.38,2081.45,1459.97,2076.06,1460z M2233.17,1364.8c-1.35-0.1-2.47,0.36-3.47,1.22
	c-3.23,2.81-4.45,6.29-3.36,10.46c1.07,4.13,4.77,7.07,9.08,7.34c4.33,0.28,8.32-2.33,9.97-6.51c1.53-3.89,0.24-8.59-3.07-11.27
	c-1.02-0.82-2.1-1.35-3.46-1.25c-0.99,0.08-1.99,0.02-2.98,0.02C2234.97,1364.81,2234.06,1364.87,2233.17,1364.8z M806.75,1437.79
	c0.07-5.41-4.32-9.9-9.71-9.95c-5.44-0.05-9.84,4.28-9.89,9.74c-0.06,5.5,4.21,9.87,9.68,9.92
	C802.29,1447.56,806.68,1443.26,806.75,1437.79z M1682.46,1565.4c-0.02,5.48,4.28,9.8,9.77,9.82c5.44,0.02,9.82-4.34,9.83-9.78
	c0.01-5.46-4.34-9.81-9.79-9.81C1686.76,1555.62,1682.48,1559.89,1682.46,1565.4z M2203.76,1395.72c-5.45,0.01-9.78,4.38-9.74,9.83
	c0.04,5.29,4.37,9.64,9.64,9.7c5.42,0.06,9.83-4.3,9.84-9.74C2213.52,1400.01,2209.24,1395.71,2203.76,1395.72z M1234.89,1565.55
	c0.05,5.42,4.25,9.57,9.7,9.58c5.51,0.01,9.82-4.34,9.74-9.84c-0.08-5.41-4.31-9.58-9.73-9.57
	C1239.02,1555.72,1234.83,1559.96,1234.89,1565.55z M1893.55,1533.86c0.05-5.34-4.22-9.7-9.55-9.78c-5.48-0.08-9.84,4.26-9.81,9.75
	c0.03,5.42,4.22,9.59,9.65,9.61C1889.22,1543.45,1893.51,1539.22,1893.55,1533.86z M860.9,1460.24c-5.5-0.04-9.82,4.28-9.76,9.77
	c0.06,5.37,4.33,9.56,9.72,9.54c5.39-0.03,9.61-4.25,9.61-9.64C870.49,1464.52,866.29,1460.28,860.9,1460.24z M699.05,1364.8
	c-2.09-0.27-3.66,0.7-5.06,2.06c-2.85,2.77-3.76,7.44-2.03,10.99c1.82,3.74,4.85,5.73,9.06,5.66c4.09-0.07,7.12-2.02,8.7-5.75
	c1.61-3.78,1.06-7.43-1.72-10.58c-1.43-1.61-3.16-2.67-5.45-2.38c-0.53,0.07-1.08,0.01-1.62,0.01
	C700.3,1364.81,699.67,1364.88,699.05,1364.8z M1053.23,1524.22c-5.35-0.13-9.74,4.11-9.78,9.46c-0.04,5.38,4.22,9.69,9.56,9.68
	c5.24-0.01,9.46-4.22,9.52-9.46C1062.58,1528.63,1058.45,1524.34,1053.23,1524.22z M1734.02,1565.49c0.04-5.27-4.38-9.64-9.68-9.57
	c-5.21,0.07-9.43,4.37-9.4,9.56c0.03,5.19,4.32,9.43,9.52,9.43C1729.65,1574.92,1733.98,1570.65,1734.02,1565.49z M723.54,1405.4
	c-0.04,5.46,4.33,9.58,9.67,9.57c5.17-0.01,9.47-4.45,9.37-9.6c-0.1-5.44-4.37-9.32-9.53-9.47
	C727.46,1396.13,723.57,1400.35,723.54,1405.4z M1212.81,1574.86c5.22,0.07,9.54-4.16,9.58-9.37c0.04-5.12-4.02-9.32-9.17-9.5
	c-5.18-0.18-9.59,4.01-9.71,9.23C1203.4,1570.41,1207.62,1574.79,1212.81,1574.86z M2021.59,1501.39c-0.15-6.11-4.98-9.43-9.64-9.29
	c-5.28,0.15-9.19,4.2-9.2,9.46c-0.01,5.6,4.53,9.5,9.5,9.41C2017,1510.97,2021.74,1507.24,2021.59,1501.39z M915.44,1501.61
	c0.02,5,4.1,9.1,9.1,9.17c5.15,0.07,9.32-4.01,9.35-9.16c0.03-5.18-4.04-9.28-9.2-9.29
	C919.54,1492.33,915.41,1496.47,915.44,1501.61z M1916.3,1524.68c-5.01-0.18-9.24,3.94-9.31,8.95c-0.06,4.95,3.85,9.08,8.75,9.22
	c5.09,0.15,9.31-3.79,9.45-8.8C1925.39,1529.49,1921.8,1524.88,1916.3,1524.68z M1765.17,1565.4c-0.01-5.12-4-9.06-9.13-9.03
	c-4.99,0.03-8.88,3.92-8.94,8.94c-0.06,5.14,3.88,9.16,8.98,9.17C1761.2,1574.48,1765.18,1570.5,1765.17,1565.4z M2163.06,1437.55
	c-0.08,4.97,4.08,9.19,9.06,9.17c5.4-0.03,9.14-4.45,9.06-9.15c-0.08-4.94-4.11-8.91-9.05-8.87
	C2167.2,1428.69,2163.14,1432.66,2163.06,1437.55z M1189.78,1565.45c0.01-5-4.14-9.05-9.16-9.05c-4,0-8.9,3.13-8.94,8.99
	c-0.04,5.6,4.59,9.11,9.14,9.04C1185.72,1574.38,1189.77,1570.32,1189.78,1565.45z M2116.73,1470.09c0.1-5.06-3.96-9.17-9.05-9.17
	c-5,0-8.96,3.93-8.98,8.93c-0.02,5.01,3.88,8.99,8.87,9.03C2112.58,1478.92,2116.63,1475.03,2116.73,1470.09z M2267.72,1364.86
	c-4.03-0.05-8.93,2.88-9.04,8.88c-0.08,4.97,3.72,8.9,8.89,9.03c4.88,0.12,9.02-4.01,9.07-8.88
	C2276.69,1369.01,2272.64,1364.93,2267.72,1364.86z M1020.88,1524.85c-5.56-0.07-9.04,4.45-9.07,8.83
	c-0.03,4.92,3.96,9.06,8.86,9.08c4.32,0.02,8.77-3.09,9.11-8.87C1029.65,1528.76,1025.9,1524.91,1020.88,1524.85z M829.19,1478.69
	c4.86,0.03,8.8-3.98,8.78-8.83c-0.02-4.85-4-8.8-8.84-8.77c-4.85,0.02-8.79,3.99-8.78,8.84
	C820.23,1473.96,823.55,1478.66,829.19,1478.69z M765.27,1428.89c-4.37-0.01-8.77,3.34-8.76,8.82c0.01,5.02,3.93,8.79,8.8,8.77
	c4.87-0.03,8.81-3.96,8.8-8.81C774.11,1432.84,770.13,1428.9,765.27,1428.89z M2227.36,1405.42c-0.02,4.91,3.89,8.78,8.78,8.68
	c4.77-0.09,8.55-3.98,8.48-8.74c-0.07-4.81-3.87-8.54-8.67-8.52C2231.12,1396.86,2227.39,1400.59,2227.36,1405.42z M1796.97,1565.47
	c0.02-4.79-3.74-8.59-8.52-8.68c-4.79-0.09-8.86,3.9-8.75,8.72c0.11,4.82,3.79,8.52,8.65,8.52
	C1793.16,1574.02,1796.94,1570.27,1796.97,1565.47z M669.16,1365.19c-4.79,0.04-8.58,3.82-8.59,8.61c-0.01,4.92,3.89,8.68,8.83,8.62
	c4.84-0.06,8.64-4.17,8.43-8.73C677.95,1369.31,674.16,1365.15,669.16,1365.19z M2043.86,1492.98c-4.84-0.03-8.56,3.72-8.59,8.58
	c-0.03,5.32,4.41,8.51,8.35,8.59c4.74,0.1,8.68-3.73,8.74-8.49C2052.42,1496.83,2048.67,1493.01,2043.86,1492.98z M1140.03,1565.4
	c-0.01,4.73,3.6,8.41,8.32,8.48c4.75,0.07,8.51-3.5,8.64-8.17c0.13-4.8-3.58-8.71-8.33-8.78
	C1143.86,1556.85,1140.04,1560.6,1140.03,1565.4z M884.62,1501.62c0.04,4.47,3.85,8.34,8.34,8.29c5.28-0.05,8.35-4.25,8.42-8.18
	c0.08-4.65-3.69-8.56-8.31-8.58C888.48,1493.13,884.57,1497.04,884.62,1501.62z M1939.93,1533.6c-0.13,4.01,2.71,8.47,8.3,8.54
	c5.18,0.06,8.41-4.06,8.41-8.43c-0.01-4.57-3.72-8.24-8.3-8.26C1944.33,1525.38,1940.11,1528.34,1939.93,1533.6z M709.21,1405.65
	c0.03-4.84-3.6-8.48-8.3-8.58c-4.6-0.09-8.46,3.83-8.43,8.46c0.03,4.53,3.76,8.25,8.31,8.29
	C705.32,1413.85,709.18,1410.19,709.21,1405.65z M989.36,1525.59c-4.58-0.17-8.37,3.49-8.43,8.08c-0.05,4.53,3.4,8.14,7.92,8.3
	c4.59,0.16,8.37-3.45,8.46-8.06C997.23,1528.93,993.58,1525.74,989.36,1525.59z M1811.88,1565.25c-0.09,4.5,3.37,8.13,7.87,8.26
	c4.62,0.13,8.33-3.44,8.35-8.05c0.02-4.53-3.46-8.06-8-8.12C1815.58,1557.28,1811.97,1560.75,1811.88,1565.25z M2211.74,1437.65
	c-0.01-4.35-3.58-7.93-7.93-7.95c-4.46-0.02-8.07,3.67-7.97,8.17c0.09,4.36,3.71,7.87,8.06,7.81
	C2208.22,1445.63,2211.75,1442.02,2211.74,1437.65z M1124.84,1565.53c0.05-4.5-3.54-8.07-8.07-8.04c-4.41,0.03-7.87,3.53-7.86,7.95
	c0.01,4.41,3.5,7.89,7.91,7.9C1121.25,1573.35,1124.8,1569.89,1124.84,1565.53z M2140,1461.95c-4.53-0.04-8.08,3.52-8.04,8.05
	c0.04,4.41,3.54,7.85,7.97,7.85c4.41-0.01,7.88-3.49,7.89-7.91C2147.83,1465.5,2144.39,1461.98,2140,1461.95z M1436.24,1589.74
	c-4.36-0.02-7.96,3.57-7.94,7.92c0.01,4.24,3.47,7.77,7.72,7.87c4.36,0.11,7.99-3.4,8.05-7.78
	C1444.11,1593.34,1440.61,1589.75,1436.24,1589.74z M1508.51,1597.5c-0.06-4.26-3.55-7.73-7.81-7.76c-4.37-0.04-7.94,3.51-7.94,7.9
	c0,4.39,3.56,7.93,7.94,7.9C1505.07,1605.5,1508.58,1601.89,1508.51,1597.5z M1468.41,1589.74c-4.27,0-7.74,3.43-7.82,7.72
	c-0.08,4.43,3.36,8.02,7.74,8.08c4.33,0.05,8-3.55,8.02-7.86C1476.38,1593.36,1472.75,1589.74,1468.41,1589.74z M1532.43,1589.84
	c-4.58-0.08-8.04,3.53-7.97,7.85c0.08,5.19,4.38,7.78,7.81,7.77c4.24-0.02,7.79-3.49,7.84-7.74
	C1540.06,1593.82,1537.19,1589.93,1532.43,1589.84z M1396.74,1597.35c-0.16,4.24,3.22,7.91,7.46,8.09c4.37,0.19,8.08-3.28,8.17-7.65
	c0.09-4.26-3.31-7.82-7.6-7.95C1400.52,1589.71,1396.89,1593.1,1396.74,1597.35z M797.05,1477.63c4.22,0.02,7.69-3.64,7.62-7.85
	c-0.07-4.23-3.68-7.81-7.86-7.62c-4.52,0.2-7.58,3.54-7.62,7.85C789.38,1474.61,792.85,1477.61,797.05,1477.63z M1556.81,1597.42
	c-0.13,5.02,3.86,7.78,7.29,7.94c4.26,0.2,8-3.08,8.16-7.37c0.16-4.37-3.2-7.94-7.46-8.06
	C1560.5,1589.76,1556.93,1592.97,1556.81,1597.42z M2292.21,1373.75c-0.04,4.25,3.48,7.77,7.72,7.72c4.27-0.04,7.68-3.58,7.56-7.85
	c-0.11-4.2-3.5-7.48-7.69-7.44C2295.63,1366.22,2292.24,1369.6,2292.21,1373.75z M1372.28,1590.01c-4.17,0.03-7.55,3.39-7.59,7.55
	c-0.04,4.14,3.31,7.62,7.44,7.73c4.26,0.11,7.8-3.31,7.83-7.57C1380,1593.41,1376.58,1589.99,1372.28,1590.01z M733.45,1430.06
	c-4.11-0.25-7.8,3.05-8.02,7.18c-0.23,4.3,3.08,7.93,7.38,8.09c4.16,0.16,7.7-3.13,7.88-7.32
	C740.86,1433.81,737.68,1430.32,733.45,1430.06z M2068.39,1501.62c0.03,4.15,3.42,7.52,7.59,7.56c4.17,0.04,7.59-3.28,7.68-7.45
	c0.1-4.29-3.3-7.8-7.58-7.83C2071.83,1493.88,2068.35,1497.36,2068.39,1501.62z M1987.46,1533.74c0.02-4.1-3.27-7.44-7.36-7.53
	c-4.18-0.09-7.65,3.28-7.7,7.47c-0.04,4.25,3.26,7.6,7.5,7.62C1983.62,1541.49,1987.44,1538.43,1987.46,1533.74z M1852.15,1557.91
	c-4.25,0.02-7.53,3.37-7.47,7.64c0.06,4.12,3.33,7.37,7.45,7.41c4.26,0.04,7.59-3.26,7.59-7.53
	C1859.71,1561.13,1856.45,1557.89,1852.15,1557.91z M1333.23,1597.46c-0.08,4.23,3.27,7.67,7.46,7.67c4.09,0,7.37-3.31,7.39-7.45
	c0.02-4.17-3.18-7.47-7.3-7.51C1336.66,1590.12,1333.31,1593.36,1333.23,1597.46z M1596.21,1590.17c-4.19-0.03-7.54,3.33-7.5,7.55
	c0.03,4.06,3.34,7.36,7.39,7.42c3.49,0.06,7.64-2.89,7.48-7.58C1603.54,1593.43,1600.32,1590.19,1596.21,1590.17z M2275.05,1405.73
	c0.14-4.06-3.07-7.51-7.12-7.65c-4.07-0.14-7.51,3.03-7.69,7.09c-0.17,4.07,3.03,7.49,7.13,7.6
	C2271.55,1412.89,2274.91,1409.8,2275.05,1405.73z M956.96,1526.41c-4.11-0.03-7.42,3.22-7.43,7.32c-0.02,4.1,3.25,7.42,7.32,7.45
	c4.09,0.03,7.39-3.23,7.42-7.33C964.3,1529.72,961.08,1526.44,956.96,1526.41z M853.48,1501.54c-0.01,4.17,3.18,7.37,7.34,7.36
	c4.14-0.01,7.37-3.24,7.36-7.36c-0.01-4.08-3.32-7.41-7.37-7.42C856.75,1494.11,853.49,1497.42,853.48,1501.54z M1084.7,1558.05
	c-4.11-0.03-7.41,3.2-7.45,7.3c-0.04,4.09,3.21,7.41,7.3,7.45c4.14,0.04,7.37-3.15,7.4-7.3
	C1091.98,1561.32,1088.82,1558.08,1084.7,1558.05z M637.32,1366.52c-4.08-0.17-7.53,3.02-7.65,7.09c-0.12,4.03,3.19,7.49,7.23,7.54
	c3.97,0.05,7.23-3.12,7.33-7.12C644.33,1369.98,641.3,1366.68,637.32,1366.52z M1621.03,1597.88c0.08,3.88,3.59,7.21,7.45,7.07
	c4.4-0.15,7.33-3.73,7.19-7.56c-0.14-3.92-3.51-7.16-7.41-7.09C1623.83,1590.47,1620.95,1594.15,1621.03,1597.88z M1308.36,1604.87
	c3.93,0.06,7.28-3.18,7.35-7.12c0.07-3.92-3.17-7.26-7.12-7.33c-3.94-0.08-7.26,3.14-7.33,7.11
	C1301.18,1601.46,1304.41,1604.81,1308.36,1604.87z M676.31,1405.49c0.01-4.04-3.24-7.22-7.28-7.14c-3.9,0.08-7,3.3-6.95,7.21
	c0.05,3.91,3.26,7.05,7.15,7.02C673.17,1412.54,676.3,1409.4,676.31,1405.49z M1659.94,1590.6c-3.86,0.04-7.04,3.34-6.94,7.19
	c0.09,3.79,3.21,6.84,7,6.86c3.93,0.02,7.08-3.13,7.05-7.05C1667.03,1593.68,1663.85,1590.56,1659.94,1590.6z M1890.73,1565.41
	c-0.02-3.91-2.97-6.9-6.83-6.91c-3.95-0.02-7.05,3.11-6.99,7.05c0.05,3.82,3.11,6.77,7,6.75
	C1887.82,1572.28,1890.74,1569.33,1890.73,1565.41z M1283.64,1597.48c-0.08-3.69-3.11-6.7-6.76-6.73c-3.73-0.04-6.92,3.14-6.93,6.88
	c0,3.79,3.09,6.83,6.94,6.79C1280.76,1604.39,1283.72,1601.35,1283.64,1597.48z M1698.97,1597.76c0.08-3.81-2.9-6.74-6.54-6.92
	c-3.67-0.19-6.99,3.09-7,6.79c-0.01,3.66,3.01,6.68,6.73,6.72C1695.95,1604.38,1698.89,1601.52,1698.97,1597.76z M2172.25,1463.13
	c-3.77-0.07-6.94,3.07-6.9,6.84c0.04,3.67,3.1,6.69,6.77,6.69c3.7,0,6.69-2.98,6.72-6.7
	C2178.88,1466.25,2175.93,1463.2,2172.25,1463.13z M1046.3,1565.53c0.19,4.19,3.41,6.62,6.87,6.55c3.6-0.07,6.53-3.06,6.48-6.64
	c-0.06-4.04-3.11-6.59-6.71-6.73C1049.32,1558.74,1046.13,1561.93,1046.3,1565.53z M2012.27,1540.46c4.01-0.06,6.63-3.3,6.59-6.85
	c-0.04-3.56-3.05-6.46-6.65-6.48c-3.71-0.03-6.74,2.99-6.71,6.69C2005.51,1536.89,2007.87,1540.53,2012.27,1540.46z M765.43,1463.3
	c-3.54-0.1-6.57,2.79-6.7,6.39c-0.14,3.66,2.9,6.81,6.56,6.8c3.54-0.01,6.56-2.99,6.6-6.53C771.94,1466.43,769,1463.4,765.43,1463.3
	z M2101.13,1501.62c-0.04,3.57,3.09,6.63,6.64,6.47c3.82-0.17,6.49-2.91,6.46-6.63c-0.03-3.66-2.95-6.5-6.62-6.46
	C2104.1,1495.02,2101.18,1497.72,2101.13,1501.62z M2242.57,1437.67c0-3.53-2.99-6.54-6.53-6.56c-3.68-0.02-6.71,3.06-6.62,6.73
	c0.09,3.58,3.07,6.45,6.65,6.41C2239.62,1444.22,2242.57,1441.23,2242.57,1437.67z M700.84,1431.21c-3.64,0.01-6.49,2.95-6.42,6.62
	c0.07,3.65,3.04,6.45,6.7,6.31c3.51-0.13,6.23-3.05,6.16-6.6C707.21,1434,704.36,1431.21,700.84,1431.21z M1244.67,1591.19
	c-3.64-0.04-6.55,2.87-6.53,6.51c0.03,3.64,2.99,6.5,6.63,6.39c3.54-0.1,6.28-2.96,6.25-6.5
	C1251,1594.05,1248.19,1591.23,1244.67,1591.19z M1724.49,1591.19c-3.61-0.01-6.54,2.97-6.47,6.57c0.07,3.52,2.92,6.32,6.43,6.33
	c3.61,0.01,6.52-2.95,6.46-6.57C1730.86,1594.01,1728,1591.2,1724.49,1591.19z M931.02,1533.78c0.01-3.55-2.77-6.31-6.34-6.31
	c-3.58,0-6.34,2.76-6.33,6.31c0.01,3.57,2.78,6.34,6.33,6.34C928.22,1540.12,931.01,1537.32,931.02,1533.78z M1922.36,1565.5
	c0.04-3.52-2.79-6.34-6.33-6.32c-3.58,0.02-6.23,2.8-6.15,6.44c0.08,3.49,2.77,6.08,6.26,6.05
	C1919.56,1571.63,1922.32,1568.89,1922.36,1565.5z M822.97,1501.56c0,3.55,2.61,6.16,6.16,6.17c3.62,0.01,6.39-2.79,6.29-6.36
	c-0.1-3.4-2.95-6.15-6.34-6.11C825.64,1495.31,822.96,1498.07,822.97,1501.56z M2331.69,1367.74c-3.28-0.11-6.09,2.53-6.22,5.84
	c-0.14,3.4,2.62,6.31,6.01,6.35c3.22,0.04,6.04-2.73,6.11-5.99C2337.65,1370.65,2334.97,1367.84,2331.69,1367.74z M1212.73,1591.71
	c-3.21,0.11-5.8,2.82-5.75,6.01c0.05,3.19,2.74,5.85,5.92,5.87c3.33,0.02,6.02-2.7,5.98-6.04
	C1218.83,1594.19,1216.1,1591.6,1212.73,1591.71z M2043.81,1527.95c-3.26,0.01-5.77,2.58-5.84,5.83c-0.06,2.91,2.54,5.89,5.84,5.83
	c3.3-0.06,5.79-2.52,5.8-5.84C2049.62,1530.49,2047.08,1527.95,2043.81,1527.95z M2299.87,1399.63c-3.25-0.01-5.82,2.55-5.83,5.82
	c-0.01,3.28,2.52,5.81,5.81,5.81c3.31,0,5.82-2.49,5.81-5.79C2305.67,1402.18,2303.14,1399.64,2299.87,1399.63z M1026.53,1565.49
	c0.04-3.22-2.63-5.85-5.89-5.79c-3.18,0.05-5.58,2.56-5.56,5.79c0.02,3.21,2.49,5.67,5.68,5.66
	C1023.91,1571.14,1026.5,1568.6,1026.53,1565.49z M1761.8,1595.25c-0.59-1.39-1.56-2.43-2.89-3.1c-2.6-1.3-5.82-0.59-7.6,1.64
	c-1.88,2.36-1.8,5.17,0.21,7.6c3.38-0.76,6.92-0.61,10.35-1.75C1762.47,1597.38,1762.44,1596.75,1761.8,1595.25z M2139.9,1496.17
	c-3.04,0.01-5.49,2.55-5.39,5.59c0.1,2.92,2.6,5.27,5.52,5.19c2.91-0.08,5.32-2.57,5.27-5.46
	C2145.26,1498.55,2142.82,1496.16,2139.9,1496.17z M1180.82,1592.25c-3.01-0.05-5.55,2.49-5.48,5.5c0.07,2.94,2.5,5.3,5.43,5.27
	c2.92-0.03,5.33-2.45,5.34-5.36C1186.13,1594.76,1183.72,1592.3,1180.82,1592.25z M2209.15,1469.92c0.01-3.12-2.43-5.49-5.55-5.39
	c-3,0.1-5.27,2.49-5.2,5.48c0.07,2.99,2.45,5.3,5.43,5.27C2206.83,1475.25,2209.14,1472.93,2209.15,1469.92z M893.24,1528.56
	c-3.05-0.11-5.44,2.14-5.47,5.14c-0.03,2.86,2.21,5.24,5.03,5.35c2.98,0.12,5.39-2.17,5.45-5.18
	C898.3,1530.92,896.17,1528.67,893.24,1528.56z M801.96,1501.53c-0.02-2.76-2.22-4.96-4.99-4.96c-2.84-0.01-5.23,2.4-5.12,5.15
	c0.11,2.66,2.49,4.9,5.17,4.85C799.76,1506.52,801.98,1504.26,801.96,1501.53z M2267.8,1432.68c-2.75-0.08-5.02,2.03-5.14,4.79
	c-0.12,2.87,2.13,5.24,4.97,5.24c2.7,0.01,5-2.24,5.05-4.94C2272.73,1435.07,2270.51,1432.76,2267.8,1432.68z M734.65,1474.36
	c0.61,0.43,1.36,0.3,1.98-0.26c1.66-1.54,2.34-3.41,1.74-5.61c-0.59-2.17-2.05-3.57-4.29-4c-2.12-0.4-3.95,0.26-5.26,1.96
	c-0.58,0.75-0.88,1.73-1.38,2.77C729.78,1471.41,732.33,1472.73,734.65,1474.36z M993.84,1565.42c-0.01-2.6-1.97-4.64-4.54-4.73
	c-2.69-0.1-4.86,1.92-4.93,4.61c-0.08,2.68,1.98,4.82,4.67,4.86C991.75,1570.18,993.85,1568.11,993.84,1565.42z M1148.63,1592.91
	c-2.67-0.09-4.87,2.05-4.86,4.74c0,2.71,2.17,4.81,4.87,4.72c2.61-0.08,4.6-2.13,4.6-4.73
	C1153.23,1595.04,1151.24,1592.99,1148.63,1592.91z M1945.46,1566.33c2.26-0.49,4.42-1.42,6.77-1.57c0.54-0.03,1.05-0.57,1.56-0.87
	c-1.49-3.43-4.08-4.87-7.07-4.01c-1.44,0.42-2.58,1.29-3.35,2.58c-0.7,1.18-1.07,2.45-0.58,3.8
	C1944.42,1566.62,1944.4,1566.56,1945.46,1566.33z M864.84,1533.59c-0.09-2.18-1.87-3.86-4.07-3.84c-2.32,0.02-4.06,1.86-3.97,4.19
	c0.09,2.19,1.87,3.89,4.05,3.86C863.13,1537.78,864.93,1535.88,864.84,1533.59z M2363.99,1369.79c-2.34-0.13-4.2,1.58-4.24,3.91
	c-0.05,2.25,1.57,4.06,3.73,4.18c2.23,0.13,4.23-1.71,4.31-3.94C2367.86,1371.8,2366.13,1369.91,2363.99,1369.79z M2331.67,1401.46
	c-2.3-0.08-4.17,1.7-4.19,3.98c-0.02,2.29,1.81,4.06,4.14,4c2.22-0.05,3.89-1.75,3.9-3.96
	C2335.53,1403.28,2333.87,1401.54,2331.67,1401.46z M1117.12,1593.67c-2.35-0.13-4.19,1.54-4.26,3.84
	c-0.06,2.23,1.53,3.99,3.72,4.12c2.32,0.13,4.2-1.56,4.28-3.85C1120.94,1595.58,1119.31,1593.79,1117.12,1593.67z M956.97,1561.7
	c-2.04-0.04-3.8,1.68-3.81,3.72c-0.01,1.93,1.58,3.6,3.54,3.72c2.05,0.12,3.85-1.52,3.91-3.58
	C960.67,1563.49,959.02,1561.74,956.97,1561.7z M1408.32,1630.23c0.09-0.25,0.14-0.53,0.14-0.79c0.06-2.26-1.9-4.16-4.15-4.02
	c-2.13,0.14-3.87,2.12-3.69,4.21c0.11,1.2,0.67,1.81,1.86,1.84c1.7,0.04,3.4,0.01,5.25,0.01
	C1408.03,1630.87,1408.21,1630.56,1408.32,1630.23z M1372.47,1632.15c0.27,0,0.54,0.01,0.81,0c1.4-0.07,2.16-0.68,2.46-2.02
	c0.34-1.46-0.13-2.67-1.26-3.62c-0.96-0.81-2.69-0.95-3.83-0.31c-1.21,0.68-1.8,1.74-1.78,3.12c0.03,1.77,0.94,3.08,2.77,2.85
	C1371.92,1632.12,1372.2,1632.15,1372.47,1632.15C1372.47,1632.15,1372.47,1632.15,1372.47,1632.15z M1438.38,1625.91
	c-1.46-0.93-3.52-0.85-4.76,0.33c-0.56,0.53-1.01,1.27-1.28,2c-0.31,0.84-0.35,1.77,0.51,2.67c2.26-0.01,4.66,0.28,7-0.19
	C1440.37,1628.26,1439.92,1626.88,1438.38,1625.91z M1084.77,1594.31c-1.89-0.08-3.45,1.44-3.45,3.34c0,1.82,1.37,3.24,3.19,3.3
	c1.92,0.07,3.46-1.4,3.46-3.31C1087.97,1595.85,1086.56,1594.38,1084.77,1594.31z M1784.12,1596.53c0.44-0.04,0.87-0.17,1.31-0.25
	c0.52-0.11,1.04-0.24,1.57-0.31c1.77-0.22,3.55-0.39,5.32-0.62c0.68-0.09,0.92-0.91,0.47-1.46c-3.06-3.66-8.71-2.15-9.88,1.74
	c-0.06,0.21,0.06,0.49,0.11,0.8C1783.42,1596.48,1783.78,1596.56,1784.12,1596.53z M1472.48,1629.38c0.29-1.29-0.37-2.25-1.19-3.12
	c-0.79-0.83-1.83-1.13-2.95-1.11c-1.12,0.01-2.13,0.39-2.91,1.21c-0.85,0.89-1.27,1.91-0.99,3.14
	C1467.15,1629.96,1470.63,1629.9,1472.48,1629.38z M1340.61,1631.48c0.54,0,1.07,0.03,1.61-0.01c1.08-0.07,1.63-0.58,1.78-1.61
	c0.2-1.48-0.34-2.63-1.58-3.43c-1.07-0.68-2.2-0.72-3.3-0.09c-1.28,0.73-1.88,1.86-1.73,3.35c0.12,1.2,0.64,1.7,1.9,1.78
	C1339.72,1631.51,1340.17,1631.48,1340.61,1631.48C1340.61,1631.48,1340.61,1631.48,1340.61,1631.48z M1309.99,1626.78
	c-1.04-0.67-2.58-0.57-3.48,0.36c-0.42,0.43-0.76,1.02-0.91,1.59c-0.18,0.68-0.19,1.44,0.56,2.04c1.52,0.26,3.11,0.27,4.84-0.05
	C1311.54,1628.55,1311.28,1627.61,1309.99,1626.78z M2079.1,1530.7c0.1-0.04,0.12-0.3,0.25-0.63c-1.33-1.2-2.89-1.62-4.64-1.11
	c-1.85,0.54-3.1,1.71-3.51,3.93C2074.19,1532.68,2076.61,1531.56,2079.1,1530.7z M1504.42,1627.72c-0.81-1.95-2.16-2.92-3.97-2.79
	c-1,0.07-1.92,0.43-2.67,1.11c-0.51,0.47-1.11,0.93-0.89,1.78C1499.29,1628.27,1502.59,1628.23,1504.42,1627.72z M1053.13,1595.22
	c-1.48-0.08-2.59,0.96-2.6,2.42c0,1.34,0.97,2.37,2.31,2.44c1.43,0.08,2.6-1.01,2.6-2.43
	C1055.45,1596.32,1054.47,1595.29,1053.13,1595.22z M2236.9,1465.83c-1.09-0.23-2.13-0.09-3.1,0.5c-1.57,0.96-2.15,2.46-1.42,4.09
	c2.26-0.79,4.29-2.02,6.4-3.15C2238.46,1466.21,2237.68,1466,2236.9,1465.83z M926.97,1564.74c-0.61-1.89-2.57-2.36-4.08-1.01
	c-0.45,0.4-0.42,1.17,0.15,1.34c1.24,0.37,2.35,1.36,3.94,0.91C926.99,1565.58,927.1,1565.12,926.97,1564.74z M1279.27,1629.06
	c0.18-1.04-0.32-1.58-0.93-1.94c-0.51-0.3-1.16-0.57-1.73-0.53c-0.57,0.04-1.17,0.41-1.65,0.78c-0.49,0.38-0.85,0.93-0.55,1.72
	C1276.03,1629.32,1277.66,1629.37,1279.27,1629.06z M1529.36,1626.4c0.9-0.2,1.55-0.41,2.22-0.48c0.79-0.07,1.6-0.02,3.03-0.02
	C1532.26,1624.35,1531.02,1624.53,1529.36,1626.4z M2169.81,1498.52c0.64-0.1,1.28-0.18,1.62-0.95
	C2170.08,1497.68,2170.08,1497.68,2169.81,1498.52z M1244.84,1627.23c-0.07-0.04-0.15-0.12-0.21-0.11
	c-0.13,0.03-0.25,0.11-0.37,0.17c0.07,0.04,0.14,0.08,0.22,0.12C1244.59,1627.35,1244.72,1627.29,1244.84,1627.23z"/>
</svg>
