<?xml version="1.0" encoding="utf-8"?>
<!-- Generator: Adobe Illustrator 24.0.1, SVG Export Plug-In . SVG Version: 6.00 Build 0)  -->
<svg version="1.1" id="Layer_1" xmlns="http://www.w3.org/2000/svg" xmlns:xlink="http://www.w3.org/1999/xlink" x="0px" y="0px"
	 viewBox="0 0 3062.36 1989.52" style="enable-background:new 0 0 3062.36 1989.52;" xml:space="preserve">
<style type="text/css">
	.st0{fill:#D39D71;}
	.st1{fill:#EAB888;}
	.st2{fill:#A8D29F;}
	.st3{fill:#699FF0;}
	.st4{fill:#F1A34F;}
	.st5{fill:#2B478B;}
	.st6{fill:#B74B42;}
	.st7{fill:#2A4E96;}
	.st8{fill:#C65447;}
	.st9{fill:#233862;}
	.st10{fill:#FFB27D;}
	.st11{fill:#5794DD;}
	.st12{fill:#E8945B;}
	.st13{fill-rule:evenodd;clip-rule:evenodd;fill:#F28C71;}
	.st14{fill-rule:evenodd;clip-rule:evenodd;fill:#111120;}
	.st15{fill-rule:evenodd;clip-rule:evenodd;fill:#F38C71;}
	.st16{clip-path:url(#SVGID_2_);}
	.st17{fill-rule:evenodd;clip-rule:evenodd;fill:#009DFD;}
	.st18{clip-path:url(#SVGID_4_);}
	.st19{clip-path:url(#SVGID_6_);}
	.st20{clip-path:url(#SVGID_8_);}
	.st21{fill:#FFD24D;}
	.st22{fill-rule:evenodd;clip-rule:evenodd;fill:#FFFBFC;}
	.st23{fill:#FFFBFC;}
	.st24{fill:#8CB7EA;}
	.st25{fill:#98C6F4;}
	.st26{fill:#D9935C;}
	.st27{fill:#CC8250;}
	.st28{opacity:0.4;fill:#D86713;}
	.st29{fill:#B64C41;}
	.st30{fill:#AA413E;}
	.st31{fill:#CB7D45;}
	.st32{fill:#466AA5;}
	.st33{opacity:0.8;fill:#D2E4FF;stroke:#000000;stroke-width:3.5075;stroke-miterlimit:10;}
	.st34{fill:#1C3051;}
	.st35{fill:#FFFFFF;}
	.st36{fill:#88B374;}
	.st37{fill:#ACD29A;}
	.st38{fill:#ED985F;}
	.st39{fill:#AB7041;}
	.st40{fill:url(#SVGID_9_);}
	.st41{fill:url(#SVGID_10_);}
	.st42{fill:url(#SVGID_11_);}
	.st43{fill:url(#SVGID_12_);}
	.st44{fill:url(#SVGID_13_);}
	.st45{fill:url(#SVGID_14_);}
	.st46{fill:url(#SVGID_15_);}
	.st47{fill:url(#SVGID_16_);}
	.st48{fill:url(#SVGID_17_);}
	.st49{fill:url(#SVGID_18_);}
	.st50{fill:url(#SVGID_19_);}
	.st51{fill:url(#SVGID_20_);}
	.st52{fill:url(#SVGID_21_);}
	.st53{fill:url(#SVGID_22_);}
	.st54{fill:url(#SVGID_23_);}
	.st55{fill:url(#SVGID_24_);}
	.st56{fill:url(#SVGID_25_);}
	.st57{fill:url(#SVGID_26_);}
	.st58{fill:#E7F3FE;}
	.st59{fill:#A2DFF2;}
	.st60{fill:#96CFE0;}
	.st61{fill:#F37168;}
	.st62{fill:#2E5B9A;}
	.st63{fill:#F09959;}
	.st64{fill:#E38540;}
	.st65{fill:#75A1DE;}
	.st66{fill:#A86B48;}
	.st67{fill:#3E6BAB;}
	.st68{fill:#F0CEB4;}
	.st69{fill:#F7A96F;}
	.st70{fill:#A8CEFF;}
	.st71{fill:#6695D6;}
	.st72{fill:#303C60;}
	.st73{fill:#D54A41;}
	.st74{fill:#F39892;}
	.st75{fill:#9EC8FF;}
	.st76{fill:#3E2723;}
	.st77{fill:#09121F;}
	.st78{fill:#112D4E;}
	.st79{fill:#6F7046;}
	.st80{fill:#AB7361;}
	.st81{fill:#96513C;}
	.st82{fill:#515233;}
	.st83{fill:#98995F;}
	.st84{fill:#7A7A4C;}
	.st85{fill:#F5E8D0;}
	.st86{fill:#212121;}
	.st87{fill:#E53935;}
	.st88{fill:#B71C1C;}
	.st89{opacity:0.5;fill:url(#SVGID_27_);}
	.st90{fill:#DA935B;}
	.st91{fill:#CB8757;}
	.st92{fill:#E58435;}
	.st93{fill:#DBA763;}
	.st94{fill:#E8B679;}
	.st95{fill:#FFE1C0;}
	.st96{fill:#2A3742;}
	.st97{fill:#3C4D56;}
	.st98{fill:#1B2630;}
	.st99{fill:#FF514D;}
	.st100{fill:#61E2C0;}
	.st101{fill:#3FAF94;}
	.st102{fill:#4DC5AC;}
	.st103{fill:#C1AEB6;}
	.st104{fill:#EADCE1;}
	.st105{fill:#9B8790;}
	.st106{fill:#FFAD97;}
	.st107{fill:#ED3A3A;}
	.st108{fill:#FFC5B3;}
	.st109{fill:#111120;}
	.st110{fill-rule:evenodd;clip-rule:evenodd;fill:#FF8E80;}
	.st111{clip-path:url(#SVGID_29_);fill-rule:evenodd;clip-rule:evenodd;fill:#009DFD;}
	.st112{clip-path:url(#SVGID_29_);}
	.st113{clip-path:url(#SVGID_31_);fill-rule:evenodd;clip-rule:evenodd;fill:#009DFD;}
	.st114{fill:#007BD3;}
	.st115{fill-rule:evenodd;clip-rule:evenodd;fill:#FF7F38;}
	.st116{clip-path:url(#SVGID_33_);fill-rule:evenodd;clip-rule:evenodd;fill:#111120;}
	.st117{fill:#FF7F38;}
	.st118{fill-rule:evenodd;clip-rule:evenodd;fill:none;stroke:#FFFFFF;stroke-width:1.2586;stroke-miterlimit:10;}
</style>
<g>
	<g>
		<g transform="matrix(-0.95283,-0.641746,0.63724,-0.95283,15.1452,659.436)">
			<g transform="matrix(-0.53464,0.5406,0.541107,0.653708,225.636,51.5574)">
				<g>
					<path class="st13" d="M2071.19-1151.89c11.99-14.7,117.98,84.72,124.99,93.32c9.3,11.42,54.83,108.86,57.78,120.93
						c7.52,44.51-65.18,44.36-86.73,8.3c0,0-11.01-75.34-20.28-95.99C2129.61-1029.12,2058.74-1142.41,2071.19-1151.89z"/>
				</g>
			</g>
			<g transform="matrix(0.974055,-0.67328,-0.5167,-0.942129,126.469,681.441)">
				<path class="st13" d="M-1110,1055.71c0.92-0.14,11.32,12.63,12.25,13.42c3.52,2.99,5.21,3.97,9.29,5.56
					c3.6,1.41,3.13-0.28,4.83,0.32c0.36,0.13-0.1,1.61-2.32,3.13c-2.97,2.02-5.48,0.2-5.37,0.36c2.73,4.03,12.85,17.73,10.9,19.61
					c-1.03,1-11.86-14.74-11.79-14.52c0.58,1.82,4.86,12.13,6.68,15.83c1.77,3.59,1.37,4.33,1.26,4.83c-0.11,0.5-1.24-0.69-1.9-1.84
					c-2.11-3.69-9.36-14.79-9.98-16.22c-0.13-0.29,4.1,12.69,5,17.7c0.61,3.36,0.28,6.12-1.99,0.98c-1.61-3.66-2.64-7.75-3.91-11.75
					c-0.57-1.79-2.05-4.77-2.62-6.55c-0.25-0.78,1.11,8.57,1.34,11.92c0.13,1.9,0.09,3.51-0.18,5.44c-0.14,1.01-1.45,0.07-1.72-1.49
					c-0.65-3.71-0.98-8.48-2.44-11.83c-1.43-3.29-7.17-17.99-11.92-22.9C-1116.77,1065.43-1110,1055.71-1110,1055.71z"/>
			</g>
		</g>
		<path class="st14" d="M1841.02,950.46c0,0-53.36,8.24-62.26,28.77c-8.91,20.53-12.86,100.01-12.86,100.01l61.39,1.55
			c0,0,25.88-49.37,28.68-87.72C1857.34,974.38,1852.2,963.37,1841.02,950.46z"/>
	</g>
	<g transform="matrix(1.05248,0.0115237,-0.00869294,1.30168,-10.8602,-192.77)">
		<g transform="matrix(0.992082,0.124644,-0.157979,0.948364,4.42075,48.9373)">
			<path class="st15" d="M1848.35,739.73c0,0-1.73,53.59-1.5,94.94c0.23,40.41,3.94,84.64,40.3,128.08
				c9.41,11.24,25.77,97.61,28.47,137.39c0.51,7.64-32.66,48.81-50.88,60.31c0,0,18.46,4.18,45.04-8.26
				c14.97-7.01,25.85-25.32,32.22-30.97c7.8-6.91-4.37-15.09-3.16-21.23c5.55-28.14,30.79-64.73,23.71-102.67
				c-2.61-13.97-20.98-37.97-30.07-47.72c0,0,14.18-157.49-21.52-188.49C1894.94,747.19,1848.35,739.73,1848.35,739.73z"/>
			<g>
				<defs>
					<path id="SVGID_1_" d="M1848.35,739.73c0,0-1.73,53.59-1.5,94.94c0.23,40.41,3.94,84.64,40.3,128.08
						c9.41,11.24,25.77,97.61,28.47,137.39c0.51,7.64-32.66,48.81-50.88,60.31c0,0,18.46,4.18,45.04-8.26
						c14.97-7.01,25.85-25.32,32.22-30.97c7.8-6.91-4.37-15.09-3.16-21.23c5.55-28.14,30.79-64.73,23.71-102.67
						c-2.61-13.97-20.98-37.97-30.07-47.72c0,0,14.18-157.49-21.52-188.49C1894.94,747.19,1848.35,739.73,1848.35,739.73z"/>
				</defs>
				<clipPath id="SVGID_2_">
					<use xlink:href="#SVGID_1_"  style="overflow:visible;"/>
				</clipPath>
				<g class="st16">
					<g transform="matrix(0.741813,-0.104521,0.130836,0.782002,23.0318,99.6524)">
						<path class="st17" d="M2322.86,1177.75h-104.67l-12.66,393.42h163.77L2322.86,1177.75z"/>
						<g>
							<defs>
								<polygon id="SVGID_3_" points="2322.86,1177.75 2218.19,1177.75 2205.54,1571.17 2369.31,1571.17 								"/>
							</defs>
							<clipPath id="SVGID_4_">
								<use xlink:href="#SVGID_3_"  style="overflow:visible;"/>
							</clipPath>
							<g class="st18">
								<g transform="matrix(1,0,-3.00721e-17,1.02782,-1.08424e-14,2.21277)">
									<path class="st14" d="M2281.55,1216.37c1.65-15.81,2.74-31.8,4.43-47.71c1.13-10.6,2.43-21.17,4.86-31.61
										c0.04-0.15-0.09-0.31-0.29-0.34c-0.2-0.03-0.4,0.07-0.44,0.23c-2.82,10.41-4.78,20.96-6.03,31.59
										c-1.86,15.91-2.28,31.95-3.69,47.77c-0.02,0.25,0.21,0.46,0.53,0.48C2281.25,1216.8,2281.53,1216.62,2281.55,1216.37z"/>
								</g>
								<g transform="matrix(1,0,-5.78277e-17,1.02782,-1.08424e-14,2.21277)">
									<path class="st14" d="M2321.77,1226.6c-0.11,0.04-0.24,0.09-0.4,0.16c-0.67,0.27-1.48-0.18-2.22-0.29
										c-3.69-0.54-7.36-1.11-11-1.78c-3.65-0.67-7.26-1.47-10.85-2.29c-8.42-1.93-16.77-4-24.93-6.59
										c-3.5-1.11-6.87-2.38-10.29-3.67c-0.51-0.16-0.77-0.61-0.57-1.01c0.2-0.4,0.78-0.6,1.29-0.44
										c7.94,2.02,15.93,3.57,23.92,5.2c8.01,1.64,16.06,3.13,24.03,4.92c3.6,0.81,7.13,1.77,10.68,2.73
										c0.36,0.1,0.87,0.05,1.06,0.3l0.09,0.11c-0.11,0.21-0.22,0.51-0.31,0.95c0.31,0.06,0.49,0.31,0.41,0.55
										c-0.08,0.24-0.4,0.38-0.71,0.32C2320.92,1227.49,2323.32,1226.03,2321.77,1226.6z"/>
								</g>
								<g transform="matrix(1,0,-5.78277e-17,1.02782,-1.08424e-14,2.21277)">
									<path class="st14" d="M2301.98,1219.96c-1.36-4.33-1.33-16.62-1.15-30.29c0.22-17.58,0.79-37.44,2.11-45.61
										c0.03-0.2-0.14-0.38-0.4-0.41c-0.26-0.03-0.49,0.11-0.53,0.31c-1.59,8.17-3.42,28.06-3.57,45.7
										c-0.12,13.8,0.86,26.19,2.41,30.53c0.08,0.24,0.4,0.38,0.7,0.32C2301.87,1220.44,2302.05,1220.2,2301.98,1219.96z"/>
								</g>
								<g transform="matrix(1,-5.70555e-17,-3.00721e-17,1.02782,-1.08424e-14,2.21277)">
									<path class="st14" d="M2314.02,1263.35c-1.18,19.92-3.03,39.94-3.76,59.96c-0.49,13.38-0.44,26.76,0.41,40.08
										c0.75,10.28,19.7,33.03,14.93,85.33c-2.04,22.37-8.41,50.16-22.43,84.69c-0.11,0.27,0.08,0.57,0.43,0.66
										c0.35,0.09,0.72-0.06,0.84-0.34c18.48-44.14,24.35-77.32,24.46-102.3c0.18-40.22-14.52-59.09-15.1-68.17
										c-0.96-13.27-1-26.58-0.75-39.91c0.38-20.01,1.49-40.05,2.12-59.97c0.01-0.25-0.24-0.46-0.56-0.46
										C2314.3,1262.91,2314.03,1263.1,2314.02,1263.35z"/>
								</g>
							</g>
						</g>
					</g>
					<g transform="matrix(0.336609,-0.0474279,0.0877054,0.524211,9.07287,196.187)">
						<path class="st14" d="M5138.21,1698.57h137.86c-0.68,13.74,22.73,202.84,22.73,202.84c0.47,1.76-15.76,20.12-17.18,20.78
							C5281.23,1922.36,5138.21,1698.57,5138.21,1698.57z"/>
					</g>
					<g transform="matrix(0.741813,-0.104521,0.134476,0.803757,23.3213,101.383)">
						<path class="st14" d="M2289.67,1383.71c0.78-0.11,0.77,0.17,1.42-0.18c0.35-0.19,0.45-0.57,0.67-0.85
							c1.94-2.6,4.2-5.1,6.34-7.64c1.47-1.75,2.76-3.54,4.13-5.3c0.32-0.34,0.23-0.81-0.2-1.06c-0.43-0.25-1.04-0.18-1.36,0.16
							c-3.29,3.07-6.9,6.06-9.78,9.44c-1.01,1.18-2.45,2.29-2.66,3.69c-0.1,0.62,0.21,0.76,0.41,1.36
							c-0.14,0.22-0.03,0.49,0.25,0.61C2289.18,1384.02,2289.53,1383.93,2289.67,1383.71z"/>
					</g>
					<g transform="matrix(0.741813,-0.104521,0.134476,0.803757,23.3213,101.383)">
						<path class="st14" d="M2301.46,1387.53l2.83-4.46c0.14-0.21,0.03-0.48-0.24-0.59c-0.27-0.11-0.61-0.03-0.75,0.18l-2.88,4.48
							c-0.14,0.22-0.01,0.49,0.27,0.6C2300.98,1387.85,2301.32,1387.76,2301.46,1387.53z"/>
					</g>
				</g>
			</g>
		</g>
		<g transform="matrix(1.00315,-0.0284156,0.0172548,0.909802,-37.9341,78.3644)">
			<path class="st15" d="M1785.35,1023.67l-9.13,70.67c0,0,7.3,125.87,27.02,161.89c9.39,17.14,16.77,22.48,18.16,25.11
				c3.6,6.77,31.06,115.06,51.03,163.52c1.15,2.79-16.89,36.53-27.39,40.15c-14.41,4.98,7.89,6.53,29.75,7
				c7.9,0.17,22.59-23.61,26.48-32.12c1.5-3.28-3.26-12.55-7.3-19.42c-3.14-5.34-4.22-11.44-3.01-17.31
				c16.72-81.27-4.14-127.37-27.62-166.74c0,0,9.48-59.16,5.2-114.21c-2.65-34.16-16.68-68.36-23.13-80.94
				C1835.84,1042.61,1785.35,1023.67,1785.35,1023.67z"/>
			<g>
				<defs>
					<path id="SVGID_5_" d="M1785.35,1023.67l-9.13,70.67c0,0,7.3,125.87,27.02,161.89c9.39,17.14,18.69,52.16,20.08,54.79
						c3.6,6.77,29.14,85.38,49.11,133.84c1.15,2.79-16.89,36.53-27.39,40.15c-14.41,4.98,7.89,6.53,29.75,7
						c7.9,0.17,22.59-23.61,26.48-32.12c1.33-2.9-1.04-8.35-4.18-13.95c-5.08-9.05-6.72-19.24-4.88-29.14
						c14.38-77.34,0.92-110.02-21.94-148.36c0,0,2.56-71.19-1.71-126.24c-2.65-34.16-16.68-68.36-23.13-80.94
						C1835.84,1042.61,1785.35,1023.67,1785.35,1023.67z"/>
				</defs>
				<clipPath id="SVGID_6_">
					<use xlink:href="#SVGID_5_"  style="overflow:visible;"/>
				</clipPath>
				<g class="st19">
					<g>
						<g transform="matrix(0.749815,0.0160969,-0.00808455,0.832818,70.583,76.6709)">
							<path class="st17" d="M2451.95,1177.75h-194.66l49.45,393.42h163.77L2451.95,1177.75z"/>
						</g>
					</g>
				</g>
			</g>
		</g>
		<g transform="matrix(0.963967,0.280844,-0.160222,0.553835,17.0426,125.998)">
			<path class="st13" d="M1846.25,423.45c-18.75,31.43,10.36,146.81,21.68,189.76c0.74,2.82,83.93,49.86,114.59-18.07
				c0.54-1.2,15.26-129.99,6.84-172.65c-1.94-5.77-6.49-55.24-20.64-63.31c-18.68-10.65-52.92-4.89-86.33,18.83
				C1862.21,392.34,1848.65,419.43,1846.25,423.45z"/>
		</g>
		<g transform="matrix(1.58447,0.96886,-0.524367,0.856543,-280.657,-242.188)">
			<path class="st13" d="M1262.31-172.34c0,0,10.19,22.52,14.9,27.53c5.62,5.99-18.31,41.1-23.37,37.82c0,0,0.48-9.91-0.1-13.51
				c-0.91-5.61-5.37-20.17-5.37-20.17S1248.4-150.64,1262.31-172.34z"/>
			<g>
				<defs>
					<path id="SVGID_7_" d="M1262.31-172.34c0,0,10.19,22.52,14.9,27.53c5.62,5.99-18.31,41.1-23.37,37.82c0,0,0.48-9.91-0.1-13.51
						c-0.91-5.61-5.37-20.17-5.37-20.17S1248.4-150.64,1262.31-172.34z"/>
				</defs>
				<clipPath id="SVGID_8_">
					<use xlink:href="#SVGID_7_"  style="overflow:visible;"/>
				</clipPath>
				<g class="st20">
					<g transform="matrix(-0.259997,0.611406,0.333773,0.507904,352.196,-46.6647)">
						<path class="st14" d="M-1432.5,1566.39c1.47,2,0.67-0.3,1.37,2.01c0.06,0.21,0.04,0.27-0.04,0.5c-0.35,1.08-1.32,1.9-2.12,2.8
							c-2.9,3.29-6.52,5.82-10.47,7.72c-2.69,1.3-5.6,2.14-8.53,2.68c-2.66,0.49-5.32,0.71-7.99,0.69
							c-9.72-0.06-19.03-2.55-26.93-6.66c-0.31-0.11-0.42-0.42-0.24-0.7c0.18-0.28,0.58-0.42,0.89-0.31
							c7.11,1.39,14.69,1.58,22.25,0.57c3.86-0.52,7.48-1.66,11.13-2.84c2.28-0.74,4.5-1.57,6.72-2.5c2.34-0.99,4.68-1.89,6.99-3.22
							c1.03-0.59,1.87-1.44,3.08-1.7c2.86-0.6,0.49,0.19,3.26,0.59c0.15-0.16,0.41-0.2,0.58-0.1
							C-1432.36,1566.02-1432.34,1566.23-1432.5,1566.39z"/>
					</g>
				</g>
			</g>
		</g>
		<g transform="matrix(1.11775,-0.0372355,0.0410879,1.40054,-271.687,-55.3017)">
			<path class="st13" d="M1819.32,698.99c8.87-1.17,12.53-4.74,17.26-8.42c21.89-17.01,16.18-28.87,6.82-33
				c-35.27-15.54-48.45,3.58-48.45,3.58s-7.29,18.03-11.4,31.25C1781.36,699.42,1795.41,702.16,1819.32,698.99z"/>
		</g>
		<g transform="matrix(0.752451,-0.00666142,0.00643427,0.779016,11.541,147.992)">
			<path class="st14" d="M2407.44,875.63c0,0,6.49,19.09-2.56,27.36c-9.05,8.27-22.63,21.28-22.63,21.28l-9.34-13.69
				c0,0,10.76,4.41,16.43-10.44c1.91-5.01-9.9-14.65-18.36,0l-2.64-21.19c0,0-13.08-13.58-45.02-9.07
				c-20.14,2.84-30.57-26.83-6.2-33.1c21.93-5.64,41.94,8.12,62.59,9.57C2400.36,847.8,2414.52,862.73,2407.44,875.63z"/>
		</g>
		<g transform="matrix(0.752451,-0.00666142,0.00643427,0.779016,11.541,147.992)">
			<path class="st14" d="M2385.74,898.6c-1.74-1.33-3.37-1.05-4.83-0.12c-2.21,1.4-4.06,4.17-4.9,5.73l-1.27,2.17
				c-0.03,0.07-0.12,0.11-0.21,0.08c-0.09-0.02-0.14-0.09-0.11-0.16l0.73-2.37c0.85-1.66,2.71-4.68,5.08-6.12
				c1.85-1.12,3.98-1.37,6.02,0.39c0.14,0.11,0.14,0.29-0.01,0.4C2386.11,898.71,2385.88,898.71,2385.74,898.6z"/>
		</g>
		<g transform="matrix(0.752451,-0.00666142,0.00643427,0.779016,11.541,147.992)">
			<path class="st14" d="M2377.79,900.08c2.73-0.92,4.49-0.17,5.25,1.18c0.98,1.74,0.14,4.61-2.32,5.86
				c-0.08,0.05-0.2,0.03-0.26-0.03c-0.06-0.07-0.04-0.16,0.04-0.21c1.65-1.04,2.22-2.91,1.87-4.39c-0.33-1.43-1.67-2.44-4.12-1.59
				c-0.29,0.1-0.63,0-0.76-0.23C2377.37,900.45,2377.5,900.18,2377.79,900.08z"/>
		</g>
		<g transform="matrix(0.752451,-0.00666142,0.00643427,0.779016,11.541,147.992)">
			<path class="st14" d="M2306,1539.21l-26.52,19l1.57-7l-19.11-1.26c0,0-39.38,34.73-58.78,44.3l-16.01,5.03l-1.5,9.2
				c0,0,49.77,2.09,64.38-3.52c14.61-5.61,60.13-34.52,60.43-36.12C2313.24,1553.8,2306,1539.21,2306,1539.21z"/>
		</g>
		<g transform="matrix(0.752451,-0.00666142,0.00643427,0.779016,45.0831,149.094)">
			<path class="st14" d="M2435.92,1541.95l-14.71,14.82l1.57-7l-19.11-1.26c0,0-9.05,31.72-28.45,41.28l-18.94,7.54l-1.51,9.2
				c0,0,49.77,2.09,64.38-3.52c14.61-5.61,30.62-37.55,30.82-39.16C2450.63,1558.44,2435.92,1541.95,2435.92,1541.95z"/>
		</g>
		<path class="st14" d="M1766.66,862.63c0,0-28.59,5.78-47.45,22.15c-18.86,16.36-8.41,109.31-8.41,109.31l-7.31,59.21
			c0,0,48.6,9.79,88.92,7.08c53.16-3.57,69.28-3.55,69.28-3.55l3.11-83.27l9.64-51.52c0,0,13.85-46.59-55.14-60.3
			c0,0-15.05,22.35-44.27,20.87C1750.59,881.38,1766.66,862.63,1766.66,862.63z"/>
	</g>
	
		<rect x="1891.85" y="1308.2" transform="matrix(1 5.755107e-03 -5.755107e-03 1 8.0556 -11.281)" class="st21" width="144.67" height="171.75"/>
	<g>
		<path class="st21" d="M1940.26,1317.23c1.05-2.33,1.3-4.87,1.69-7.38c0.43-2.79,0.89-5.58,1.41-8.35
			c0.92-4.88,1.85-10.07,4.42-14.4c3.88-6.55,11.29-11.22,18.93-8.79c10.9,3.47,13.6,17.78,14.57,27.68
			c0.31,3.21,0.42,6.44,0.62,9.66c0.09,1.5,0.12,3.01,0.23,4.51c0.08,1.02,0.28,1.8,0.78,2.68c0.31,0.54,0.84,1.56,0.18,0.08
			c0.19,0.42,0.36,0.84,0.54,1.26c0.7,1.59,3.49,1.59,4.18,0c0.18-0.42,0.36-0.84,0.54-1.26c-0.12,0.27-0.93,1.63,0.07,0.06
			c0.57-0.9,0.8-1.74,0.88-2.82c0.1-1.49,0.09-3.01,0.11-4.51c0.05-3.22-0.17-6.45-0.49-9.66c-0.72-7.29-2.06-14.56-5.21-21.22
			c-2.96-6.26-7.89-11.37-14.51-13.66c-9.43-3.26-19.12,0.97-25.16,8.48c-3.85,4.79-5.79,10.44-6.78,16.45
			c-0.56,3.36-1.03,6.76-1.34,10.15c-0.31,3.35-0.87,7.2,0.09,10.48C1936.55,1318.43,1939.41,1319.13,1940.26,1317.23
			L1940.26,1317.23z"/>
	</g>
	<g transform="matrix(-0.95283,-0.641746,0.63724,-0.95283,15.1452,659.436)">
		<g transform="matrix(-0.53464,0.5406,0.541107,0.653708,225.636,51.5574)">
			<g>
				<path class="st13" d="M2354.07-1229.9c18.43-7.24,40.72,133.23,40.95,144.33c0.3,14.72-23.68,123.87-28.76,136.07
					c-21.37,43.36-78.39,7.66-73.2-35.02c0,0,37.54-72.54,42.92-95.49C2324.69-1091.88,2338.48-1227.54,2354.07-1229.9z"/>
			</g>
		</g>
		<g transform="matrix(0.974055,-0.67328,-0.5167,-0.942129,126.469,681.441)">
			<path class="st13" d="M-1287.62,1079.99c0.79,0.43,2.58,18.1,2.92,19.36c1.27,4.79,2.11,6.68,4.52,10.57
				c2.12,3.42,2.59,1.64,3.62,3.2c0.22,0.33-0.89,1.38-3.38,1.39c-3.34,0.01-4.4-3.13-4.39-2.91c0.13,5.25,1.24,23.58-1.22,24.08
				c-1.3,0.27-1.96-20.31-2.01-20.07c-0.45,1.97-2.23,13.75-2.65,18.16c-0.4,4.27-1.08,4.69-1.42,5.08
				c-0.33,0.38-0.63-1.36-0.57-2.78c0.19-4.57,0.03-18.84,0.25-20.5c0.05-0.34-3.11,13.8-4.89,18.82c-1.2,3.36-2.83,5.63-2.04-0.33
				c0.56-4.24,1.8-8.51,2.79-12.84c0.44-1.94,0.77-5.49,1.21-7.43c0.19-0.85-3.4,8.32-4.88,11.45c-0.84,1.78-1.68,3.19-2.85,4.75
				c-0.61,0.82-1.17-0.81-0.6-2.37c1.34-3.71,3.46-8.16,3.98-12.03c0.52-3.8,3.34-20.39,2.06-27.63
				C-1297.77,1084.59-1287.62,1079.99-1287.62,1079.99z"/>
		</g>
	</g>
	<path class="st14" d="M1912.99,955.47c0,0-33.79,34.33-30.06,56.4c3.73,22.07,43.73,90.86,43.73,90.86l52.31-32.16
		c0,0-5.21-55.5-23.76-89.18C1946.18,964.97,1929.41,960.2,1912.99,955.47z"/>
	<path class="st22" d="M1828.04,909.91l7.04,2.77l27.3,5.25l-0.59,12.81c0,0-2.96,15.24-19.85,15.54
		C1825.05,946.59,1814.4,941.66,1828.04,909.91z"/>
	<g>
		<path class="st23" d="M1861.24,919.32c2.8-1.12,5.54-3.01,8.2-4.68c3.68-2.31,7.31-4.76,10.96-7.15c1.44-0.94,3.07-1.78,4.4-2.99
			c0.27-0.25,0.12-0.73-0.19-0.64c-1.31,0.38-2.66,1.37-3.88,2.15c-1.74,1.1-3.46,2.24-5.18,3.38c-3.5,2.31-6.99,4.67-10.51,6.9
			c-1.28,0.81-2.58,1.66-3.92,2.25C1860.73,918.7,1860.85,919.47,1861.24,919.32L1861.24,919.32z"/>
	</g>
	<g>
		<path class="st23" d="M1860.47,934.86c1.68-0.97,3.42-1.51,5.17-2.1c1.71-0.57,3.4-1.24,5.08-1.98c1.71-0.75,3.4-1.57,5.08-2.43
			c1.76-0.89,3.63-1.72,5.3-2.92c0.32-0.23,0.28-0.89-0.12-0.75c-1.7,0.61-3.36,1.63-5.02,2.47c-1.78,0.91-3.57,1.79-5.38,2.59
			c-1.8,0.8-3.61,1.51-5.44,2.14c-1.67,0.58-3.33,1.16-4.93,2.11C1859.73,934.3,1859.98,935.15,1860.47,934.86L1860.47,934.86z"/>
	</g>
</g>
<g>
	<polygon class="st93" points="1100.37,973.33 1100.28,655.04 1354.61,508.02 1354.61,825.95 	"/>
	<polygon class="st94" points="1100.37,973.33 1100.28,655.04 845.96,508.02 845.96,825.95 	"/>
	<polygon class="st95" points="845.96,508.02 1100.28,655.04 1354.61,508.02 1100.37,361.03 	"/>
	<g>
		<polygon class="st96" points="1260.06,655.25 1203.34,688.17 1203.34,595.29 1260.06,562.33 		"/>
		<polygon class="st97" points="1260.06,562.33 1006.09,415.51 949.26,448.35 1203.34,595.4 		"/>
		<polygon class="st96" points="1133.98,927.79 1133.98,911.43 1219.35,861.91 1219.35,878.51 		"/>
		<polygon class="st96" points="1133.98,898.53 1133.98,882.17 1219.35,832.65 1219.35,849.25 		"/>
		<polygon class="st96" points="1296.01,779.35 1296.01,836.12 1336.84,812.47 1336.84,755.69 		"/>
		<polygon class="st96" points="901.91,773.41 901.91,832.57 861.08,808.98 861.08,749.82 		"/>
		<polygon class="st96" points="957.63,805.72 957.63,864.88 916.8,841.29 916.8,782.13 		"/>
		<polygon class="st35" points="945,600.49 945,685.51 861.08,637.01 861.08,551.89 		"/>
		<polygon class="st96" points="934.72,617.87 934.72,604.03 868.7,565.96 868.7,579.58 		"/>
	</g>
</g>
<g>
	<polygon class="st93" points="1448.95,1175.74 1448.86,1000.43 1703.18,853.41 1703.18,1028.36 	"/>
	<polygon class="st94" points="1448.95,1175.74 1448.86,1000.43 1194.54,853.41 1194.54,1028.36 	"/>
	<polygon class="st95" points="1194.54,853.4 1448.86,1000.42 1703.18,853.4 1448.95,706.41 	"/>
	<g>
		<polygon class="st96" points="1608.63,1000.63 1551.92,1033.56 1551.92,940.67 1608.63,907.72 		"/>
		<polygon class="st97" points="1608.63,907.72 1354.67,760.89 1297.83,793.73 1551.92,940.78 		"/>
		<polygon class="st96" points="1482.55,1130.19 1482.55,1113.83 1567.93,1064.32 1567.93,1080.92 		"/>
		<polygon class="st96" points="1482.55,1100.94 1482.55,1084.57 1567.93,1035.06 1567.93,1051.66 		"/>
		<polygon class="st96" points="1644.58,981.75 1644.58,1038.52 1685.42,1014.88 1685.42,958.09 		"/>
		<polygon class="st96" points="1245.78,985.34 1245.78,1044.5 1204.95,1020.91 1204.95,961.76 		"/>
		<polygon class="st96" points="1301.5,1017.66 1301.5,1076.82 1260.67,1053.22 1260.67,994.07 		"/>
		<polygon class="st35" points="1437.81,1007.7 1437.81,1092.72 1353.89,1044.23 1353.89,959.11 		"/>
		<polygon class="st96" points="1427.53,1025.09 1427.53,1011.24 1361.51,973.18 1361.51,986.79 		"/>
	</g>
</g>
<g>
	<polygon class="st93" points="1451.63,951.48 1451.58,849.04 1615.79,754.1 1615.79,856.61 	"/>
	<polygon class="st94" points="1451.63,951.48 1451.58,849.04 1259.83,738.2 1259.83,840.65 	"/>
	<polygon class="st95" points="1259.83,738.2 1451.58,849.04 1615.79,754.1 1424.16,643.3 	"/>
	<g>
		<polygon class="st96" points="1463.88,932.74 1463.88,922.17 1519.01,890.2 1519.01,900.92 		"/>
		<polygon class="st96" points="1463.88,913.85 1463.88,903.28 1519.01,871.31 1519.01,882.03 		"/>
		<polygon class="st96" points="1300.93,779.79 1300.93,827.44 1268.04,808.43 1268.04,760.79 		"/>
	</g>
	<polygon class="st35" points="1438.72,859.72 1438.72,916.59 1354.8,868.1 1354.8,811.12 	"/>
	<polygon class="st96" points="1428.44,877.1 1428.44,863.26 1362.41,825.19 1362.41,838.8 	"/>
	<polygon class="st96" points="1574.29,831.89 1517.58,864.81 1517.58,810.85 1574.29,777.9 	"/>
	<polygon class="st97" points="1574.29,777.9 1382.81,667.18 1325.94,700.02 1517.58,810.97 	"/>
</g>
<g>
	<g>
		<path class="st5" d="M2198.97,1296.81l94.7,16.63c6.05,1.06,11.86-3.02,12.93-9.07l9.01-51.32c1.06-6.05-3.02-11.87-9.07-12.93
			l-20.16-3.54v0l1.1-6.26c1.39-7.87-2.28-15.48-8.65-19.5c-2.04-1.3-4.37-2.23-6.9-2.67l-15.08-2.64h-0.01l-1.59-0.28
			c-10.39-1.83-20.33,5.15-22.16,15.55l-1.1,6.26l-20.15-3.54c-6.05-1.06-11.87,3.02-12.93,9.07l-9.01,51.32
			C2188.84,1289.93,2192.92,1295.75,2198.97,1296.81z M2278.9,1235.27l-39.44-6.93l1.1-6.27c1.1-6.27,7.1-10.48,13.38-9.38
			l3.04,0.54l13.64,2.4c0.88,0.15,1.73,0.4,2.52,0.74c4.84,2.05,7.81,7.24,6.86,12.63L2278.9,1235.27L2278.9,1235.27z"/>
		<g id="man_11_">
			<g>
				<path class="st9" d="M2240.04,1574.5c0,0-13.33,12.36-10.73,21.13c2.6,8.78,14.63,14.63,16.26,25.36
					c1.63,10.73,8.13,16.58,13.98,16.58s27.9,0,27.9,0s4.31-7.55-6.1-9.83c-10.41-2.28-14.33-14.89-13.68-26.59
					c0.65-11.71-0.97-27.31-0.97-27.31l-22.11-5.2L2240.04,1574.5z"/>
				<path class="st9" d="M2405.34,1637.59h76.07c-0.97-2.75-3.71-6.88-11.5-8.14c-11.65-1.89-31.84-8.66-36.35-23.57
					c-0.14-0.47-0.27-0.97-0.39-1.47c-3.58-15.93-29.59,4.88-29.59,4.88s-0.08,0.64-0.19,1.72
					C2402.82,1616.49,2401.44,1633.48,2405.34,1637.59z"/>
				<path class="st5" d="M2466.82,1209.48c0,0-3.95,49.29-8.59,108.53c-6.31,80.48-13.9,179.34-14.65,198.07
					c-1.3,32.52-6.51,84.54-6.51,84.54s-12.35,12.36-37.07,7.15c0,0-22.03-74.26-28.32-152.83c-0.1-1.29-0.2-2.59-0.29-3.88
					c-5.85-79.98-14.95-248.41-14.95-248.41L2466.82,1209.48z"/>
				<path class="st9" d="M2466.82,1209.48c0,0-3.95,49.29-8.59,108.53l-86.54,136.93c-0.1-1.29-0.2-2.59-0.29-3.88
					c-5.85-79.98-14.95-248.41-14.95-248.41L2466.82,1209.48z"/>
				<path class="st5" d="M2448.78,1215.33c0,0-71.21,178.5-118.03,262.39c-46.82,83.89-61.45,107.3-61.45,107.3
					s-26.82-10.73-29.26-18.05c0,0,17.91-161.95,49.26-201.43c17.72-22.31,38.53-89.25,39.5-112.66
					c0.98-23.41,6.34-69.74,6.34-69.74L2448.78,1215.33z"/>
			</g>
			<path class="st10" d="M2520.79,1166.05l4.07,8.11c0,0,20.7,2.89,15,24.47c0,0-3.07,8.88-8.78,6.07
				c-5.71-2.81-2.9-2.57-11.07-6.35c-8.18-3.78-12.91-11.04-11.09-17.7l-1.31-7.06L2520.79,1166.05z"/>
			<path class="st10" d="M2431.05,955.11c-27.83,8.78-75.97-14.92-75.97-14.92s25.66-19.25,24.31-59.29l21.22,17.1l14.91,12.02
				c0,0-0.07,8.21-2.11,22.41c-0.33,2.3-0.71,4.75-1.15,7.36C2424.21,946.36,2431.05,955.11,2431.05,955.11z"/>
			<path class="st92" d="M2515.97,1177.33c6.15-6.3,10.71-14.51,10.71-14.51s-52.22-64.88-56.47-71.61
				c-4.25-6.73-35.96-114.65-35.96-114.65l-80.2-16.25c0,0,66.94,138.11,78.03,154.95c18.33,27.82,73.15,69.23,73.15,69.23
				S2511.14,1182.28,2515.97,1177.33z"/>
			<path class="st4" d="M2469.89,1213.59c-0.84,0.7-1.81,1.11-2.92,1.11c-10.45-0.14-40.92,5.66-66.7,3.02
				c-21.73-2.09-40.97-8.53-61.63-17.79c-2.74-1.23-9.06-4.6-8.92-7.67c0.09-3.36,0.43-8.23,0.84-14.36
				c1.46-21.32,4.01-58,1.53-100.32c-0.45-7.88-0.68-15.69-0.71-23.39c-0.21-57.35,11.16-107.79,34.01-124.86
				c1.95-1.4,13.93,4.46,24.94,9.89c10.17,5.02,20.35,5.57,29.96,3.63l9.61,8.5c11.7,10.87,24.53,25.64,30.1,48.07
				c4.74,19.09,7.52,53.51,9.06,89.18c0.7,16.16,1.26,32.47,1.4,47.94v0.55c0.14,1.53,0.14,3.21,0.14,4.74
				C2471.15,1181.54,2470.59,1213.03,2469.89,1213.59z"/>
			<path class="st92" d="M2330.56,1177.9c1.46-21.32,4.01-58,1.53-100.32c-0.45-7.88-0.68-15.69-0.71-23.39
				c9.52-23.09,17.3-39.84,17.3-39.84h23.99C2372.67,1014.36,2390.26,1134.51,2330.56,1177.9z"/>
			<g>
				<path class="st10" d="M2283.88,1185.37l-4.56,7.85c0,0,8.92,18.9-12.24,25.96c0,0-9.11,2.3-9.89-4.02
					c-0.78-6.31,0.56-3.83-0.76-12.74c-1.32-8.91,2.16-16.85,8.73-18.97l5.19-4.97L2283.88,1185.37z"/>
				<path class="st4" d="M2271.81,1187.52c8.64,1.68,18.01,1,18.01,1s25.65-79.24,28.95-86.47c3.3-7.24,76.19-92.91,76.19-92.91
					l-30.36-75.99c0,0-78.83,131.69-86.84,150.19c-13.23,30.58-17.82,99.13-17.82,99.13S2265.02,1186.2,2271.81,1187.52z"/>
			</g>
			<path class="st12" d="M2415.52,910.02c0,0-0.07,8.21-2.11,22.41c-21.67-5.08-34.06-32.2-34.06-32.2l21.26-2.23L2415.52,910.02z"
				/>
			<path class="st10" d="M2424.03,909.36c0,0-45.96,7.64-50.28-21.06c-4.31-28.7-13.15-47.04,16.01-53.12
				c29.16-6.09,36.52,4,40.29,13.23C2433.83,857.64,2435.88,906.64,2424.03,909.36z"/>
			<path class="st9" d="M2430.06,848.41c0,0-19.41,5.25-29.8,5.5c-10.38,0.26-7.66,15.96-10.23,16.73
				c-2.58,0.77-8.01-7.71-12.78-2.17c-2.21,2.57,1.29,11.99,5.67,14.82c4.38,2.84-6.17,21.64-6.17,21.64s-22.45-19.84-17.55-55.15
				c4.9-35.31,39.18-34.03,53.1-30.16c13.92,3.87,32.46,0.65,30.93,12.12C2442.21,839.48,2439.09,846.6,2430.06,848.41z"/>
		</g>
	</g>
	<g>
		<polygon class="st93" points="2332.26,1343.6 2297.31,1271.42 2380.7,1148.56 2415.63,1220.8 		"/>
		<polygon class="st94" points="2332.26,1343.6 2297.31,1271.42 2124.42,1258.64 2159.32,1330.84 		"/>
		<polygon class="st95" points="2124.42,1258.64 2297.31,1271.42 2380.7,1148.56 2207.89,1135.76 		"/>
		<g>
			<polygon class="st96" points="2334.5,1326.22 2330.91,1318.77 2358.86,1277.45 2362.52,1285.01 			"/>
			<polygon class="st96" points="2328.07,1312.9 2324.47,1305.46 2352.43,1264.14 2356.08,1271.69 			"/>
			<polygon class="st96" points="2167.55,1273.95 2183.78,1307.53 2154.13,1305.34 2137.9,1271.76 			"/>
		</g>
		<polygon class="st35" points="2291.89,1283.33 2311.27,1323.41 2235.6,1317.83 2216.19,1277.67 		"/>
		<polygon class="st96" points="2290.57,1299.08 2285.86,1289.33 2226.35,1284.99 2230.99,1294.59 		"/>
		<polygon class="st96" points="2377.96,1217.52 2349.21,1260.04 2330.82,1222.02 2359.56,1179.47 		"/>
		<polygon class="st97" points="2359.56,1179.47 2186.89,1166.68 2158,1209.21 2330.86,1222.1 		"/>
	</g>
</g>
<g>
	<path class="st98" d="M952.03,1197.71l-312.1,180.19c-30.62,17.68-68.25,6-68.25-34.83v-688c0-40.83,25.05-88.7,55.68-106.38
		l313.4-180.94c30.62-17.68,66.94,0.73,66.94,41.56v682.03C1007.71,1132.16,982.66,1180.03,952.03,1197.71z"/>
	<polygon class="st98" points="1012.68,381.93 984.58,365.94 970.5,371.42 1007.71,394.13 	"/>
	<polygon class="st98" points="617.32,1395.71 589.06,1379.57 587.5,1352.87 639.93,1377.9 	"/>
	<path class="st96" d="M978.59,1212.81L666.49,1393c-30.62,17.68-68.25,6-68.25-34.83v-688c0-40.83,25.05-88.7,55.68-106.38
		l313.4-180.94c30.62-17.68,66.94,0.73,66.94,41.56v682.03C1034.27,1147.26,1009.21,1195.13,978.59,1212.81z"/>
	<path class="st97" d="M968.82,1205.21l-305.13,176.16c-30.43,17.57-55.32,1.82-55.32-38.75V674.77c0-40.57,24.89-88.13,55.32-105.7
		L968.82,392.9c30.43-17.57,55.32,1.25,55.32,41.82v667.86C1024.14,1143.15,999.25,1187.64,968.82,1205.21z"/>
	<polygon class="st35" points="1002.32,1128.23 630.2,1343.07 630.2,648.37 1002.32,433.53 	"/>
	<polygon class="st99" points="1002.32,543.07 630.2,757.91 630.2,648.37 1002.32,433.53 	"/>
	<path class="st35" d="M796.15,521.86c0,5.05-3.07,10.91-6.86,13.1c-3.79,2.19-6.86-0.13-6.86-5.18c0-5.05,3.07-10.91,6.86-13.1
		C793.08,514.49,796.15,516.81,796.15,521.86z"/>
	<path class="st35" d="M864.58,491.49l-45.1,26.04c-3.77,2.18-6.86-0.15-6.86-5.18l0,0c0-5.03,3.08-10.92,6.86-13.1l45.1-26.04
		c3.77-2.18,6.86,0.16,6.86,5.18l0,0C871.44,483.42,868.35,489.31,864.58,491.49z"/>
	<path class="st35" d="M861.06,1228.12l-47.28,27.3c-4.04,2.33-7.35,8.65-7.35,14.04c0,5.39,3.31,7.89,7.35,5.55l47.28-27.3
		c4.04-2.33,7.35-8.65,7.35-14.04C868.41,1228.29,865.1,1225.79,861.06,1228.12z"/>
</g>
<g>
	<polygon class="st100" points="1417.99,1370.5 1045.87,1584.94 630.2,1342.68 1002.32,1128.23 	"/>
	<polygon class="st101" points="630.2,1342.68 630.2,1361.9 1045.87,1604.16 1045.87,1584.94 	"/>
	<polygon class="st102" points="1417.99,1370.5 1417.99,1389.71 1045.87,1604.16 1045.87,1584.94 	"/>
</g>
<g>
	<g>
		<polygon class="st103" points="949.56,1178.07 721.19,1310.06 721.19,755.8 949.56,623.8 		"/>
		<polygon class="st104" points="935.16,1174.73 733.87,1291.07 733.87,765.92 935.16,649.58 		"/>
		<polygon class="st103" points="921.63,1164.89 847.41,1207.79 847.41,950.26 921.63,907.35 		"/>
		<polygon class="st103" points="824.12,1220.46 749.12,1264.7 749.12,1007.17 824.12,962.93 		"/>
		<polygon class="st103" points="921.63,889.42 847.41,932.32 847.41,721.71 921.63,678.8 		"/>
		<polygon class="st103" points="824.12,944.99 749.12,989.23 749.12,778.61 824.12,734.37 		"/>
		<polygon class="st105" points="721.19,1310.06 707.16,1301.93 707.16,747.63 721.19,755.8 		"/>
		<polygon class="st104" points="949.56,623.8 721.19,755.8 707.16,747.63 935.64,615.72 		"/>
	</g>
	<path class="st35" d="M769.51,1010.88c4.8,7.18,2.87,16.9-4.31,21.71c-7.18,4.8-16.9,2.87-21.71-4.31
		c-4.8-7.18-2.87-16.9,4.31-21.71S764.71,1003.69,769.51,1010.88z"/>
</g>
<g>
	<path class="st106" d="M1091.69,1036.63c8.99-1.85,18.46-2.31,18.46-2.31s-1.2-1.35-2.59-7.95c-1.37-6.45-0.18-11.12,2.59-5.91
		c2.77,5.2,6.42,13.17,20.23,19.62c13.62,6.36,54.11-17.19,54.11-17.19l2.43,3.49c3.65,29.51-19.06,27.48-19.06,27.48
		s-21.11,5.61-35,5.02c-15.71-0.66-28.63-2.04-37.74-4.27C1074.78,1049.63,1082.69,1038.47,1091.69,1036.63z"/>
	<g>
		<path class="st97" d="M981.06,1310.63c0,0,6.83,7.43,15.96,16.33c8.45,8.24,11.06,10.61,18.9,18.26c4.58,4.47,0.81,8.58-7.92,8.24
			c-7.67-0.3-25.04-4.03-34.76-7.52c-6.9-2.48-19.56-9.48-26.02-13.57c-6.46-4.09-7.72-9.77-7.72-9.77v-13.74L981.06,1310.63z"/>
		<path class="st97" d="M856.21,1298.43c0,0,4.37,6.38,13.5,15.28c8.45,8.24,10.94,11.49,18.42,21.33c1.7,2.24,2.7,8.65-6.03,8.32
			c-7.67-0.3-19.35-3.56-29.08-7.03c-11.1-3.95-20.47-15.14-26.94-19.22c-6.46-4.09-9.31-13.12-9.31-13.12l4.46-13.54
			L856.21,1298.43z"/>
		<path class="st96" d="M859.69,1075.56c-3.23-50.41,24.56-76.9,24.56-76.9c-2.21-16.99,76.58,6.79,76.58,6.79
			s16.87,91.32,24,139.41c8.1,54.65,3.2,165.95,3.2,165.95s-1.02,11.88-21.38,11.8c-15.62-0.06-27.14-13.74-27.14-13.74
			l-1.62-126.67l-18.1-89.83c0,0-17.42,73-22.94,99.2c-5.88,27.87-28.4,110.33-28.4,110.33s-14.58,16.75-32.67,7.7
			c-18.1-9.05-14.54-19.15-14.54-19.15s3.55-58.49,26.82-110.83C850,1139.86,861.18,1098.71,859.69,1075.56z"/>
		<path class="st107" d="M950.05,873.1c0,0,11.27-0.56,22.9,21.3c11.63,21.86,22.76,45.12,22.76,45.12s-16.94,2.42-35.36,19.39
			C935.14,936.13,931.03,883.74,950.05,873.1z"/>
		<path class="st99" d="M950.05,873.1c0,0,6.34,12.15,12.16,34.44c5.82,22.3,3.73,125.96,3.73,125.96s-24.02,16.99-64.24,13.66
			c-23.91-1.98-36.11-16.79-36.11-16.79s-14.3-101.52-12.36-116.06s32.37-48.7,32.37-48.7S925.82,863.57,950.05,873.1z"/>
		<path class="st106" d="M922.53,858.93l4.67,27.23c0,0-13.87,15.56-27.44,3.93c-13.57-11.63-15.51-16.98-15.51-16.98l6.68-37.12
			L922.53,858.93z"/>
		<g>
			<path class="st96" d="M916.57,936.04c0,0-17.52-26.37-31.38-33.76c-13.86-7.39-21.34-8.77-21.34-8.77s5.05-10.43,8.43-11.63
				c5.87,0.88,9.67,2.5,22.15,8.97c12.48,6.47,26.14,22.16,31.59,31.79C937,942.02,924.61,947.23,916.57,936.04z"/>
			<path class="st96" d="M944.68,870.73c0,0,11.43,27.23,12.8,40.31c1.38,13.09-1.24,17.11-6.5,17.58
				c-5.26,0.46-5.55-8.87-7.11-19.29c-1.47-9.84-11.09-42.16-11.09-42.16L944.68,870.73z"/>
			<path class="st96" d="M863.62,1016.02c0,0,12.79,10.09,25.45,8.71c11.1-1.22,27.09-12.01,26.24-47.13
				c-0.85-35.12-4.11-51.29-4.11-51.29l42.44-18.6c0,0,11.53,26.67,13.81,79c2.27,52.33,3.23,70.36,3.23,70.36s-45.28,2.77-72.08,0
				c-26.8-2.77-38.01-6.09-38.01-6.09L863.62,1016.02z"/>
			<path class="st35" d="M948.95,917.33c0,2.15,1.2,3.9,2.69,3.9c1.48,0,2.69-1.75,2.69-3.9c0-2.15-1.2-3.9-2.69-3.9
				C950.15,913.43,948.95,915.17,948.95,917.33z"/>
			<path class="st35" d="M923.53,929.19c1.26,1.75,1.3,3.87,0.09,4.73c-1.2,0.87-3.2,0.15-4.46-1.6c-1.26-1.75-1.3-3.87-0.09-4.73
				C920.28,926.73,922.27,927.44,923.53,929.19z"/>
			<path class="st97" d="M957.28,934.29c1.73,8.78,0.86,36.4-14.79,40.56c-14.19,3.77-17.87-12.96-21.14-25.9
				C939.72,944.79,957.28,934.29,957.28,934.29z"/>
		</g>
		<path class="st108" d="M903.38,795.11c11.59-8.83,39.04-11.66,49.06,16.71c10.51,29.74-16.41,66.89-30.75,60.58
			c-8.03-3.53-24.92-16.09-29.68-31.75C886.65,823.02,894.37,801.96,903.38,795.11z"/>
		<g>
			<polygon class="st93" points="1014.14,1118.87 1014.14,1010.98 927.2,967.64 927.2,1069.41 			"/>
			<polygon class="st94" points="1014.14,1118.87 1014.14,1010.98 1101.08,967.64 1101.08,1069.41 			"/>
			<polygon class="st93" points="1014.11,1119.79 1014.14,1010.98 927.2,960.72 927.2,1069.41 			"/>
			<polygon class="st94" points="1014.11,1119.79 1014.14,1010.98 1101.08,960.72 1101.08,1069.41 			"/>
			<polygon class="st95" points="1101.08,960.72 1014.14,1010.98 927.2,960.72 1014.11,910.47 			"/>
			<g>
				<polygon class="st97" points="959.52,1011.06 978.91,1022.31 978.91,990.56 959.52,979.29 				"/>
				<polygon class="st97" points="959.52,979.29 1046.34,929.1 1065.77,940.33 978.91,990.59 				"/>
				<polygon class="st97" points="1002.62,1104.22 1002.62,1098.63 973.43,1081.7 973.43,1087.38 				"/>
				<polygon class="st97" points="1002.62,1094.22 1002.62,1088.63 973.43,1071.7 973.43,1077.38 				"/>
				<polygon class="st97" points="947.23,1053.48 947.23,1072.89 933.27,1064.8 933.27,1045.39 				"/>
				<polygon class="st97" points="1081.95,1051.45 1081.95,1071.67 1095.91,1063.61 1095.91,1043.39 				"/>
				<polygon class="st97" points="1062.91,1062.49 1062.91,1082.72 1076.86,1074.65 1076.86,1054.43 				"/>
				<polygon class="st35" points="1067.22,992.34 1067.22,1021.4 1095.91,1004.82 1095.91,975.72 				"/>
				<polygon class="st97" points="1070.74,998.28 1070.74,993.55 1093.31,980.53 1093.31,985.19 				"/>
			</g>
		</g>
		<path class="st108" d="M905.72,966.99c0,0,16.47,34.62,23.28,44.27s34.52,31.69,40.21,34.9c5.69,3.2,18.73,7.27,25.55,6.63
			c6.81-0.65,11.41,2.69,4.85,5.17c-6.57,2.48-12.93,3.07-12.93,3.07s11.97,8.84,16.71,16.39c3.81,6.07,7.04,17.21-7.69,13.98
			c-11.9-2.61-28.42-20.85-32.74-24.91c-8.18-7.67-40.65-25.23-47.99-30.43c-10.38-7.35-39.77-50.66-39.77-50.66
			S884.25,962.44,905.72,966.99z"/>
		<path class="st107" d="M858.42,901.79c8.53-6.88,26.8,16.41,36.49,30.95c9.69,14.54,17.46,36.3,17.46,36.3
			s-11.67,8.48-22.13,15.08c-8.76,5.52-18.02,9.71-18.02,9.71S829.14,925.37,858.42,901.79z"/>
		<path class="st97" d="M954.81,821.26c-4.78,4.87-11.75,10.29-26.13,7.92c-11.77-1.94-20.2-7.43-20.2-7.43l-2.41,15.75
			c0,0-2.36-0.42-4.13-1.52c-0.24-6.24-2.47-8.18-5.9-6.32c-3.88,2.1-4.04,10.99-4.04,10.99s-11.71-11.31-7.76-29.08
			c2.46-11.08,17.42-32.96,38.28-31.02c20.86,1.94,32.99,15.73,35.57,27.66C959.39,814.18,956.97,819.05,954.81,821.26z"/>
		<g>
			<path class="st96" d="M959.02,807.6c0,0,26.79,18.86,31.41,22.85c4.62,3.99-21.18,21.4-39.45,15.58
				c-18.27-5.82-45.76-26.14-45.76-26.14L959.02,807.6z"/>
			<path class="st97" d="M959.02,807.6c0,0-30.54,18.98-49.61,13.54c-19.06-5.44-24.23-10.18-24.23-10.18s1.66-39.85,36.7-39.85
				C956.92,771.11,959.02,807.6,959.02,807.6z"/>
			<ellipse class="st96" cx="925.57" cy="772.4" rx="5.26" ry="2.91"/>
		</g>
	</g>
	<g>
		<g>
			<path class="st108" d="M1225.13,1422.46c-10.17-5.08-19.82-11.3-16.73-17.1c1.4-2.62,4.63-3.78,7.76-4.3
				c9.37,3.08,14.05,5.18,14.05,5.18s-0.98-54.41-4.99-76.96c-1.32-7.43,34.22-7.71,34.22-7.71c1.27,5.2,2.39,50.94,0,78.79
				c-0.8,9.34-0.29,15.44,0.39,19.95c-2.42,1.05-7.42,3.22-11.14,4.92C1243.61,1427.54,1235.3,1427.54,1225.13,1422.46z"/>
			<path class="st97" d="M1260.25,1435.12c-3.4,8.09-11.23,7.34-27.07,1.64c-14.05-5.06-25.65-10.78-35.64-18.17
				c-9.99-7.39-10.09-8.38-11.41-13.38c-1.85-7,8.37-10.92,25.36-5.65c1.68,0.52,3.22,1.02,4.67,1.5c-3.13,0.52-6.37,1.68-7.76,4.3
				c-3.09,5.8,6.57,12.01,16.73,17.1c10.16,5.08,18.48,5.08,23.56,2.77c3.72-1.69,8.71-3.87,11.14-4.92
				C1260.86,1427.11,1262.29,1430.26,1260.25,1435.12z"/>
		</g>
		<g>
			<path class="st108" d="M1175.69,1451.15c-10.16-5.08-19.82-11.3-16.73-17.1c1.4-2.62,4.63-3.78,7.76-4.3
				c9.38,3.09,14.05,5.18,14.05,5.18s-2.61-85.39-6.62-107.94c-1.32-7.43,34.34,3.74,34.34,3.74c1.27,5.2,3.89,70.47,1.5,98.32
				c-0.8,9.34-0.29,15.44,0.39,19.96c-2.42,1.05-7.41,3.22-11.14,4.92C1194.17,1456.23,1185.85,1456.23,1175.69,1451.15z"/>
			<path class="st97" d="M1210.81,1463.81c-3.4,8.09-11.23,7.34-27.07,1.64c-14.05-5.06-25.65-10.78-35.64-18.17
				c-9.99-7.39-10.1-8.38-11.41-13.38c-1.85-7,8.37-10.92,25.36-5.65c1.68,0.52,3.22,1.02,4.67,1.49c-3.13,0.52-6.37,1.68-7.76,4.3
				c-3.09,5.8,6.57,12.01,16.73,17.1c10.17,5.08,18.48,5.08,23.57,2.77c3.72-1.69,8.71-3.87,11.14-4.92
				C1211.42,1455.8,1212.85,1458.95,1210.81,1463.81z"/>
		</g>
		<path class="st108" d="M1212.88,871.35c-4.2,2.92-19.88,6.52-24.26,41.06c-3.88,30.6,2.86,38.57,9.08,41.16
			c3.43,1.43,15.65,1.39,15.65,1.39l-0.47,25.85c0,0,15.16,5.99,29.69,0c14.54-5.99,14.54-5.99,14.54-5.99s-5.68-9.79-4.73-26.73
			c1.18-21.02,8.62-50.94,3.35-62.07C1246.21,865.91,1224.28,863.44,1212.88,871.35z"/>
		<path class="st99" d="M1264.85,958.62c0,0-41.39,11.93-51.95,15.51c-9.98,3.38-17.96,10.24-28.38,31.17
			c-10.42,20.92-2.74,52.63-2.74,52.63l3.15,57.15c0,0,21.62,26.22,40.9,28.06c26.3,2.52,29.17-11.91,29.17-11.91
			s33.45-73.3,28.01-108.28C1278.06,991.17,1264.85,958.62,1264.85,958.62z"/>
		<path class="st97" d="M1187.51,900.55c1.11,11.86,10.84,15.39,19.51,24.45c8.67,9.06,9.54,21.21,12.17,29.28
			c2.63,8.07-1.03,44.13,12.17,71.3c14.07,28.96,32.11,35.24,32.11,35.24s25.1-38.61,34.04-85.4
			c8.94-46.8-23.34-107.71-58.17-115.07C1202.35,852.53,1185.23,876.2,1187.51,900.55z"/>
		<path class="st108" d="M1194.05,993.37c8.55-0.81,17.44,14.74,16.57,34.18c-1.12,24.88-52.99,67.32-52.99,67.32
			c-17.46,10.32-70.4-5.01-83.04-6.49c-12.64-1.47-27.37,2.73-35.25,0.77c-7.49-1.87-18.02-14.37-12.93-18.38
			c4.08-3.22,27.91-3.28,27.91-3.28s-4.34-9.96-4.42-13.06c-0.34-11.79,5.45,1.36,12.93,7.41c8.33,6.73,13.47,6.85,20.67,7.91
			c32.3,4.77,62.66-2.26,62.66-2.26S1177.65,994.93,1194.05,993.37z"/>
		<path class="st99" d="M1235.53,859.62c0,0-33.62,2.8-31.02,31.91c2.6,29.11,2.51,33.46,2.51,33.46s-6.26-17.34-9.32-30.6
			C1194.63,881.14,1198.76,850.7,1235.53,859.62z"/>
		<path class="st108" d="M1197.7,917.52c0,0,9.07-15.55,12.98,0c3.62,14.45-8.97,19.3-8.97,19.3L1197.7,917.52z"/>
		<path class="st99" d="M1257.59,1102.87c0,0,11.66,34.52,15.21,55.01c8.84,51.06,5.93,163.69,5.93,163.69s-46.09,26.32-77.89,24.18
			c-46.4-3.12-60.26-24.18-60.26-24.18s18.78-108.9,21.94-132.11c6.25-45.87,26.04-89.65,26.04-89.65L1257.59,1102.87z"/>
		<path class="st107" d="M1264.64,1125.32c0,0-31.07,10.8-53.32,3.31c-22.25-7.49-29.49-12.2-29.49-12.2l2.73-12.81
			c0,0,15.06,6.97,38.41,10.37c21.48,3.13,41.52-5.7,41.52-5.7L1264.64,1125.32z"/>
	</g>
</g>
<g>
	<polyline class="st109" points="1431.2,908.13 1420.96,982.15 1463.67,979.4 1434.6,908.13 	"/>
	<g>
		<g transform="matrix(-0.95283,-0.641746,0.63724,-0.95283,15.1452,659.436)">
			<g transform="matrix(-0.53464,0.5406,0.541107,0.653708,225.636,51.5574)">
				<path class="st110" d="M1664.86-1124.31c6.02-4.03,100.37,112.58,106.78,121.96c8.51,12.45,31.59,115.96,37.95,125.37
					c-2.47,35.75-39.35,48.91-55.98,1.33c0,0-16.48-86.09-24.16-108.15C1728.93-985.32,1651.31-1115.24,1664.86-1124.31z"/>
			</g>
			<g transform="matrix(0.974055,-0.67328,-0.5167,-0.942129,126.469,681.441)">
				<path class="st110" d="M-851.21,1079.88c0.87,0.31,4.88,17.88,5.38,19.11c1.9,4.64,3,6.42,5.97,9.97
					c2.62,3.13,2.89,1.25,4.15,2.67c0.26,0.3-0.75,1.53-3.34,1.93c-3.46,0.53-4.95-2.48-4.91-2.26c0.78,5.28,4.15,23.62,1.65,24.52
					c-1.32,0.47-4.5-20.21-4.52-19.97c-0.23,2.06-0.65,14.24-0.54,18.76c0.1,4.38-0.56,4.91-0.86,5.35
					c-0.3,0.44-0.82-1.28-0.93-2.72c-0.36-4.64-2.26-19.04-2.23-20.75c0.01-0.35-1.55,14.43-2.8,19.77
					c-0.83,3.58-2.25,6.13-2.16-0.01c0.07-4.37,0.83-8.88,1.34-13.41c0.23-2.03,0.13-5.67,0.35-7.69c0.1-0.88-2.53,8.94-3.68,12.33
					c-0.66,1.93-1.36,3.48-2.38,5.24c-0.54,0.92-1.31-0.64-0.92-2.3c0.94-3.95,2.6-8.78,2.67-12.78c0.08-3.92,0.99-21.11-1.21-28.24
					C-861.2,1086.1-851.21,1079.88-851.21,1079.88z"/>
			</g>
		</g>
		<g transform="matrix(0.992082,0.124644,-0.157979,0.948364,4.42075,48.9373)">
			<path class="st110" d="M1570.66,941.54c0,0-0.12,42.64,1.86,93.96c0.22,41.04,31.46,117.3,46.7,183.99
				c11.45,49.91,19.26,123.48,23.66,172.92c0.84,9.49-39.3,29.95-57.21,43.65c0,0,18.81,5.77,45.12-8.82
				c14.82-8.22,33.41-1.02,39.61-7.83c7.58-8.33-5.05-18.86-4.08-26.44c6.04-47.53,33.75-142.32-1.88-188.36
				c0,0,7.69-194.96-29.66-234.55C1618.01,952.29,1570.66,941.54,1570.66,941.54z"/>
			<g>
				<defs>
					<path id="SVGID_28_" d="M1558.43,935.99c0,0,7.93,61.23,14.09,99.51c1.94,50.14,38.75,140.01,46.7,183.99
						c12.44,56.72,19.26,123.48,23.66,172.92c0.84,9.49-39.3,29.95-57.21,43.65c0,0,18.81,5.77,45.12-8.82
						c14.82-8.22,33.41-1.02,39.61-7.83c7.58-8.33-5.05-18.86-4.08-26.44c6.04-47.53,33.75-142.32-1.88-188.36
						c0,0,16.21-207.81-38.22-262.11C1609.45,924.73,1558.43,935.99,1558.43,935.99z"/>
				</defs>
				<clipPath id="SVGID_9_">
					<use xlink:href="#SVGID_28_"  style="overflow:visible;"/>
				</clipPath>
				
					<rect x="1561.36" y="929.35" transform="matrix(-0.9999 0.0104 -0.0104 -0.9999 3260.8904 2228.5779)" style="clip-path:url(#SVGID_9_);fill-rule:evenodd;clip-rule:evenodd;fill:#009DFD;" width="126.63" height="386.75"/>
				<g style="clip-path:url(#SVGID_9_);">
					<g transform="matrix(-0.767153,0.108064,0.138567,0.828058,191.48,73.894)">
						<path class="st14" d="M-1588.37,1358.62c1.56-4.78-7.44-9.3-10.57-2.6c-4.79,10.26-30.81,30.59-34.42,41.29
							c-7.78,25.89-14.84,52.03-21.83,78.17c-4.63,17.33-3.99,46.03,3.6,29.56c17.36-37.64,44.93-88.26,52.6-114.07
							C-1596.13,1379.99-1591.89,1369.42-1588.37,1358.62z"/>
					</g>
				</g>
			</g>
		</g>
		<g transform="matrix(0.992082,0.124644,-0.157979,0.948364,4.42075,48.9373)">
			<path class="st110" d="M1621.69,936.4c0,0,3.84,42.61,10.56,93.7c4.02,40.99,42.08,114.05,63.38,179.16
				c15.98,48.72,30.56,121.45,39.51,170.4c1.71,9.4-36.18,33.87-52.67,49.36c0,0,19.18,3.88,43.92-13.34
				c13.93-9.7,33.03-4.37,38.55-11.8c6.75-9.08-6.76-18.34-6.5-26.01c1.58-48.1,20.26-145.6-19.35-188.02
				c0,0-10.47-195.57-51.18-231.38C1669.63,942.38,1621.69,936.4,1621.69,936.4z"/>
			<g>
				<defs>
					<path id="SVGID_30_" d="M1621.69,936.4c0,0,3.84,42.61,10.56,93.7c6.57,49.91,51.41,136.01,63.38,179.16
						c17.59,55.43,30.56,121.45,39.51,170.4c1.71,9.4-36.18,33.87-52.67,49.36c0,0,19.18,3.88,43.92-13.34
						c13.93-9.7,33.03-4.37,38.55-11.8c6.75-9.08-6.76-18.34-6.5-26.01c1.58-48.1,20.26-145.6-19.35-188.02
						c0,0-10.47-195.57-51.18-231.38c-6.7-5.89-21.1-19.5-33.04-29.62C1639.56,915.86,1621.69,936.4,1621.69,936.4z"/>
				</defs>
				<clipPath id="SVGID_10_">
					<use xlink:href="#SVGID_30_"  style="overflow:visible;"/>
				</clipPath>
				
					<rect x="1628.91" y="918.15" transform="matrix(-0.9943 0.1067 -0.1067 -0.9943 3493.4304 2036.0527)" style="clip-path:url(#SVGID_10_);fill-rule:evenodd;clip-rule:evenodd;fill:#009DFD;" width="126.63" height="386.75"/>
			</g>
		</g>
		<g>
			<g>
				<path class="st114" d="M1455.86,1292.96c-0.33,16.02-1.94,31.93-3.33,47.89c-1.32,15.2-2.5,30.67,0.02,45.8
					c2,12,6.26,23.5,8.09,35.53c0.98,6.42,0.8,12.78,0.39,19.24c-0.46,7.33-1.14,14.65-2.07,21.94
					c-1.65,12.82-3.91,25.85-8.42,38.01c-0.44,1.19-0.91,2.37-1.41,3.53c-0.29,0.68-0.19,1.45,0.49,1.86
					c0.57,0.34,1.57,0.18,1.86-0.49c4.97-11.5,7.42-24.09,9.29-36.42c1.1-7.27,1.93-14.58,2.54-21.91
					c0.56-6.83,1.21-13.77,0.69-20.62c-0.93-12.12-5.06-23.64-7.6-35.45c-1.45-6.76-2.36-13.62-2.47-20.54
					c-0.13-8.03,0.29-16.06,0.91-24.07c0.62-8.09,1.45-16.16,2.09-24.24c0.63-7.97,1.36-16.05,1.04-24.05
					c-0.08-2.01-0.19-4.02-0.33-6.02C1457.55,1291.84,1455.88,1291.81,1455.86,1292.96L1455.86,1292.96z"/>
			</g>
		</g>
		<g>
			<g>
				<path class="st114" d="M1493.11,1149.08c12.2,19.04,24.93,38.23,32.32,59.77c7.31,21.3,8.02,43.87,6.39,66.14
					c-1.66,22.55-5.54,44.86-7.14,67.41c-0.79,11.16-1.01,22.38-0.07,33.53c0.97,11.61,3.46,22.91,6.53,34.13
					c3.17,11.58,6.74,23.06,8.93,34.88c2.23,12.06,2.99,24.26,2.83,36.51c-0.04,3.07-0.17,6.13-0.37,9.19
					c-0.12,1.91,2.76,1.86,2.95,0c1.25-12.24,1.03-24.54-0.58-36.73c-1.59-12.03-4.66-23.7-8-35.35
					c-3.31-11.52-6.68-23.05-8.35-34.95c-1.56-11.13-1.78-22.42-1.31-33.63c0.95-22.8,4.75-45.34,6.85-68.04
					c2.05-22.1,2.38-44.71-3.5-66.29c-6-22.01-18.04-41.86-30.83-60.53c-1.62-2.36-3.25-4.72-4.87-7.07
					C1494.13,1146.97,1492.39,1147.95,1493.11,1149.08L1493.11,1149.08z"/>
			</g>
		</g>
		<g>
			<g>
				<g>
					<path class="st115" d="M1449.68,1134.42l7.68-153.64l-10.55-6.22c-12.09,1.44-25.76,9.8-29.31,27.34l-10.29,120.55
						L1449.68,1134.42z"/>
				</g>
			</g>
		</g>
		<g transform="matrix(-1.56824,0.996771,0.538438,0.847134,469.013,-250.028)">
			<path class="st110" d="M-117.05,1543.07c0,0,1.41,6.15,3.58,10.47c2.56,5.09,6.84,10.32,4.72,27.5
				c-1.74,14.17,28.34-7.99,27.9-19.45c0,0-7.11-5.33-9.44-9.05c-2.95-4.71-8.29-19.21-8.29-19.21S-100.66,1527.76-117.05,1543.07z"
				/>
			<g>
				<defs>
					<path id="SVGID_32_" d="M-117.05,1543.07c0,0,1.41,6.15,3.58,10.47c2.56,5.09,6.84,10.32,4.72,27.5
						c-1.74,14.17,28.34-7.99,27.9-19.45c0,0-7.11-5.33-9.44-9.05c-2.95-4.71-8.29-19.21-8.29-19.21S-100.66,1527.76-117.05,1543.07
						z"/>
				</defs>
				<clipPath id="SVGID_11_">
					<use xlink:href="#SVGID_32_"  style="overflow:visible;"/>
				</clipPath>
				<path style="clip-path:url(#SVGID_11_);fill-rule:evenodd;clip-rule:evenodd;fill:#111120;" d="M-89.36,1549.33
					c0,0-8.48,13.87-18.66,4.39l17.78-14.36L-89.36,1549.33z"/>
			</g>
		</g>
		<g transform="matrix(0.963967,0.280844,-0.160222,0.553835,17.0426,125.998)">
			<path class="st115" d="M1589.82,876.6c1.36,7.09,3.45,68.69,13.96,124.48c0.69,3.66,55.17,20.53,95.86-36.36
				c-4.87-20.66-26.83-77.31-22.54-104.19c2.78-17.4-11.62-128.97-9.41-143.06c-12.3-5.52-23.69-12.21-30.83-22.19
				c0,0-7.3,46.6-27.56,43.83c-5.26-0.72-4.58-24.32-6.52-19.74c-2.36,5.56-17.8,66.74-21.9,87.21
				C1571.9,851.35,1588.86,871.61,1589.82,876.6z"/>
			<g>
				<defs>
					<path id="SVGID_34_" d="M1589.82,876.6c1.36,7.09,3.45,68.69,13.96,124.48c0.69,3.66,66.56,49.43,99.2-25.68
						c0.64-1.47-30.17-87.99-25.88-114.86c2.78-17.4-1-78.82,1.21-92.91c4.52-28.84-15.99-40.61-38.77-68.99
						c0,0-9.97,43.24-30.23,40.48c-5.26-0.72-4.66-23.17-6.6-18.58c-2.36,5.56-17.72,65.58-21.83,86.06
						C1571.9,851.35,1588.86,871.61,1589.82,876.6z"/>
				</defs>
				<clipPath id="SVGID_12_">
					<use xlink:href="#SVGID_34_"  style="overflow:visible;"/>
				</clipPath>
			</g>
		</g>
		<g transform="matrix(-0.53464,0.5406,0.541107,0.653708,225.636,51.5574)">
			<path class="st110" d="M-521.26,2017.21c-1.47-33.25-0.37-116.89-0.37-116.89c1.43-53.44,37.16-56.38,60.79-19.85
				c6.42,43.37-1.41,108.02-7.77,137.54C-470.86,2028.44-520.24,2040.34-521.26,2017.21z"/>
		</g>
		<path class="st117" d="M1586.42,1073.89l-35.92,27.93l-56.01-55.72c0,0-17.42-31.95-9-45.36c4.37-6.96,2.64-24.58,2.64-24.58
			s31.54,8.57,55.8,41.56C1566.79,1048.79,1586.42,1073.89,1586.42,1073.89"/>
		<g transform="matrix(-1.1182,-0.0174407,-0.0179481,1.40107,463.131,-63.0102)">
			<path class="st110" d="M-910.51,720.3c-8.25-3.12-11.08-5.51-14.32-10.92c-14.96-25.02-5.01-38.22,5.63-41.3
				c40.06-11.64,45.77,14.17,45.77,14.17s-0.3,35.06-5.45,39.77C-883.49,726.23-895.11,726.11-910.51,720.3z"/>
		</g>
		<path class="st109" d="M1479.06,979.93l0.14-36.49c0,0,6.93-0.81,10.19-7.79c5.8-12.44-2.56-16.75-7.98-13.23l-4.28,14.06
			c0,0-3.15-0.21-4.6-9.96c-1.21-8.13-6.27-18.09-10.15-19.37c0,0-9.78,13.05-34.47,21.51c0,0-6.98-16.71,1.53-34.11
			s30.84-15.21,37.09-11.41c0,0,30.35-9.87,38.31,24.35c4.85,20.83,8.36,44.75,14.46,68.66L1479.06,979.93z"/>
		<g>
			<g>
				<path class="st114" d="M1427.1,1145.46c-0.58,9.4-0.71,18.81-0.18,28.21c0.53,9.31,1.58,18.6,3.12,27.8
					c0.44,2.63,0.94,5.24,1.49,7.85c0.27,1.29,0.53,2.6,0.85,3.88c0.34,1.35,0.77,2.62,1.28,3.92c0.18,0.46,0.56,0.78,1.08,0.7
					c0.45-0.07,0.89-0.47,0.85-0.97c-0.1-1.24-0.21-2.45-0.44-3.67c-0.21-1.15-0.45-2.29-0.68-3.43c-0.46-2.31-0.88-4.62-1.3-6.93
					c-0.83-4.52-1.54-9.06-2.12-13.62c-1.17-9.22-1.73-18.48-1.98-27.77c-0.15-5.32-0.13-10.64,0.03-15.96
					C1429.14,1144.16,1427.18,1144.18,1427.1,1145.46L1427.1,1145.46z"/>
			</g>
		</g>
		<g>
			<g>
				<path class="st114" d="M1437.38,1153.37c-1.48,15.55-0.9,31.27,1.71,46.67c0.36,2.13,0.76,4.26,1.2,6.38
					c0.23,1.1,0.47,2.19,0.73,3.29c0.25,1.05,0.38,2.21,1,3.11c0.32,0.45,0.92,0.26,0.99-0.27c0.12-0.94-0.21-1.85-0.42-2.77
					c-0.23-1.02-0.45-2.03-0.68-3.05c-0.41-1.88-0.79-3.76-1.14-5.66c-0.7-3.8-1.28-7.62-1.72-11.46
					c-0.89-7.64-1.28-15.34-1.17-23.04c0.06-4.41,0.29-8.81,0.68-13.2C1438.63,1152.61,1437.46,1152.62,1437.38,1153.37
					L1437.38,1153.37z"/>
			</g>
		</g>
		<g>
			<g>
				<path class="st114" d="M1449.29,1147.19c-0.08,2.53-0.14,5.06-0.3,7.58c-0.14,2.17-0.14,4.34-0.17,6.52
					c-0.03,1.88-0.09,3.76-0.07,5.64c0.01,1.18-0.27,3.12,0.97,3.78c-0.19-0.33-0.38-0.67-0.57-1c0,0,0,0,0,0
					c0,1.49,2.32,1.5,2.32,0c0,0,0,0,0,0c-0.19,0.33-0.38,0.67-0.57,1c1.13-0.6,0.94-2.16,0.96-3.24c0.03-1.78-0.03-3.56-0.05-5.33
					c-0.03-2.17,0.01-4.35-0.13-6.52c-0.12-1.88-0.21-3.76-0.27-5.64c-0.03-0.93-0.06-1.85-0.09-2.78
					C1451.26,1145.9,1449.33,1145.9,1449.29,1147.19L1449.29,1147.19z"/>
			</g>
		</g>
		<g>
			<g>
				<path class="st114" d="M1465.22,1147.19c0.61,5.58,1.28,11.15,1.96,16.73c0.07,0.54,0.12,1.08,0.22,1.62
					c0.03,0.14,0.04,0.29,0.08,0.43c0.07,0.28,0.22,0.54,0.42,0.75c0.12,0.12,0.59,0.57,0.09,0.09c0.65,0.63,1.73,0.5,2.19-0.28
					c-0.03,0.06-0.34,0.49-0.08,0.1c0.08-0.13,0.08-0.1,0.13-0.18c0.07-0.12,0.14-0.29,0.18-0.43c0.07-0.25,0.05-0.5,0.03-0.75
					c-0.04-0.45-0.1-0.9-0.17-1.35c-0.15-1.07-0.31-2.14-0.46-3.21c-0.41-2.9-0.82-5.79-1.22-8.69c-0.23-1.66-0.44-3.22-0.65-4.83
					c-0.1-0.73-0.56-1.36-1.36-1.36C1465.9,1145.83,1465.14,1146.46,1465.22,1147.19L1465.22,1147.19z"/>
			</g>
		</g>
		<g>
			<g>
				<path class="st114" d="M1480.4,1144.68c2.41,5.04,4.82,10.09,7.23,15.13c0.49,1.03,1.01,2.29,1.83,3.11
					c0.74,0.74,2.41,0.26,2.27-0.94c-0.13-1.08-0.66-2.17-1.14-3.14c-0.72-1.46-1.45-2.91-2.17-4.37c-1.52-3.05-3.03-6.1-4.55-9.16
					c-0.34-0.69-0.68-1.37-1.02-2.06c-0.34-0.68-1.31-0.88-1.94-0.51C1480.2,1143.16,1480.07,1143.99,1480.4,1144.68L1480.4,1144.68
					z"/>
			</g>
		</g>
		<g>
			<g>
				<path class="st114" d="M1411.96,1139.43c-0.07,1.65-0.28,3.28-0.46,4.92c-0.1,0.98-0.22,1.95-0.35,2.93
					c-0.03,0.21-0.05,0.42-0.08,0.63c0.05-0.34-0.04,0.31-0.06,0.41c-0.07,0.5-0.14,1-0.21,1.5c-0.5,3.42-1.1,6.81-1.55,10.24
					c-0.12,0.91-0.33,2.36,0.48,3.03c-0.11-0.43-0.23-0.87-0.34-1.3c0,0,0,0.01,0,0.01c-0.13,0.71,0.19,1.44,0.93,1.65
					c0.65,0.18,1.52-0.22,1.64-0.93c0,0,0-0.01,0-0.01c-0.31,0.31-0.62,0.62-0.93,0.93c1-0.35,1.43-1.47,1.62-2.43
					c0.28-1.37,0.55-2.73,0.74-4.11c0.54-3.92,1.04-7.84,1.36-11.78c0.15-1.89,0.22-3.78,0.14-5.68
					C1414.84,1137.53,1412.04,1137.53,1411.96,1139.43L1411.96,1139.43z"/>
			</g>
		</g>
		<g>
			<g>
				<path class="st114" d="M1495.82,1139.85c1.09,1.76,2.19,3.52,3.28,5.28c0.95,1.53,1.9,3.06,2.85,4.59
					c0.85,1.36,1.65,2.77,2.57,4.09c0.63,0.91,1.44,2.57,2.56,2.84c0.31,0.07,0.56,0.04,0.87,0c-1.02,0.14,0.21-0.05,0.4-0.16
					c0.37-0.22,0.63-0.58,0.75-0.98c0.17-0.58,0.04-1.11-0.25-1.61c-0.23-0.39-0.48-0.77-0.71-1.16c-1.72-2.79-3.66-5.44-5.52-8.13
					c-1.43-2.07-2.86-4.15-4.28-6.22c-0.45-0.65-1.28-0.94-1.99-0.52C1495.68,1138.25,1495.41,1139.18,1495.82,1139.85
					L1495.82,1139.85z"/>
			</g>
		</g>
		<g>
			<g>
				<path class="st21" d="M1491,1108.72c-0.06,0.07-0.11,0.14-0.17,0.21c-0.09,0.11-0.18,0.23-0.26,0.34
					c0.25-0.32,0.2-0.27-0.13,0.17c-0.17,0.28-0.27,0.66-0.38,0.97c-0.22,0.62-0.38,1.17-0.45,1.83c-0.11,0.97-0.17,1.95-0.21,2.92
					c-0.09,2.15-0.02,4.28,0.15,6.42c0.38,4.95,1.07,9.9,1.98,14.78c1.54,8.33,3.54,16.57,5.81,24.72c0.58,2.07,1.04,4.28,2.03,6.2
					c0.39,0.75,1.46,1.45,2.34,1.34c0,0,0,0,0,0c-0.87-0.66-1.73-1.32-2.6-1.98c0.01,0.02,0.01,0.03,0.02,0.05
					c0.42,1.34,1.89,2.34,3.31,1.88c1.35-0.44,2.33-1.87,1.88-3.31c-0.01-0.02-0.01-0.03-0.02-0.05c-0.41,1.01-0.83,2.03-1.24,3.04
					c0,0,0,0,0,0c0.76-0.36,1.45-1.48,1.34-2.34c-0.24-1.84-0.84-3.57-1.36-5.36c-0.99-3.39-1.93-6.8-2.82-10.22
					c-1.15-4.44-2.2-8.91-3.12-13.4c-0.48-2.37-0.94-4.74-1.35-7.12c-0.2-1.18-0.39-2.35-0.57-3.53c-0.04-0.3-0.09-0.61-0.13-0.91
					c-0.03-0.18-0.14-1.11-0.03-0.22c-0.07-0.6-0.16-1.2-0.23-1.8c-0.29-2.46-0.48-4.92-0.62-7.39c-0.07-1.12-0.1-2.23-0.09-3.35
					c0-0.67-0.11-1.32-0.21-1.98c-0.01-0.07-0.02-0.15-0.03-0.22c-0.08-0.53,0.04,0.29-0.01-0.06c-0.06-0.49-0.24-0.89-0.43-1.33
					C1493.02,1108.19,1491.56,1108.01,1491,1108.72L1491,1108.72z"/>
			</g>
		</g>
		<g>
			<g transform="matrix(-0.53464,0.5406,0.541107,0.653708,225.636,51.5574)">
				<path class="st110" d="M-498.58,1991.8c32.43-22.97,132.79-85.07,132.79-85.07c6.71-1.7,9.6,14.98-5.4,27.77
					c-32.28,27.52-80.08,84.78-100.25,95.48c-10.49,5.57-22.33,8.57-33.89,7.97c-13-0.67-19.29-10.23-12.94-25.79
					C-514.85,2003.78-506.53,1997.43-498.58,1991.8z"/>
			</g>
		</g>
		<g transform="matrix(0.974055,-0.67328,-0.5167,-0.942129,126.469,681.441)">
			<path class="st110" d="M836.62-1038.36c-0.86,1.09-20.9,16.27-29.49,17.81c-6.38,1.08-9.05,2.01-14.82,4.93
				c-5.09,2.57-3.11,3.57-5.45,4.84c-0.49,0.27-1.3-1.54-0.25-5.24c1.42-4.95,5.7-6,5.44-6.02c-6.45-0.68-29.26-2.11-28.82-5.85
				c0.23-1.98,25.59,0.5,25.32,0.38c-2.21-1-15.8-5.62-20.99-6.97c-5.03-1.31-5.25-2.39-5.58-2.95c-0.32-0.55,1.93-0.7,3.64-0.38
				c5.48,1.04,22.95,3.2,24.87,3.81c0.39,0.13-15.48-6.92-20.82-10.41c-3.58-2.34-5.65-5.14,1.28-2.98
				c4.93,1.54,9.6,4.09,14.45,6.29c2.17,0.98,6.36,2.06,8.53,3.04c0.95,0.43-8.68-6.44-11.86-9.17c-1.81-1.55-3.17-3.03-4.56-5.02
				c-0.73-1.05,1.49-1.6,3.15-0.5c3.94,2.61,8.45,6.5,12.95,7.92c4.41,1.4,21.62,3.52,35.24-6.04
				C833.19-1051.2,836.62-1038.36,836.62-1038.36z"/>
		</g>
		
			<rect x="1469.3" y="1137.79" transform="matrix(0.9946 -0.1037 0.1037 0.9946 -118.9075 166.7524)" class="st21" width="150.64" height="178.84"/>
		<g>
			<g>
				<path class="st21" d="M1503.38,1094.54c1.37-0.63,2.87-1.2,4.5-1.71c1.51-0.47,3.05-0.88,4.6-1.18
					c0.39-0.08,0.78-0.14,1.17-0.21c0.14-0.02,0.8-0.15,0.07-0.02c0.16-0.03,0.32-0.04,0.48-0.06c0.72-0.08,1.45-0.14,2.18-0.17
					c1.4-0.05,2.82-0.03,4.22,0.09c0.34,0.03,0.73,0.13,1.07,0.12c-0.73,0.04-0.29-0.04-0.04,0c0.15,0.02,0.29,0.05,0.44,0.07
					c0.67,0.11,1.33,0.25,1.99,0.41c1.3,0.32,2.57,0.73,3.82,1.23c0.21,0.09,0.62,0.38-0.04-0.02c0.14,0.09,0.32,0.14,0.48,0.21
					c0.29,0.13,0.58,0.27,0.86,0.41c0.6,0.29,1.18,0.6,1.76,0.93c1.15,0.66,2.27,1.39,3.33,2.19c0.16,0.12,0.57,0.53-0.04-0.03
					c0.13,0.12,0.27,0.22,0.41,0.32c0.25,0.2,0.49,0.4,0.74,0.61c0.51,0.43,1.01,0.88,1.49,1.34c0.97,0.92,1.89,1.9,2.77,2.92
					c0.44,0.51,0.86,1.03,1.28,1.56c0.27,0.33-0.5-0.67-0.06-0.08c0.13,0.17,0.26,0.35,0.39,0.52c0.26,0.34,0.51,0.69,0.76,1.04
					c0.92,1.29,1.79,2.61,2.61,3.96c1.55,2.55,2.91,5.2,4.09,7.94c0.11,0.25,0.14,0.7-0.01-0.02c0.03,0.17,0.15,0.36,0.22,0.52
					c0.13,0.32,0.26,0.64,0.38,0.96c0.26,0.67,0.52,1.35,0.76,2.02c0.49,1.36,0.94,2.73,1.37,4.11c0.98,3.2,1.82,6.45,2.61,9.7
					c0.85,3.48,1.59,7.06,2.92,10.39c0.49,1.21,1.47,2.04,2.85,1.86c1.17-0.16,2.38-1.26,2.25-2.55c-0.36-3.48-1.16-6.93-1.99-10.33
					c-0.72-2.96-1.46-5.92-2.32-8.85c-1.74-5.97-3.98-11.82-7.07-17.23c-3.05-5.33-6.8-10.47-11.63-14.32
					c-4.62-3.68-10.02-6.38-15.91-7.22c-3.67-0.52-7.25-0.4-10.87,0.39c-3.91,0.85-7.55,2.54-10.91,4.68
					c-0.89,0.56-1.32,1.81-0.72,2.74C1501.27,1094.81,1502.35,1095.01,1503.38,1094.54L1503.38,1094.54z"/>
			</g>
		</g>
	</g>
	<g>
		<path class="st115" d="M1536.22,1580.4c0.56,1.45-0.33,4.24,0.26,6.05c1.77,5.45,2.58,11.89,2.58,18.11c0,0,1.11,0.21,0.97,1.22
			c-0.34,2.42,0.55,5.64-1.11,6.03c-6.79,1.61-36.1-1.37-44.32,0.68c-8.22,2.05-48.08,7.42-57.57,0.62c0,0-0.46-1.22,0.45-2.39
			c0.13-0.17,0.62-0.18,0.8-0.35c1.35-1.29,4.14-3.12,9.88-5.31c11.75-4.48,45.53-18.43,49.96-28.56c0,0,4.5,0.11,4.5,5.8
			s0.82,4.41,9.04,1.25c4.89-1.88,11.8-4.66,16.59-6.6C1531.43,1575.68,1535.01,1577.22,1536.22,1580.4z"/>
		<path class="st118" d="M1545.93,1604.47l-6.87,0.1c0,0-24.08,1.81-29.55,1.57s-20.47-0.24-26.42,1.43
			c-5.95,1.67-31.68,7.75-45.59,3.16"/>
		<g>
			<path class="st35" d="M1543.45,1599.55c-4.95-4.25-10.93-8.34-17.77-7.75c-3.52,0.3-6.79,1.68-10.09,2.84
				c-4.16,1.47-8.47,2.43-12.89,2.63c-7.45,0.32-14.89-0.88-22.32,0.17c-7.98,1.12-14.79,5.39-22.16,8.34
				c-0.3,0.12-0.19,0.58,0.14,0.5c6.6-1.72,12.58-5.29,19.26-6.75c7.59-1.66,15.44-0.52,23.12-0.39c3.27,0.05,6.56,0.09,9.81-0.41
				c3.47-0.54,6.66-1.91,9.96-3.02c3.84-1.29,7.54-1.85,11.5-0.75c3.9,1.09,7.27,3.47,10.7,5.53
				C1543.29,1600.82,1543.97,1600,1543.45,1599.55L1543.45,1599.55z"/>
		</g>
		<g>
			<path class="st35" d="M1491.28,1583.19c0.92,0.02,1.6,0.66,2.16,1.32c0.66,0.78,1.21,1.66,1.71,2.55
				c0.52,0.91,0.99,1.87,1.41,2.83c0.2,0.46,0.37,0.94,0.55,1.41c0.17,0.48,0.38,1.09,0.76,1.45c0.26,0.25,0.68,0.13,0.79-0.21
				c0.16-0.54-0.01-1.27-0.18-1.8c-0.17-0.54-0.35-1.08-0.56-1.61c-0.45-1.16-1.01-2.26-1.66-3.31c-1.07-1.73-2.63-3.99-4.96-3.78
				C1490.56,1582.11,1490.53,1583.17,1491.28,1583.19L1491.28,1583.19z"/>
		</g>
		<g>
			<path class="st35" d="M1487.16,1585.32c1.29,1.27,2.44,2.67,3.21,4.33c0.37,0.8,0.65,1.63,0.84,2.49
				c0.09,0.42,0.16,0.86,0.22,1.29c0.06,0.45,0.07,0.99,0.43,1.32c0.21,0.19,0.51,0.19,0.72,0c0.37-0.33,0.38-0.92,0.36-1.38
				c-0.02-0.53-0.08-1.06-0.19-1.58c-0.2-0.99-0.54-1.96-0.99-2.87c-0.9-1.78-2.24-3.39-4.01-4.35
				C1487.27,1584.32,1486.77,1584.93,1487.16,1585.32L1487.16,1585.32z"/>
		</g>
		<g>
			<path class="st35" d="M1480.21,1588.43c0.95,1.11,1.81,2.28,2.4,3.63c0.28,0.64,0.49,1.32,0.63,2.01
				c0.07,0.35,0.14,0.71,0.19,1.06c0.05,0.37,0.12,0.8,0.48,1c0.13,0.08,0.34,0.09,0.47,0c0.68-0.48,0.36-1.69,0.2-2.37
				c-0.18-0.8-0.46-1.57-0.81-2.32c-0.68-1.45-1.71-2.79-3.06-3.67C1480.29,1587.5,1479.91,1588.09,1480.21,1588.43L1480.21,1588.43
				z"/>
		</g>
	</g>
	<g>
		<path class="st115" d="M1442.2,1578.81c0.56,1.45-0.33,4.24,0.26,6.05c1.77,5.45,2.58,11.89,2.58,18.11c0,0,1.11,0.21,0.97,1.22
			c-0.34,2.42,0.55,5.64-1.11,6.03c-6.79,1.61-36.1-1.37-44.32,0.68c-8.22,2.05-48.08,7.42-57.57,0.62c0,0-0.46-1.22,0.45-2.39
			c0.13-0.17,0.62-0.18,0.8-0.35c1.35-1.29,4.14-3.12,9.88-5.31c11.75-4.48,45.53-18.43,49.96-28.56c0,0,4.5,0.11,4.5,5.8
			s0.82,4.41,9.04,1.25c4.89-1.88,11.8-4.66,16.59-6.6C1437.41,1574.09,1440.98,1575.63,1442.2,1578.81z"/>
		<path class="st118" d="M1451.9,1602.88l-6.87,0.1c0,0-24.08,1.81-29.55,1.57c-5.47-0.24-20.47-0.24-26.42,1.43
			c-5.95,1.67-31.68,7.75-45.59,3.16"/>
		<g>
			<path class="st35" d="M1449.43,1597.96c-4.95-4.25-10.93-8.34-17.77-7.75c-3.52,0.3-6.79,1.68-10.09,2.84
				c-4.16,1.47-8.47,2.43-12.89,2.63c-7.45,0.32-14.89-0.88-22.32,0.17c-7.98,1.12-14.79,5.39-22.16,8.34
				c-0.3,0.12-0.19,0.58,0.14,0.5c6.6-1.72,12.58-5.29,19.26-6.75c7.59-1.66,15.44-0.52,23.12-0.39c3.27,0.05,6.56,0.09,9.81-0.41
				c3.47-0.54,6.66-1.91,9.96-3.02c3.84-1.29,7.54-1.85,11.5-0.75c3.9,1.09,7.27,3.47,10.7,5.53
				C1449.27,1599.23,1449.95,1598.41,1449.43,1597.96L1449.43,1597.96z"/>
		</g>
		<g>
			<path class="st35" d="M1397.26,1581.6c0.92,0.02,1.6,0.66,2.16,1.32c0.66,0.78,1.21,1.66,1.71,2.55
				c0.52,0.91,0.99,1.87,1.41,2.83c0.2,0.46,0.37,0.94,0.55,1.41c0.17,0.48,0.38,1.09,0.76,1.45c0.26,0.25,0.68,0.13,0.79-0.21
				c0.16-0.54-0.01-1.27-0.18-1.8c-0.17-0.54-0.35-1.08-0.56-1.61c-0.45-1.16-1.01-2.26-1.66-3.31c-1.07-1.73-2.63-3.99-4.96-3.78
				C1396.54,1580.52,1396.51,1581.58,1397.26,1581.6L1397.26,1581.6z"/>
		</g>
		<g>
			<path class="st35" d="M1393.14,1583.73c1.29,1.27,2.44,2.67,3.21,4.33c0.37,0.8,0.65,1.63,0.84,2.49
				c0.09,0.42,0.16,0.86,0.22,1.29c0.06,0.45,0.07,0.99,0.43,1.32c0.21,0.19,0.51,0.19,0.72,0c0.37-0.33,0.38-0.92,0.36-1.38
				c-0.02-0.53-0.08-1.06-0.19-1.58c-0.2-0.99-0.54-1.96-0.99-2.87c-0.9-1.78-2.24-3.39-4.01-4.35
				C1393.25,1582.73,1392.74,1583.34,1393.14,1583.73L1393.14,1583.73z"/>
		</g>
		<g>
			<path class="st35" d="M1386.18,1586.84c0.95,1.11,1.81,2.28,2.4,3.63c0.28,0.64,0.49,1.32,0.63,2.01
				c0.07,0.35,0.14,0.71,0.19,1.06c0.05,0.37,0.12,0.8,0.48,1c0.13,0.08,0.34,0.09,0.47,0c0.68-0.48,0.36-1.69,0.2-2.37
				c-0.18-0.8-0.46-1.57-0.81-2.32c-0.68-1.45-1.71-2.79-3.06-3.67C1386.27,1585.91,1385.89,1586.5,1386.18,1586.84L1386.18,1586.84
				z"/>
		</g>
	</g>
	<path class="st22" d="M1428.75,943.39h7.87l28.46-4.12l4.32,9.77c0,0,2.95,12.29-13.3,17.5
		C1439.86,971.75,1427.66,971.2,1428.75,943.39z"/>
	<g>
		<path class="st23" d="M1464.51,940.64c2.28-1.67,4.22-3.89,6.16-5.93c2.68-2.81,5.27-5.72,7.89-8.59
			c1.04-1.13,2.29-2.24,3.12-3.54c0.17-0.26-0.16-0.58-0.42-0.42c-1.12,0.67-2.05,1.81-2.94,2.75c-1.26,1.34-2.5,2.7-3.73,4.06
			c-2.51,2.76-4.99,5.56-7.55,8.27c-0.93,0.99-1.87,2.01-2.94,2.84C1463.78,940.33,1464.19,940.87,1464.51,940.64L1464.51,940.64z"
			/>
	</g>
	<g>
		<path class="st23" d="M1469.7,952.51c1.26-1.22,2.74-2.14,4.2-3.09c1.44-0.93,2.82-1.93,4.17-2.98c1.37-1.07,2.69-2.18,4-3.32
			c1.37-1.19,2.86-2.36,4.02-3.75c0.23-0.27-0.07-0.75-0.4-0.52c-1.41,0.96-2.63,2.21-3.92,3.33c-1.38,1.21-2.78,2.39-4.23,3.52
			c-1.44,1.13-2.92,2.2-4.45,3.21c-1.39,0.92-2.78,1.85-3.97,3.04C1468.77,952.31,1469.33,952.87,1469.7,952.51L1469.7,952.51z"/>
	</g>
</g>
</svg>
