<?xml version="1.0"?>
<svg xmlns="http://www.w3.org/2000/svg" xmlns:xlink="http://www.w3.org/1999/xlink" xmlns:svgjs="http://svgjs.com/svgjs" version="1.1" width="512" height="512" x="0" y="0" viewBox="0 0 512.001 512.001" style="enable-background:new 0 0 512 512" xml:space="preserve" class=""><g><path xmlns="http://www.w3.org/2000/svg" d="m316.029 36.99-11.408-11.36c-5.87-5.846-5.89-15.344-.044-21.214 5.845-5.87 15.342-5.891 21.213-.044l11.408 11.36c5.87 5.846 5.89 15.344.044 21.214-5.841 5.865-15.338 5.894-21.213.044z" fill="#dfdfdd" data-original="#dddddf" style="" class=""/><g xmlns="http://www.w3.org/2000/svg"><path d="m272.067 254.934c-3.84 0-7.68-1.465-10.609-4.396-5.857-5.859-5.855-15.357.005-21.214l54.546-54.521c5.86-5.855 15.357-5.854 21.213.005 5.857 5.859 5.854 15.357-.005 21.214l-54.546 54.521c-2.928 2.927-6.766 4.391-10.604 4.391z" fill="#dfdfdd" data-original="#dddddf" style="" class=""/><path d="m225.055 127.839-11.327-11.36c-5.849-5.866-5.835-15.363.031-21.213 5.867-5.85 15.364-5.836 21.213.031l11.327 11.36c5.849 5.866 5.835 15.363-.031 21.213-5.864 5.846-15.363 5.838-21.213-.031z" fill="#dfdfdd" data-original="#dddddf" style="" class=""/><path d="m243.677 325.137-56.805-56.805c-5.857-5.858-15.355-5.858-21.213 0l-161.265 161.259c-5.858 5.858-5.858 15.355 0 21.213l56.804 56.804c5.857 5.857 15.354 5.858 21.213 0l161.266-161.258c5.858-5.858 5.858-15.355 0-21.213z" fill="#ffd54f" data-original="#ff7800" style="" class=""/><path d="m82.411 507.607 161.266-161.257c5.858-5.858 5.858-15.355 0-21.213l-28.416-28.416-182.467 182.483 28.404 28.403c5.857 5.858 15.355 5.859 21.213 0z" fill="#ffa000" data-original="#e9501e" style="" class=""/><path d="m215.272 224.934c-3.978 0-7.793 1.581-10.606 4.393l-39.006 39.005 78.018 78.018 39.005-39.006c2.813-2.813 4.393-6.628 4.393-10.606v-50.59l-21.213-21.213h-50.591z" fill="#ffea43" data-original="#ffbe43" style="" class=""/><path d="m282.682 307.344c2.813-2.813 4.393-6.628 4.393-10.606v-50.59l-10.623-10.622-71.797 71.803 39.022 39.022z" fill="#ffd221" data-original="#ff9b21" style="" class=""/><g fill="#d0d0d5"><path d="m486.415 207.402-11.407-11.36c-5.87-5.846-5.889-15.343-.043-21.213 5.847-5.87 15.344-5.89 21.213-.043l11.407 11.36c5.87 5.846 5.889 15.343.043 21.213-5.841 5.865-15.339 5.894-21.213.043z" fill="#d0d0d5" data-original="#d0d0d5" style="" class=""/><path d="m440.91 252.808-11.328-11.361c-5.849-5.866-5.835-15.364.032-21.213 5.867-5.85 15.363-5.836 21.213.031l11.328 11.361c5.849 5.866 5.835 15.364-.032 21.213-5.864 5.847-15.361 5.839-21.213-.031z" fill="#d0d0d5" data-original="#d0d0d5" style="" class=""/><path d="m395.441 298.252-11.327-11.36c-5.849-5.866-5.835-15.363.031-21.213 5.867-5.85 15.364-5.836 21.213.031l11.327 11.36c5.849 5.866 5.835 15.363-.031 21.213-5.864 5.847-15.362 5.838-21.213-.031z" fill="#d0d0d5" data-original="#d0d0d5" style="" class=""/></g><path d="m379.965 302.26c-5.06-1.193-9.141-4.922-10.785-9.853l-22.734-68.165c-1.797-5.39-.396-11.331 3.62-15.35l68.122-68.165c4.016-4.018 9.96-5.424 15.351-3.628l68.203 22.722c4.932 1.644 8.662 5.724 9.857 10.783 1.195 5.06-.315 10.378-3.991 14.054l-113.592 113.608c-6.172 6.175-13.852 4.041-14.051 3.994z" fill="#dfdfdd" data-original="#dddddf" style="" class=""/><path d="m270.56 82.432-11.407-11.36c-5.87-5.846-5.889-15.343-.043-21.213s15.344-5.89 21.213-.043l11.407 11.36c5.87 5.846 5.889 15.343.043 21.213-5.841 5.865-15.339 5.895-21.213.043z" fill="#dfdfdd" data-original="#dddddf" style="" class=""/><path d="m287.726 165.56-68.123-22.722c-4.931-1.645-8.659-5.725-9.853-10.784s.316-10.375 3.992-14.051l113.591-113.608c3.676-3.676 8.994-5.187 14.052-3.994 5.06 1.194 9.141 4.923 10.785 9.854l22.734 68.165c1.798 5.393.395 11.338-3.626 15.355l-68.203 68.165c-4.302 4.301-10.348 5.288-15.349 3.62z" fill="#e4e4e7" data-original="#e4e4e7" style=""/><path d="m436.901 138.22-63.116-63.156-89.414 89.377 63.195 63.16z" fill="#f4f1f1" data-original="#f4f1f1" style="" class=""/><path d="m347.566 227.601 89.335-89.381-31.556-31.576-89.374 89.38z" fill="#e4e4e7" data-original="#e4e4e7" style=""/></g></g></svg>
