<?xml version="1.0" encoding="iso-8859-1"?>
<!-- Generator: Adobe Illustrator 19.0.0, SVG Export Plug-In . SVG Version: 6.00 Build 0)  -->
<svg version="1.1" id="Layer_1" xmlns="http://www.w3.org/2000/svg" xmlns:xlink="http://www.w3.org/1999/xlink" x="0px" y="0px"
	 viewBox="0 0 512 512" style="enable-background:new 0 0 512 512;" xml:space="preserve">
<circle style="fill:#FFA91F;" cx="256" cy="256" r="256"/>
<path style="fill:#E67500;" d="M512,256c0-31.262-5.613-61.211-15.871-88.907L419.036,90l-238.089,79.641h-6.119H85.88
	c-18.287,0-33.249,14.962-33.249,33.249v60.161c0,10.376,4.82,19.678,12.329,25.788l32.136,32.363l20.378,102.611
	c0.856,4.31,3.466,7.839,6.933,10.022l70.91,70.91C214.771,509.474,235.089,512,256,512C397.385,512,512,397.385,512,256z"/>
<polygon style="fill:#FF4F19;" points="443.472,211.564 412.333,185.026 412.333,280.916 443.472,254.377 "/>
<g>
	<polygon style="fill:#EE2600;" points="443.47,232.97 443.47,254.38 419.04,275.2 412.33,280.92 412.33,232.97 	"/>
	<polygon style="fill:#EE2600;" points="153.72,326.654 179.282,358.964 160.744,366.15 	"/>
</g>
<polygon style="fill:#FFFFFF;" points="180.947,169.641 174.828,169.641 174.828,296.301 180.947,296.301 419.036,375.941 
	419.036,90 "/>
<polygon style="fill:#E1E1E3;" points="419.04,232.97 419.04,375.94 180.95,296.3 174.83,296.3 174.83,232.97 "/>
<path style="fill:#004EB1;" d="M180.947,169.641H85.88c-18.287,0-33.249,14.962-33.249,33.249v60.161
	c0,18.287,14.962,33.249,33.249,33.249h6.27l25.324,127.512c1.652,8.319,9.811,13.774,18.13,12.122l24.818-4.929
	c8.319-1.652,13.774-9.811,12.122-18.13L149.392,296.3h31.555L180.947,169.641L180.947,169.641z"/>
<path style="fill:#003D8D;" d="M180.95,232.97H52.63v30.08c0,18.29,14.96,33.25,33.25,33.25h6.269l25.324,127.513
	c1.652,8.319,9.811,13.774,18.13,12.122l24.818-4.929c8.319-1.652,13.774-9.811,12.122-18.13L149.392,296.3h31.558V232.97z"/>
<g>
</g>
<g>
</g>
<g>
</g>
<g>
</g>
<g>
</g>
<g>
</g>
<g>
</g>
<g>
</g>
<g>
</g>
<g>
</g>
<g>
</g>
<g>
</g>
<g>
</g>
<g>
</g>
<g>
</g>
</svg>
